<mxfile host="app.diagrams.net" modified="2023-10-11T07:21:51.974Z" agent="Mozilla/5.0 (Windows NT 10.0; Win64; x64) AppleWebKit/537.36 (KHTML, like Gecko) Chrome/117.0.0.0 Safari/537.36 Edg/117.0.2045.60" etag="GQLi8i2vBYOjKaWOL2wE" version="21.8.2" type="github" pages="2">
  <diagram name="Page-1" id="c7558073-3199-34d8-9f00-42111426c3f3">
    <mxGraphModel dx="1426" dy="759" grid="1" gridSize="10" guides="1" tooltips="1" connect="1" arrows="1" fold="1" page="1" pageScale="1" pageWidth="826" pageHeight="1169" background="none" math="0" shadow="0">
      <root>
        <mxCell id="0" />
        <mxCell id="1" parent="0" />
        <mxCell id="2" value="&lt;p style=&quot;margin: 0px; margin-top: 4px; text-align: center; text-decoration: underline;&quot;&gt;&lt;strong&gt;Process 1&lt;br /&gt;&lt;/strong&gt;&lt;/p&gt;&lt;hr /&gt;&lt;p style=&quot;margin: 0px; margin-left: 8px;&quot;&gt;System Study&lt;/p&gt;&lt;p style=&quot;margin: 0px; margin-left: 8px;&quot;&gt;Preparation&lt;/p&gt;" style="verticalAlign=middle;align=center;overflow=fill;fontSize=12;fontFamily=Helvetica;html=1;rounded=1;fontStyle=1;strokeWidth=3;fillColor=#E6FFCC" parent="1" vertex="1">
          <mxGeometry x="236" y="236" width="110" height="90" as="geometry" />
        </mxCell>
        <mxCell id="3" value="Engineering" style="whiteSpace=wrap;align=center;verticalAlign=middle;fontStyle=1;strokeWidth=3;fillColor=#FFFFCC" parent="1" vertex="1">
          <mxGeometry x="246" y="126" width="90" height="60" as="geometry" />
        </mxCell>
        <mxCell id="4" value="Investors" style="whiteSpace=wrap;align=center;verticalAlign=middle;fontStyle=1;strokeWidth=3;fillColor=#FFFFCC" parent="1" vertex="1">
          <mxGeometry x="40" y="251" width="90" height="60" as="geometry" />
        </mxCell>
        <mxCell id="5" value="ON-DEMAND SYSTEM DEVELOPMENT" style="shape=process;whiteSpace=wrap;align=center;verticalAlign=middle;size=0.0475;fontStyle=1;strokeWidth=3;fillColor=#FFCCCC" parent="1" vertex="1">
          <mxGeometry x="200.99999999999991" y="391" width="400" height="50" as="geometry" />
        </mxCell>
        <mxCell id="6" value="&lt;p style=&quot;margin: 0px; margin-top: 4px; text-align: center; text-decoration: underline;&quot;&gt;&lt;strong&gt;Process 2&lt;br /&gt;&lt;/strong&gt;&lt;/p&gt;&lt;hr /&gt;&lt;p style=&quot;margin: 0px; margin-left: 8px;&quot;&gt;System Analysis&lt;/p&gt;" style="verticalAlign=middle;align=center;overflow=fill;fontSize=12;fontFamily=Helvetica;html=1;rounded=1;fontStyle=1;strokeWidth=3;fillColor=#E6FFCC" parent="1" vertex="1">
          <mxGeometry x="390" y="146" width="110" height="90" as="geometry" />
        </mxCell>
        <mxCell id="7" value="&lt;p style=&quot;margin: 0px; margin-top: 4px; text-align: center; text-decoration: underline;&quot;&gt;&lt;strong&gt;&lt;strong&gt;Process&lt;/strong&gt; 3&lt;br /&gt;&lt;/strong&gt;&lt;/p&gt;&lt;hr /&gt;&lt;p style=&quot;margin: 0px; margin-left: 8px;&quot;&gt;List Possible&lt;/p&gt;&lt;p style=&quot;margin: 0px; margin-left: 8px;&quot;&gt;System Solutions&lt;/p&gt;" style="verticalAlign=middle;align=center;overflow=fill;fontSize=12;fontFamily=Helvetica;html=1;rounded=1;fontStyle=1;strokeWidth=3;fillColor=#E6FFCC" parent="1" vertex="1">
          <mxGeometry x="681" y="371" width="110" height="90" as="geometry" />
        </mxCell>
        <mxCell id="8" value="&lt;p style=&quot;margin: 0px; margin-top: 4px; text-align: center; text-decoration: underline;&quot;&gt;&lt;strong&gt;&lt;strong&gt;Process&lt;/strong&gt; 4&lt;br /&gt;&lt;/strong&gt;&lt;/p&gt;&lt;hr /&gt;&lt;p style=&quot;margin: 0px; margin-left: 8px;&quot;&gt;Detail Chosen&lt;/p&gt;&lt;p style=&quot;margin: 0px; margin-left: 8px;&quot;&gt;Solution&lt;/p&gt;" style="verticalAlign=middle;align=center;overflow=fill;fontSize=12;fontFamily=Helvetica;html=1;rounded=1;fontStyle=1;strokeWidth=3;fillColor=#E6FFCC" parent="1" vertex="1">
          <mxGeometry x="560" y="241" width="110" height="90" as="geometry" />
        </mxCell>
        <mxCell id="9" value="&lt;p style=&quot;margin: 0px; margin-top: 4px; text-align: center; text-decoration: underline;&quot;&gt;&lt;strong&gt;&lt;strong&gt;Process&lt;/strong&gt; 5&lt;br /&gt;&lt;/strong&gt;&lt;/p&gt;&lt;hr /&gt;&lt;p style=&quot;margin: 0px; margin-left: 8px;&quot;&gt;New System&lt;/p&gt;&lt;p style=&quot;margin: 0px; margin-left: 8px;&quot;&gt;Design&lt;/p&gt;" style="verticalAlign=middle;align=center;overflow=fill;fontSize=12;fontFamily=Helvetica;html=1;rounded=1;fontStyle=1;strokeWidth=3;fillColor=#E6FFCC" parent="1" vertex="1">
          <mxGeometry x="540" y="510" width="110" height="90" as="geometry" />
        </mxCell>
        <mxCell id="10" value="&lt;p style=&quot;margin: 0px; margin-top: 4px; text-align: center; text-decoration: underline;&quot;&gt;&lt;strong&gt;&lt;strong&gt;Process&lt;/strong&gt; 6&lt;br /&gt;&lt;/strong&gt;&lt;/p&gt;&lt;hr /&gt;&lt;p style=&quot;margin: 0px; margin-left: 8px;&quot;&gt;New&lt;/p&gt;&lt;p style=&quot;margin: 0px; margin-left: 8px;&quot;&gt;System&lt;/p&gt;&lt;p style=&quot;margin: 0px; margin-left: 8px;&quot;&gt;Construction&lt;/p&gt;" style="verticalAlign=middle;align=center;overflow=fill;fontSize=12;fontFamily=Helvetica;html=1;rounded=1;fontStyle=1;strokeWidth=3;fillColor=#E6FFCC" parent="1" vertex="1">
          <mxGeometry x="188.49999999999991" y="510" width="110" height="90" as="geometry" />
        </mxCell>
        <mxCell id="12" value="Management" style="whiteSpace=wrap;align=center;verticalAlign=middle;fontStyle=1;strokeWidth=3;fillColor=#FFFFCC" parent="1" vertex="1">
          <mxGeometry x="691" y="60.00000000000002" width="90" height="60" as="geometry" />
        </mxCell>
        <mxCell id="13" value="Management" style="whiteSpace=wrap;align=center;verticalAlign=middle;fontStyle=1;strokeWidth=3;fillColor=#FFFFCC" parent="1" vertex="1">
          <mxGeometry x="353.50000000000006" y="650" width="90" height="60" as="geometry" />
        </mxCell>
        <mxCell id="14" value="Engineering" style="whiteSpace=wrap;align=center;verticalAlign=middle;fontStyle=1;strokeWidth=3;fillColor=#FFFFCC" parent="1" vertex="1">
          <mxGeometry x="34.99999999999997" y="524.9999999999999" width="90" height="60" as="geometry" />
        </mxCell>
        <mxCell id="15" value="Vendors" style="whiteSpace=wrap;align=center;verticalAlign=middle;fontStyle=1;strokeWidth=3;fillColor=#FFFFCC" parent="1" vertex="1">
          <mxGeometry x="549.9999999999999" y="650" width="90" height="60" as="geometry" />
        </mxCell>
        <mxCell id="36" value="" style="edgeStyle=none;noEdgeStyle=1;strokeColor=#990000;strokeWidth=2" parent="1" source="3" target="2" edge="1">
          <mxGeometry width="100" height="100" relative="1" as="geometry">
            <mxPoint x="20" y="250" as="sourcePoint" />
            <mxPoint x="120" y="150" as="targetPoint" />
          </mxGeometry>
        </mxCell>
        <mxCell id="37" value="" style="edgeStyle=none;noEdgeStyle=1;strokeColor=#990000;strokeWidth=2" parent="1" source="4" target="2" edge="1">
          <mxGeometry width="100" height="100" relative="1" as="geometry">
            <mxPoint x="280" y="190" as="sourcePoint" />
            <mxPoint x="380" y="90" as="targetPoint" />
          </mxGeometry>
        </mxCell>
        <mxCell id="11" value="&lt;p style=&quot;margin: 0px; margin-top: 4px; text-align: center; text-decoration: underline;&quot;&gt;&lt;strong&gt;&lt;strong&gt;Process&lt;/strong&gt; 7&lt;br /&gt;&lt;/strong&gt;&lt;/p&gt;&lt;hr /&gt;&lt;p style=&quot;margin: 0px; margin-left: 8px;&quot;&gt;New System&lt;/p&gt;&lt;p style=&quot;margin: 0px; margin-left: 8px;&quot;&gt;Startup and&lt;/p&gt;&lt;p style=&quot;margin: 0px; margin-left: 8px;&quot;&gt;Testing&lt;/p&gt;" style="verticalAlign=middle;align=center;overflow=fill;fontSize=12;fontFamily=Helvetica;html=1;rounded=1;fontStyle=1;strokeWidth=3;fillColor=#E6FFCC" parent="1" vertex="1">
          <mxGeometry x="343.49999999999994" y="510" width="110" height="90" as="geometry" />
        </mxCell>
        <mxCell id="51" value="" style="endArrow=none;noEdgeStyle=1;strokeColor=#990000;strokeWidth=2" parent="1" source="9" target="11" edge="1">
          <mxGeometry relative="1" as="geometry">
            <mxPoint x="205.00819672131135" y="481" as="sourcePoint" />
            <mxPoint x="400.32786885245895" y="650" as="targetPoint" />
          </mxGeometry>
        </mxCell>
        <mxCell id="52" value="Desired &#xa;functionality" style="text;spacingTop=-5;align=center" parent="1" vertex="1">
          <mxGeometry x="165" y="251" width="30" height="20" as="geometry" />
        </mxCell>
        <mxCell id="53" value="Desired &#xa;functionality" style="text;spacingTop=-5;align=center" parent="1" vertex="1">
          <mxGeometry x="241" y="196" width="30" height="20" as="geometry" />
        </mxCell>
        <mxCell id="54" value="Documentation&#xa;from similar projects" style="text;spacingTop=-5;align=center" parent="1" vertex="1">
          <mxGeometry x="186" y="341" width="30" height="20" as="geometry" />
        </mxCell>
        <mxCell id="55" value="" style="edgeStyle=elbowEdgeStyle;elbow=horizontal;strokeColor=#990000;strokeWidth=2" parent="1" source="5" target="2" edge="1">
          <mxGeometry width="100" height="100" relative="1" as="geometry">
            <mxPoint x="50" y="530" as="sourcePoint" />
            <mxPoint x="150" y="430" as="targetPoint" />
            <Array as="points">
              <mxPoint x="260" y="370" />
            </Array>
          </mxGeometry>
        </mxCell>
        <mxCell id="56" value="" style="edgeStyle=elbowEdgeStyle;elbow=horizontal;strokeColor=#990000;strokeWidth=2" parent="1" source="2" target="5" edge="1">
          <mxGeometry width="100" height="100" relative="1" as="geometry">
            <mxPoint x="50" y="500" as="sourcePoint" />
            <mxPoint x="150" y="400" as="targetPoint" />
            <Array as="points">
              <mxPoint x="280" y="360" />
            </Array>
          </mxGeometry>
        </mxCell>
        <mxCell id="57" value="Elaborate&#xa;cost/benefit&#xa;ratio" style="text;spacingTop=-5;align=center" parent="1" vertex="1">
          <mxGeometry x="306" y="341" width="30" height="20" as="geometry" />
        </mxCell>
        <mxCell id="58" value="" style="edgeStyle=elbowEdgeStyle;elbow=horizontal;strokeColor=#990000;strokeWidth=2" parent="1" source="5" target="6" edge="1">
          <mxGeometry width="100" height="100" relative="1" as="geometry">
            <mxPoint x="380" y="370" as="sourcePoint" />
            <mxPoint x="480" y="270" as="targetPoint" />
            <Array as="points">
              <mxPoint x="440" y="310" />
            </Array>
          </mxGeometry>
        </mxCell>
        <mxCell id="59" value="" style="edgeStyle=elbowEdgeStyle;elbow=horizontal;strokeColor=#990000;strokeWidth=2" parent="1" source="6" target="5" edge="1">
          <mxGeometry width="100" height="100" relative="1" as="geometry">
            <mxPoint x="350" y="370" as="sourcePoint" />
            <mxPoint x="450" y="270" as="targetPoint" />
            <Array as="points">
              <mxPoint x="460" y="320" />
            </Array>
          </mxGeometry>
        </mxCell>
        <mxCell id="60" value="Existing&#xa;documentation" style="text;spacingTop=-5;align=center" parent="1" vertex="1">
          <mxGeometry x="380.0000000000001" y="280.99999999999983" width="30" height="20" as="geometry" />
        </mxCell>
        <mxCell id="61" value="Necessary&#xa;resources" style="text;spacingTop=-5;align=center" parent="1" vertex="1">
          <mxGeometry x="481.0000000000002" y="251.00000000000006" width="30" height="20" as="geometry" />
        </mxCell>
        <mxCell id="62" value="Progress&#xa;reports" style="text;spacingTop=-5;align=center" parent="1" vertex="1">
          <mxGeometry x="545.0000000000001" y="100.00000000000003" width="30" height="20" as="geometry" />
        </mxCell>
        <mxCell id="63" value="Progress&#xa;reports" style="text;spacingTop=-5;align=center" parent="1" vertex="1">
          <mxGeometry x="640" y="146.0000000000001" width="30" height="20" as="geometry" />
        </mxCell>
        <mxCell id="64" value="Progress&#xa;reports" style="text;spacingTop=-5;align=center" parent="1" vertex="1">
          <mxGeometry x="751.0000000000001" y="261.0000000000001" width="30" height="20" as="geometry" />
        </mxCell>
        <mxCell id="65" value="" style="edgeStyle=elbowEdgeStyle;elbow=horizontal;strokeColor=#990000;strokeWidth=2" parent="1" source="6" target="12" edge="1">
          <mxGeometry width="100" height="100" relative="1" as="geometry">
            <mxPoint x="260" y="180.0000000000001" as="sourcePoint" />
            <mxPoint x="360" y="80.00000000000011" as="targetPoint" />
            <Array as="points">
              <mxPoint x="445" y="140" />
            </Array>
          </mxGeometry>
        </mxCell>
        <mxCell id="66" value="" style="edgeStyle=elbowEdgeStyle;elbow=vertical;entryX=0.25;entryY=1;strokeColor=#990000;strokeWidth=2" parent="1" source="8" target="12" edge="1">
          <mxGeometry width="100" height="100" relative="1" as="geometry">
            <mxPoint x="530" y="250" as="sourcePoint" />
            <mxPoint x="630" y="150" as="targetPoint" />
          </mxGeometry>
        </mxCell>
        <mxCell id="67" value="" style="edgeStyle=elbowEdgeStyle;elbow=horizontal;strokeColor=#990000;strokeWidth=2" parent="1" source="7" target="12" edge="1">
          <mxGeometry width="100" height="100" relative="1" as="geometry">
            <mxPoint x="660.0000000000002" y="360" as="sourcePoint" />
            <mxPoint x="760.0000000000002" y="260" as="targetPoint" />
          </mxGeometry>
        </mxCell>
        <mxCell id="68" value="" style="edgeStyle=elbowEdgeStyle;elbow=horizontal;strokeColor=#990000;strokeWidth=2" parent="1" source="8" target="5" edge="1">
          <mxGeometry width="100" height="100" relative="1" as="geometry">
            <mxPoint x="570" y="380" as="sourcePoint" />
            <mxPoint x="510" y="250" as="targetPoint" />
            <Array as="points">
              <mxPoint x="570" y="360" />
            </Array>
          </mxGeometry>
        </mxCell>
        <mxCell id="69" value="" style="edgeStyle=segmentEdgeStyle;strokeColor=#990000;strokeWidth=2" parent="1" source="5" target="8" edge="1">
          <mxGeometry width="100" height="100" relative="1" as="geometry">
            <mxPoint x="340" y="360" as="sourcePoint" />
            <mxPoint x="440" y="260" as="targetPoint" />
            <Array as="points">
              <mxPoint x="520" y="286" />
            </Array>
          </mxGeometry>
        </mxCell>
        <mxCell id="70" value="Existing&#xa;Models" style="text;spacingTop=-5;align=center" parent="1" vertex="1">
          <mxGeometry x="530.0000000000002" y="340.9999999999999" width="30" height="20" as="geometry" />
        </mxCell>
        <mxCell id="71" value="Equipment&#xa;specification" style="text;spacingTop=-5;align=center" parent="1" vertex="1">
          <mxGeometry x="615" y="341" width="30" height="20" as="geometry" />
        </mxCell>
        <mxCell id="72" value="" style="edgeStyle=elbowEdgeStyle;elbow=vertical;strokeColor=#990000;strokeWidth=2" parent="1" source="5" target="7" edge="1">
          <mxGeometry width="100" height="100" relative="1" as="geometry">
            <mxPoint x="500" y="500" as="sourcePoint" />
            <mxPoint x="600" y="400" as="targetPoint" />
            <Array as="points">
              <mxPoint x="650" y="410" />
            </Array>
          </mxGeometry>
        </mxCell>
        <mxCell id="73" value="" style="edgeStyle=elbowEdgeStyle;elbow=vertical;strokeColor=#990000;strokeWidth=2" parent="1" source="7" target="5" edge="1">
          <mxGeometry width="100" height="100" relative="1" as="geometry">
            <mxPoint x="460" y="500" as="sourcePoint" />
            <mxPoint x="560" y="400" as="targetPoint" />
            <Array as="points">
              <mxPoint x="650" y="430" />
            </Array>
          </mxGeometry>
        </mxCell>
        <mxCell id="74" value="Resources" style="text;spacingTop=-5;align=center" parent="1" vertex="1">
          <mxGeometry x="621" y="390.99999999999994" width="30" height="20" as="geometry" />
        </mxCell>
        <mxCell id="75" value="System &#xa;Advantages &#xa;and Limitations" style="text;spacingTop=-5;align=center" parent="1" vertex="1">
          <mxGeometry x="630" y="431.0000000000001" width="30" height="20" as="geometry" />
        </mxCell>
        <mxCell id="76" value="" style="edgeStyle=elbowEdgeStyle;elbow=horizontal;strokeColor=#990000;strokeWidth=2" parent="1" source="9" target="5" edge="1">
          <mxGeometry width="100" height="100" relative="1" as="geometry">
            <mxPoint x="420" y="580" as="sourcePoint" />
            <mxPoint x="520" y="480" as="targetPoint" />
            <Array as="points">
              <mxPoint x="570" y="470" />
            </Array>
          </mxGeometry>
        </mxCell>
        <mxCell id="77" value="" style="edgeStyle=elbowEdgeStyle;elbow=horizontal;strokeColor=#990000;strokeWidth=2" parent="1" source="5" target="9" edge="1">
          <mxGeometry width="100" height="100" relative="1" as="geometry">
            <mxPoint x="400" y="590" as="sourcePoint" />
            <mxPoint x="500" y="490" as="targetPoint" />
            <Array as="points">
              <mxPoint x="560" y="480" />
            </Array>
          </mxGeometry>
        </mxCell>
        <mxCell id="78" value="" style="edgeStyle=elbowEdgeStyle;elbow=horizontal;strokeColor=#990000;strokeWidth=2" parent="1" source="15" target="9" edge="1">
          <mxGeometry width="100" height="100" relative="1" as="geometry">
            <mxPoint x="430" y="700" as="sourcePoint" />
            <mxPoint x="530" y="600" as="targetPoint" />
          </mxGeometry>
        </mxCell>
        <mxCell id="79" value="Hardware and&#xa;Software specs" style="text;spacingTop=-5;align=center" parent="1" vertex="1">
          <mxGeometry x="625" y="610" width="30" height="20" as="geometry" />
        </mxCell>
        <mxCell id="81" value="" style="edgeStyle=elbowEdgeStyle;elbow=horizontal;exitX=0;exitY=0.75;strokeColor=#990000;strokeWidth=2" parent="1" source="9" target="13" edge="1">
          <mxGeometry width="100" height="100" relative="1" as="geometry">
            <mxPoint x="420" y="730" as="sourcePoint" />
            <mxPoint x="520" y="630" as="targetPoint" />
            <Array as="points">
              <mxPoint x="470" y="630" />
            </Array>
          </mxGeometry>
        </mxCell>
        <mxCell id="82" value="Progress&#xa;Reports" style="text;spacingTop=-5;align=center" parent="1" vertex="1">
          <mxGeometry x="481.0000000000004" y="610.0000000000001" width="30" height="20" as="geometry" />
        </mxCell>
        <mxCell id="83" value="" style="edgeStyle=elbowEdgeStyle;elbow=horizontal;strokeColor=#990000;strokeWidth=2" parent="1" source="11" target="13" edge="1">
          <mxGeometry width="100" height="100" relative="1" as="geometry">
            <mxPoint x="200" y="660.0000000000002" as="sourcePoint" />
            <mxPoint x="230.0000000000001" y="650" as="targetPoint" />
          </mxGeometry>
        </mxCell>
        <mxCell id="84" value="Progress&#xa;Reports" style="text;spacingTop=-5;align=center" parent="1" vertex="1">
          <mxGeometry x="410.00000000000017" y="610.0000000000002" width="30" height="20" as="geometry" />
        </mxCell>
        <mxCell id="85" value="" style="edgeStyle=elbowEdgeStyle;elbow=horizontal;strokeColor=#990000;strokeWidth=2" parent="1" source="10" target="13" edge="1">
          <mxGeometry width="100" height="100" relative="1" as="geometry">
            <mxPoint x="130.0000000000001" y="740" as="sourcePoint" />
            <mxPoint x="230.0000000000001" y="640" as="targetPoint" />
            <Array as="points">
              <mxPoint x="244" y="630" />
            </Array>
          </mxGeometry>
        </mxCell>
        <mxCell id="86" value="Progress&#xa;Reports" style="text;spacingTop=-5;align=center" parent="1" vertex="1">
          <mxGeometry x="255.99999999999994" y="650.0000000000001" width="30" height="20" as="geometry" />
        </mxCell>
        <mxCell id="87" value="" style="edgeStyle=elbowEdgeStyle;elbow=vertical;strokeColor=#990000;strokeWidth=2" parent="1" source="10" target="14" edge="1">
          <mxGeometry width="100" height="100" relative="1" as="geometry">
            <mxPoint x="70" y="740" as="sourcePoint" />
            <mxPoint x="170" y="640" as="targetPoint" />
          </mxGeometry>
        </mxCell>
        <mxCell id="88" value="" style="edgeStyle=elbowEdgeStyle;elbow=horizontal;strokeColor=#990000;strokeWidth=2" parent="1" source="5" target="11" edge="1">
          <mxGeometry width="100" height="100" relative="1" as="geometry">
            <mxPoint x="50" y="500" as="sourcePoint" />
            <mxPoint x="150" y="400" as="targetPoint" />
            <Array as="points">
              <mxPoint x="390" y="470" />
            </Array>
          </mxGeometry>
        </mxCell>
        <mxCell id="89" value="" style="edgeStyle=elbowEdgeStyle;elbow=horizontal;strokeColor=#990000;strokeWidth=2" parent="1" source="11" target="5" edge="1">
          <mxGeometry width="100" height="100" relative="1" as="geometry">
            <mxPoint x="59.999999999999886" y="510" as="sourcePoint" />
            <mxPoint x="159.9999999999999" y="410" as="targetPoint" />
            <Array as="points">
              <mxPoint x="410" y="470" />
            </Array>
          </mxGeometry>
        </mxCell>
        <mxCell id="90" value="Version&#xa;specs" style="text;spacingTop=-5;align=center" parent="1" vertex="1">
          <mxGeometry x="261" y="461" width="30" height="20" as="geometry" />
        </mxCell>
        <mxCell id="91" value="Certificates,&#xa;system&#xa;libraries" style="text;spacingTop=-5;align=center" parent="1" vertex="1">
          <mxGeometry x="180" y="461.0000000000002" width="30" height="20" as="geometry" />
        </mxCell>
        <mxCell id="92" value="" style="edgeStyle=elbowEdgeStyle;elbow=horizontal;strokeColor=#990000;strokeWidth=2" parent="1" source="5" target="10" edge="1">
          <mxGeometry width="100" height="100" relative="1" as="geometry">
            <mxPoint x="30.000000000000114" y="500" as="sourcePoint" />
            <mxPoint x="130.0000000000001" y="400" as="targetPoint" />
            <Array as="points">
              <mxPoint x="250" y="470" />
            </Array>
          </mxGeometry>
        </mxCell>
        <mxCell id="93" value="" style="edgeStyle=elbowEdgeStyle;elbow=horizontal;strokeColor=#990000;strokeWidth=2" parent="1" source="10" target="5" edge="1">
          <mxGeometry width="100" height="100" relative="1" as="geometry">
            <mxPoint x="40" y="510" as="sourcePoint" />
            <mxPoint x="140" y="410" as="targetPoint" />
            <Array as="points">
              <mxPoint x="230" y="470" />
            </Array>
          </mxGeometry>
        </mxCell>
        <mxCell id="94" value="System&#xa;specs" style="text;spacingTop=-5;align=center" parent="1" vertex="1">
          <mxGeometry x="139.99999999999994" y="565.0000000000001" width="30" height="20" as="geometry" />
        </mxCell>
        <mxCell id="95" value="Design&#xa;specs" style="text;spacingTop=-5;align=center" parent="1" vertex="1">
          <mxGeometry x="423.49999999999994" y="461.0000000000002" width="30" height="20" as="geometry" />
        </mxCell>
        <mxCell id="96" value="System&#xa;version" style="text;spacingTop=-5;align=center" parent="1" vertex="1">
          <mxGeometry x="350.9999999999998" y="461" width="30" height="20" as="geometry" />
        </mxCell>
      </root>
    </mxGraphModel>
  </diagram>
  <diagram id="jqSYRaYQtYEotVvn_s92" name="第 2 页">
    <mxGraphModel dx="983" dy="523" grid="1" gridSize="10" guides="1" tooltips="1" connect="1" arrows="1" fold="1" page="1" pageScale="1" pageWidth="827" pageHeight="1169" math="0" shadow="0">
      <root>
        <mxCell id="0" />
        <mxCell id="1" parent="0" />
        <mxCell id="hlMHwYnliC6IdVHFT-kM-3" value="" style="edgeStyle=orthogonalEdgeStyle;rounded=0;orthogonalLoop=1;jettySize=auto;html=1;" edge="1" parent="1" source="hlMHwYnliC6IdVHFT-kM-1" target="hlMHwYnliC6IdVHFT-kM-2">
          <mxGeometry relative="1" as="geometry" />
        </mxCell>
        <mxCell id="hlMHwYnliC6IdVHFT-kM-18" value="正常" style="edgeLabel;html=1;align=center;verticalAlign=middle;resizable=0;points=[];fontColor=#80FF00;" vertex="1" connectable="0" parent="hlMHwYnliC6IdVHFT-kM-3">
          <mxGeometry x="0.0569" y="1" relative="1" as="geometry">
            <mxPoint x="-6" y="1" as="offset" />
          </mxGeometry>
        </mxCell>
        <mxCell id="hlMHwYnliC6IdVHFT-kM-1" value="DCP采集平台" style="rounded=0;whiteSpace=wrap;html=1;" vertex="1" parent="1">
          <mxGeometry x="150" y="290" width="90" height="50" as="geometry" />
        </mxCell>
        <mxCell id="hlMHwYnliC6IdVHFT-kM-5" value="" style="edgeStyle=orthogonalEdgeStyle;rounded=0;orthogonalLoop=1;jettySize=auto;html=1;" edge="1" parent="1" source="hlMHwYnliC6IdVHFT-kM-2" target="hlMHwYnliC6IdVHFT-kM-4">
          <mxGeometry relative="1" as="geometry" />
        </mxCell>
        <mxCell id="hlMHwYnliC6IdVHFT-kM-20" value="正常" style="edgeLabel;html=1;align=center;verticalAlign=middle;resizable=0;points=[];fontColor=#80FF00;" vertex="1" connectable="0" parent="hlMHwYnliC6IdVHFT-kM-5">
          <mxGeometry x="-0.1155" y="-1" relative="1" as="geometry">
            <mxPoint as="offset" />
          </mxGeometry>
        </mxCell>
        <mxCell id="hlMHwYnliC6IdVHFT-kM-12" value="" style="edgeStyle=orthogonalEdgeStyle;rounded=0;orthogonalLoop=1;jettySize=auto;html=1;entryX=0;entryY=0.5;entryDx=0;entryDy=0;" edge="1" parent="1" source="hlMHwYnliC6IdVHFT-kM-2" target="hlMHwYnliC6IdVHFT-kM-28">
          <mxGeometry relative="1" as="geometry">
            <Array as="points">
              <mxPoint x="330" y="375" />
              <mxPoint x="410" y="375" />
              <mxPoint x="410" y="430" />
            </Array>
          </mxGeometry>
        </mxCell>
        <mxCell id="hlMHwYnliC6IdVHFT-kM-2" value="数据解析" style="whiteSpace=wrap;html=1;rounded=0;" vertex="1" parent="1">
          <mxGeometry x="290" y="290" width="90" height="50" as="geometry" />
        </mxCell>
        <mxCell id="hlMHwYnliC6IdVHFT-kM-7" value="" style="edgeStyle=orthogonalEdgeStyle;rounded=0;orthogonalLoop=1;jettySize=auto;html=1;" edge="1" parent="1" source="hlMHwYnliC6IdVHFT-kM-4" target="hlMHwYnliC6IdVHFT-kM-6">
          <mxGeometry relative="1" as="geometry" />
        </mxCell>
        <mxCell id="hlMHwYnliC6IdVHFT-kM-22" value="正常" style="edgeLabel;html=1;align=center;verticalAlign=middle;resizable=0;points=[];fontColor=#80FF00;" vertex="1" connectable="0" parent="hlMHwYnliC6IdVHFT-kM-7">
          <mxGeometry x="-0.3914" y="2" relative="1" as="geometry">
            <mxPoint x="8" y="2" as="offset" />
          </mxGeometry>
        </mxCell>
        <mxCell id="hlMHwYnliC6IdVHFT-kM-4" value="模型卡控" style="whiteSpace=wrap;html=1;rounded=0;" vertex="1" parent="1">
          <mxGeometry x="430" y="290" width="90" height="50" as="geometry" />
        </mxCell>
        <mxCell id="hlMHwYnliC6IdVHFT-kM-6" value="告警触发&lt;br&gt;（email/hold...）" style="whiteSpace=wrap;html=1;rounded=0;" vertex="1" parent="1">
          <mxGeometry x="570" y="290" width="90" height="50" as="geometry" />
        </mxCell>
        <mxCell id="hlMHwYnliC6IdVHFT-kM-8" value="Clickhouse" style="html=1;verticalLabelPosition=bottom;align=center;labelBackgroundColor=#ffffff;verticalAlign=top;strokeWidth=2;strokeColor=#0080F0;shadow=0;dashed=0;shape=mxgraph.ios7.icons.data;" vertex="1" parent="1">
          <mxGeometry x="390" y="565" width="40" height="40" as="geometry" />
        </mxCell>
        <mxCell id="hlMHwYnliC6IdVHFT-kM-16" style="edgeStyle=orthogonalEdgeStyle;rounded=0;orthogonalLoop=1;jettySize=auto;html=1;fillColor=#a20025;strokeColor=#6F0000;" edge="1" parent="1" source="hlMHwYnliC6IdVHFT-kM-11" target="hlMHwYnliC6IdVHFT-kM-8">
          <mxGeometry relative="1" as="geometry" />
        </mxCell>
        <mxCell id="hlMHwYnliC6IdVHFT-kM-19" value="异常" style="edgeLabel;html=1;align=center;verticalAlign=middle;resizable=0;points=[];fontColor=#FF0000;" vertex="1" connectable="0" parent="hlMHwYnliC6IdVHFT-kM-16">
          <mxGeometry x="-0.0028" y="-1" relative="1" as="geometry">
            <mxPoint as="offset" />
          </mxGeometry>
        </mxCell>
        <mxCell id="hlMHwYnliC6IdVHFT-kM-11" value="数据保存" style="whiteSpace=wrap;html=1;rounded=0;" vertex="1" parent="1">
          <mxGeometry x="365" y="470" width="90" height="50" as="geometry" />
        </mxCell>
        <mxCell id="hlMHwYnliC6IdVHFT-kM-30" value="" style="edgeStyle=orthogonalEdgeStyle;rounded=0;orthogonalLoop=1;jettySize=auto;html=1;" edge="1" parent="1" source="hlMHwYnliC6IdVHFT-kM-4" target="hlMHwYnliC6IdVHFT-kM-28">
          <mxGeometry relative="1" as="geometry">
            <mxPoint x="475" y="340" as="sourcePoint" />
            <mxPoint x="405" y="440" as="targetPoint" />
            <Array as="points">
              <mxPoint x="475" y="375" />
              <mxPoint x="410" y="375" />
            </Array>
          </mxGeometry>
        </mxCell>
        <mxCell id="hlMHwYnliC6IdVHFT-kM-32" style="edgeStyle=orthogonalEdgeStyle;rounded=0;orthogonalLoop=1;jettySize=auto;html=1;entryX=0.5;entryY=0;entryDx=0;entryDy=0;" edge="1" parent="1" source="hlMHwYnliC6IdVHFT-kM-28" target="hlMHwYnliC6IdVHFT-kM-11">
          <mxGeometry relative="1" as="geometry" />
        </mxCell>
        <mxCell id="hlMHwYnliC6IdVHFT-kM-28" value="" style="shape=image;verticalLabelPosition=bottom;verticalAlign=top;imageAspect=0;aspect=fixed;image=data:image/png,iVBORw0KGgoAAAANSUhEUgAAA4QAAAOECAIAAAB2LGhsAAAgAElEQVR4nOzdV1cbW5f+7VLOWUTbOO7t7oP+/t+jR489nr8DmCyUc5bqPZgvcyxWlQS2scuwf9eBBxalSoB0a64Ucl3XAQAAAIIQDvoEAAAA8O9FGAUAAEBgCKMAAAAIDGEUAAAAgSGMAgAAIDCEUQAAAASGMAoAAIDAEEYBAAAQGMIoAAAAAkMYBQAAQGAIowAAAAgMYRQAAACBIYwCAAAgMIRRAAAABIYwCgAAgMAQRgEAABAYwigAAAACQxgFAABAYAijAAAACAxhFAAAAIEhjAIAACAwhFEAAAAEhjAKAACAwBBGAQAAEBjCKAAAAAJDGAUAAEBgCKMAAAAIDGEUAAAAgSGMAgAAIDCEUQAAAASGMAoAAIDAEEYBAAAQGMIoAAAAAkMYBQAAQGAIowAAAAgMYRQAAACBIYwCAAAgMIRRAAAABIYwCgAAgMAQRgEAABAYwigAAAACQxgFAABAYAijAAAACAxhFAAAAIEhjAIAACAwhFEAAAAEhjAKAACAwBBGAQAAEBjCKAAAAAJDGAUAAEBgCKMAAAAIDGEUAAAAgSGMAgAAIDCEUQAAAASGMAoAAIDAEEYBAAAQGMIoAAAAAkMYBQAAQGAIowAAAAgMYRQAAACBIYwCAAAgMIRRAAAABIYwCgAAgMAQRgEAABAYwigAAAACQxgFAABAYAijAAAACAxhFAAAAIEhjAIAACAwhFEAAAAEhjAKAACAwBBGAQAAEBjCKAAAAAJDGAUAAEBgCKMAAAAIDGEUAAAAgSGMAgAAIDCEUQAAAASGMAoAAIDAEEYBAAAQGMIoAAAAAkMYBQAAQGAIowAAAAgMYRQAAACBIYwCAAAgMIRRAAAABIYwCgAAgMAQRgEAABAYwigAAAACQxgFAABAYAijAAAACAxhFAAAAIEhjAIAACAwhFEAAAAEhjAKAACAwBBGAQAAEBjCKAAAAAJDGAUAAEBgCKMAAAAIDGEUAAAAgSGMAgAAIDCEUQAAAASGMAoAAIDAEEYBAAAQGMIoAAAAAkMYBQAAQGAIowAAAAgMYRQAAACBIYwCAAAgMIRRAAAABIYwCgAAgMAQRgEAABAYwigAAAACQxgFAABAYAijAAAACAxhFAAAAIEhjAIAACAwhFEAAAAEhjAKAACAwBBGAQAAEBjCKAAAAAJDGAUAAEBgCKMAAAAIDGEUAAAAgSGMAgAAIDCEUQAAAASGMAoAAIDAEEYBAAAQGMIoAAAAAkMYBQAAQGAIowAAAAgMYRQAAACBIYwCAAAgMIRRAAAABIYwCgAAgMAQRgEAABAYwigAAAACQxgFAABAYAijAAAACAxhFAAAAIEhjAIAACAwhFEAAAAEhjAKAACAwBBGAQAAEBjCKAAAAAJDGAUAAEBgCKMAAAAIDGEUAAAAgSGMAgAAIDCEUQAAAASGMAoAAIDAEEYBAAAQGMIoAAAAAkMYBQAAQGAIowAAAAgMYRQAAACBIYwCAAAgMIRRAAAABIYwCgAAgMAQRgEAABAYwigAAAACQxgFAABAYAijAAAACAxhFAAAAIEhjAIAACAwhFEAAAAEhjAKAACAwBBGAQAAEBjCKAAAAAJDGAUAAEBgCKMAAAAIDGEUAAAAgSGMAgAAIDCEUQAAAASGMAoAAIDAEEYBAAAQGMIoAAAAAkMYBQAAQGAIowAAAAgMYRQAAACBIYwCAAAgMIRRAAAABIYwCgAAgMAQRgEAABAYwigAAAACQxgFAABAYAijAAAACAxhFAAAAIEhjAIAACAwhFEAAAAEhjAKAACAwBBGAQAAEBjCKAAAAAJDGAUAAEBgCKMAAAAIDGEUAAAAgSGMAgAAIDCEUQAAAASGMAoAAIDAEEYBAAAQGMIoAAAAAkMYBQAAQGAIowAAAAgMYRQAAACBIYwCAAAgMIRRAAAABIYwCgAAgMAQRgEAABAYwigAAAACQxgFAABAYAijAAAACAxhFAAAAIEhjAIAACAwhFEAAAAEhjAKAACAwBBGAQAAEBjCKAAAAAJDGAUAAEBgCKMAAAAIDGEUAAAAgSGMAgAAIDCEUQAAAASGMAoAAIDAEEYBAAAQGMIoAAAAAkMYBQAAQGAIowAAAAgMYRQAAACBIYwCAAAgMIRRAAAABIYwCgAAgMAQRgEAABAYwigAAAACQxgFAABAYAijAAAACAxhFAAAAIEhjAIAACAwhFEAAAAEhjAKAACAwBBGAQAAEBjCKAAAAAJDGAUAAEBgCKMAAAAIDGEUAAAAgSGMAgAAIDCEUQAAAASGMAoAAIDAEEYBAAAQGMIoAAAAAkMYBQAAQGAIowAAAAgMYRQAAACBIYwCAAAgMIRRAAAABIYwCgAAgMAQRgEAABAYwigAAAACQxgFAABAYAijAAAACEw06BP4Ka7ruq6r/w2FQqFQyPyuPu590Mvc7N7jbt+VdSzvmXi/0C293zIv07xG8zTkwYdfAgAAwJ/gOYRRDWrhcNi5DWRmUjQTnuOJkt8b49y79HErIzp3Q6QVGTVTeo8rZ2slUeHNqev1Wh53XVcuHwAA4Al58vFFUppkMqtU6c2L5rccTyq9t9K5hZUyrdTom1l9t/etueoFyr/W1W26fAAAgD/f066Mik1xc1ME3PKsh5DsaD3959vHrbZ47+NaAbW+ZdZcAQAAnpYnH0ZDoVA4HNambbMSaWY7q6Xe2dBr0wx2uhNvC7vzK8OfdUSrIBoKhdbrtVyRt/keAADgaXnaYdQMlN7RS2aL9qYBQ75J1IyhVvXR8riXY7a5Oxsa9307GAAAADxRzyGMekuVVtO277OcuwnPW0z1tsX/6hqkeSHr9VqPuKVfqXt3tBMAAMDT8rTDqLO1M+iWwqFverPyaygUikQi5re8eddr+3Edv2qukuHwkUjEtyKrx/UdrkQkBQAAT9GTD6PKzKBmJ8uHPNF8im+XUOu/6/V6tVotl8vFrfl8vlwul8vlarWyunhah5PUGIlEotFoNBqNxWKxWCwej8vXkUgkHA5vSpZm3t1yCAAAgKfiyYdRq83a/K815GjTc61Zk7RCaW5m7WG1Wk0mk/F4PBqNRqPReDwej8fT6XQ+n0sqNYua1kFDoZDkzkQikUwmU6lUOp3OZDKZTCadTqdSqXg8vuXo3qLpr+48AAAA8Os8+TDqePLZdyXRTU/ZlPDW6/V8Ph+NRv1+v9PpdLvdXq/X7/eHw6Hk0el0ulgsrOKoWaaNRCKSRFOpVCqVymQy+Xy+WCyWy+VKpSLf9R1WpXsL3U4g8Ju7tAIAADy6px1GvW3x5iP3jnzXjXXpJu+WZov8dDqVUuhgMOje6vf7vV5vMBiMRiMJo/P5fFMYlRwZj8c1jOZyuXw+XyqVyuVytVqtVCr5fD6dTicSiWg0Gg6Hw+FwNBrV5vtIJCKdSrXnqNXVFQAA4Al52mHUKjpaw+Q3rQ4q7i2jrtdrCaDj8Xg4HEoptNPpSPTs9/sSQCWbjkajyWQym83m87m3MmoeKBwOSydRyaPpdDqXy2Wz2Xw+XygUisVi3pC5Jc332n9Ay7ckUQAA8KQ97TDqGDlSkpnVnG1uaY5wMr/wHY8vY5LG43Gv12u1Wo1Go1arXV9f39zcdDqdwWAwmUyke+h8PtfW+cViIWOYtmTEcDiso5ckkiaTyUQiEYvFksmkZNNisbi7u7u3t7e3tyfl0kKhIOVSs0ep9nk1bwUAAMAT8uTDqLNhLSXnbknSt4elbmaOWFqtVrPZTNvim81mrVa7vLw8Ozs7Ozu7vLzsdDrj8XixWOgTpR1/vV5bTeebTlWeqG3u0WjUuc2U0Wg0nU6XSqUXL14cHR0dHR0dHh4OBoNqtVooFKSGmkwm9ek6Hemj3EkAAIDf7DmEUbGlLug7tkkXEbWS6Hg87na7rVar2Ww2Go16vX59fX19fX1xcXF+fn5zc9Pv982dm9OC/sA5i9VqZT4ueVd6CEj3gN3dXSmRVqvVUqmUTqcjkYievERSKqMAAODJeQ5h9IEzbvqObTK/O5vNhsNhp9OR6CmN8vV6vdVqtdvtdrvd6/Xm87l3tz+WRJ3NFc35fN7tdiORyGw2a7fb19fX1Wp1b2/v4ODg5cuXs9msUqlks1ltsjenxDev8QdOCQAA4Hd62mHUrHeKB+ZRK4muVqvpdNrv9xuNxsXFxcnJycnJycXFRb1e73a7w+FwOp3KxKKLxWLTPn/yKkyLxWI0GrmuOxqN6vV6Op0uFos7OzuvXr3q9XrSP3VnZyeXyyUSCavXrOzNmioVAADgz/S0w6hjNMHryHrfAUnyhdW71HVdWTZJkmi9Xr+8vPz69eunT5++fPlydXXVbrfH47G0oa/Xaxmc5LufkGch+03Dpzadm2m9Xs9ms9VqNRwOHccJh8PSkbTVao1GIxk4JUs9FQoFbx51GF8PAACeiCcfRtW98cvsHiq5bbFYTCaT0WjU6/Uajcbl5eXp6amE0W/fvtXr9el0qk+XvqGyExkRL6OIJP/J6CXzNLzDp6zWfO/ZWo+YA/Nlmv3pdKrJeD6fz2az2WyWz+dl4icdF+W7cwAAgD/Qkw+jZndJ7yglZ3PT/HK5HI1GMl7+5uZGx8ufnZ1dXFy0220ziTrGEHjNo2Y90vzCepbvg96Zp8xHvN0PHMeZzWadTicej0cikfl8PhgMer3eixcvdnd3y+WyzP0UjUatqVKdDcGUtAoAAP4ETzuMepvCzUk3rWxndRKdTCY6Vun09PTbt2+np6e1Wq3RaEi/TOtY6/VaQ6R1IN+mdm9NdEsvAt+yrndc1HQ6bTabq9VqMBg0m816vV6v14+Ojl6+fHl4eFitVnO5nHnVGka9wXfTyQAAAPxOTzuMCo1WmvlCt4vLm+N4NHit12tJorVa7du3b8fHx1+/fpURS+12ezgcLpdL2dJcAt4bDbUyaraMe0/Gd6y972bWeXq3XywW3W5XJp9qNpvNZlPG+E+n03A4LCvdRyIR8ymu6/oOZiKGAgCAP8FzCKOOpzypX0sUM9cFdRxnNpvJwPnz8/Pj4+MvX74cHx9fXFw0Go3RaKQ7kUXhdT/aN9TcubNhlihnQz9RPVvzv9Y2GqOtPcu8+o7jzOdzWR1qMpnIyPpQKJRKpfL5fDabzeVy5oF0D2bYpSwKAAD+EM8kjJq9Ns1B5UIKnM7tZKI6hZMm0cvLy3a7PZvNzH1qHHTuNnl7w6VvM73Ss3Ie0DHUMTqnWt1SdXZ92Uy6kOq6TdlstlAoZDKZaDSaSqV0V9qvYPtJAgAABOI5hFEzZvmOW3Ju85yZRE9OTr5+/Xp8fHx2dtZsNsfjsbm9mT51h2ZZ1PFLltYR9bhamvW2zlunatUyzQ3c2wlEQ6GQnMlsNmu1Wo7jxOPxfD4vY5hCoVC1Wk2n0zLk/7FuMgAAwK/wtMOoN6tpOvQ2hc9ms8FgIK3zJycnx8fH3759k5ntdbiS1COtFnkrGjqepnnrNKxvmTVRc1dWtdKbRK1153XP5qWtVqtOpyNt9Pl8PpFIOI6zXq+r1arVf9S3pgsAABCspx1GHU/50Lkb+zS3rdfr6XTa6XSurq6+ffsmI5akdd4cOB+LxcLhsMxvr2HUN8NtaXD3bXm3tt/UlzR0t+/ppkZ813V1OXsZ1XR1dSVt9LJNJBKJRqPpdNr7dJ+bCAAAEJAnH0bFvX0iZWLORqNxenr6+fPnz58/n56eNptNM4lGo1EZ7eQ+ePki2UyLqZvCq1VVde7mTu8Xmy4nZExx6hrTS00mk0ajEY1G5YnRaDSZTKZSqUQisaml3rdvAwAAwG/2TMKoc3ddUHNtJNd1JYm2Wi0ZtPTp06evX7/WarV+vy95Tvp0SrlR1lLaHm29Le96Ag95ujU+yXy6xftcme7UdV0zks7n81arJaPsXddNJBK5XC6TyUhfUs3KeraaYr0XBQAA8Ds9+TCqPSwdx5EUKLVAzZdaE5VBS8fHxzKlqCz77tztJypt3/f2rdTDhTxj3s0v7j1t52411PEbJmUdV05SK7Lmg91ud7FYRCKRbDZbKpWy2aysEZpOp3XxUh38tOl8AAAAfqenHUat/CcxS0aRa0iVVYvOzs6+fPny9evX09PTer2uSdS5DaMPqWiq7b0CvD1WnbuTj65WK0m95pbmBtsPbZ62czf7jkajer1+cXFRqVSy2WwsFpMYms1mvSfjeHqpAgAA/GZPO4w6t3FKipSOZ0z9er3u9/sXFxf/+c9//vnnn8+fP9dqNZ3FSUhy9R1v/sCBR0o6dEYMUnOVEVHCmjZ/U9/QLQOkzEc0Seu3JpNJvV4/OTmRsmg0Gk0kElIc1Z27xixRDpEUAAAE58mHUaFR0r079mi9Xvd6vdPT03/++ed///d/T09PO53OfD53jLFHzn0DhjSrafHVTJPm9pFIJB6PJ29JYdJ13eVyOZvNptPpdDqdzWbL5XK1WnmDr3ktIWMtU6sXqT5RMqjVAXQ6nd7c3DiOI6352Wy2Wq3u7OyYI5mojAIAgD/E8wmj+rW5FLvruoPB4Orq6suXL58+fep2u7p9LBZzbruZOg/Io44xeMi521dVxWKxXC5XLBYLhUI2m5XB7Ov1erFYTKfT0Wg0GAyGw+FoNJpMJpKJN12OrmKq56bTjlqRVL+QKuxiseh0OtPpdLlcJpPJg4OD9+/fW4HVNWY/vf/mAgAA/DLPJIw6t5NrmgVFx3EGg0Gn02k0Gjc3N5pEndt157XcuKm3aMigW+rKTBJSdb7PZDKZz+f39vb29/er1WqhUEgmk9KGvlgsZrPZcDjsdrvtdrvVanU6neFwOJvN5LhStrTOxCqOml94q6rSJUB7o04mk+vr62q12mw2+/3+bDaT+fCdDV1aAQAAAvG0w6iWCSW3Sb7UjDWbzRqNRqvVGgwGi8XCfGIsFotGo9KQrS3vmzqMallUk2I4HE4kEtIWL19kMplcLlcul6vVaqVSKZVKmUwmkUhIGF2tVrPZbDweDwaDXq/X6XQ6nU6/35cS6Ww2m8/n01syvZRzW+n0HQVlnadcuyRaDcej0ajVatXrdbkJ+XzeujS9gWRTAAAQlCcfRnUEvRlG1+v1eDyWlT+vr6+73e5sNjOf6NsCrrQ7qYZRSaKa82KxWDabLZfLlUpFemRWq9VyuVwqlfL5fCaTSaVS8XhcZtF3HGe1Wmm30clkMhwO+/1+v9/v9XpSK+10Oq1Wq9VqrdfryWTiOI4cbkt3VWfzWvZqNpv1er2bm5urq6tUKlWpVGKxmOu6OmZL9mmNlwIAAPhtnkMYla6cIWOOpMlk0mq1Li8vz8/Pr66uOp2OFUYdI955k6gVziQXLpdL+a8ss1kul1++fHl0dPT69es3b968ePGiWq3mcrlkMqlDhcx+n7rE6Gq1ms/no9FIWu0bjcbV1dXFxcXZ2ZnjOBJYJVPqfKL3JlG5ai2pqvl8LmH04uIilUo5jlMsFiUl627lKJsWagIAAPilnnYYdfymW3Jddzqd9nq9er1+c3PTarWGw6FGSefuCHpvV1Fv07xjtH3L4kaVSuXly5fv3r378OHDhw8f3r9//+rVq3K5bO5nuVyag5/kWJpNl8vlZDLp9/v1el3mBI1Go1I9XSwWg8FAN7OG0m+5CY6nBX+5XA6Hw2azWavVCoWClmz1SrfvFgAA4Fd78mHU8cxPtF6vZ7OZDF3qdDqDwUDKopFIRDOljkz37kp3aE2DHw6Hk8lkoVCoVquSRN+/f//27dtXr15Vq1WpO5qsQf3WsaLRaC6Xi8fjsVhMOrDK8CNJn5FIZDAYyNlaQ5q8p23GUOtbq9VqPB53u13pAyCdWbPZ7KanAwAA/GZPO4xqDDWTn8yjNBwOB4NBv98fDocyz5HmLWmb1gZ6GSfk3E2ijidBJpPJUqm0v7//6tWrt2/ffvjw4d27dy9evNjZ2cnn8zpW3Tw361+veDxeKBTCt+SIkUhEJigdDAay1ry1T9/46Jsml8vleDyWIVO9Xm80Glk7NO8bAADA7/fkw6jEKTNUzedzGSQ0GAwGg8FoNJJ55s3+lOYa9FZh1ewqaj6YSqV2dnbevHmjTfMvX76sVquy6qY+xdybtVtzeiZpsg+FQjIXqRVGZar81Wq1WCy8YTR0d+1Q33KpWC6Xksv7/f5gMBiPx94dMnoJAAAE6EmGUXM2Iq1ritVqpfGr2+2alVFrD1Y1VB/3PWIkEslms7u7u2/evPnrr78+fPhwdHS0s7OTyWSscU5WP1HvmZtDpiRDR6PRQqHgGC3yq9VK8rTV29U3Mmow9X53vV7P5/PxeCzRfDQaya3Q9EwSBQAAwXqSYdS5m73MLCVl0X6/3263G41Go9Hodrvj8dgKo87dRKsD0n2HCiWTSa2J/vXXX+/evXv58mW5XE6lUnpo6e6p7f6SMr2R1Ny/zq8kX+dyOd1SIrVkx1arZZVUtwy6Muuvzm332dFoJHNI9Xq9wWAwmUy0h6uWlsmjAAAgEE81jCorfkkhsNvt1uv1Wq0mo+ll5k4dlrRlV45RngyFQtFoNJPJyIilv//++7/+67/ev38vNdFsNisxzixzWunW3K3u0xwRZT4ei8WKxaIkVBl4JEOvXNft9XoSpq3BTCFjbVJvjTMUCkkz/WAw6Ha7Mpyr1+sNh8NsNqtj6r25mWAKAAB+m+cQRvVr6WQ5mUwGg4FWRiWJCumdafXstPZjpr1UKlWtVo+Ojt6/f//3339rEjVXM5IKq3b6fHiSM7OvTPMZiUSKxWIoFFosFtLNQGq6rusOh8NN3T2du2FUT0NqqFIZlb1pv4XJZBKLxXyjMwAAwO/09MLo9uk2ZUp5XeVoNBrpd60OpiFjGJDvzl3XTSQSxWLx4ODg6Ojo6Ojo8PCwUqnkcjlzG6s2+b3XoitI6XMLhcLOzs7h4WGz2ez1euPxeDqdLhYLa0VTq/hq1UTNq5OVSKUHqi5Aqj1Hvaf9XZEaAADgZzyrmX100c7lcrlarXRWUeVtznY9zO3j8Xg+n69UKru7u9VqVaZwsmqxsu7Rloi8iR5Rp9ZXEoJ3d3cPDw/39vZKpZJ1XOc2W1vXYl6mbikL308mk8lkMp1OJYl6bw4AAMDv96zC6JZYqXwLgbq91Q4ei8XS6XQ+ny8UCrlcLpVKyUKa1g5/7Gy1ldwsi4p4PJ7L5XZ2dvb29nZ3dwuFQjKZ3H5czbW+Fz6dTiWGzudzCdBmTffHzh8AAODnPb1memdrO/KWGGptYMVWbxh1HCcSicTj8XQ6nU6nZSFNaw1335FDD2d28TQfj0aj2Wy2VCpVq9VyuSxrNXkrozrqSE5b16/37nCxWMzn88ViYSVR3/tDPAUAAL/NU62MWiVM+WJteEgk3d5GHwqFJIwmk8lkMplIJHTQz2MxhxCZj0cikWQymc/ni8WirCnvDaPmhTh3w7Q3H68MW27OD3Q2AAAA+BlPsjLqSzLocrmUDpHeXCWt4Zuip3f7VCqVyWSy2Wwmk8lkMslkUsqi0ttSq5LOz7V0hzwzg0ptUiqyuVwun89ns9lkMhmLxczZUs36rrk336NIDNWutBpJKYICAIBgPdXKqJckUW2PXiwW1qggmdfJbNrWGOcbT7PZbP6WhFFppjdj6KMwE6F7Ox9+PB6XNJzJZNLptBzdeqJ2ErUKot5OqI7jLG9JEvXWR31vAgAAwC/1rCqjGkbn87l3wLhMBWp2rHQ2LwSaTqez2Wwul8vlcplMJpVKSW1SNzanVXrEq9BAGY1GY7FYPB5PJBKJREL6CZhbmiVembje2dqHVeYZUL6hU6utVEwBAMDv8Uwqo5LJpCV6U0u9twDp3YN8LV02U6mUDF2SqqSOo7dm9HzcC7FmDw2Hw5FIJHZLQ6dzt5BpVUa39C41+9T6VkYf93IAAAC2eyZh1LltszY7RN4brTZFt2g0qiXJeDwei8Wi0agZBO/dwyPSSCo2beNs6EVqcu/yfvdRTxwAAOB+z6eZXvg2wVvf0tTlmyPNnpdiU9yUsUe/KIlaVcxNZ6sbf9eenc2ZlUgKAAB+p+cWRkOedYmULElvJVFvn1FNgebAc2u4j/lcyaOPHkm957C91mt299y0Weh2Jilnc7SltygAAPidnk8zfSgUihi8YcsauqTP8oaz5XI5n89ns5ksWSRzxVtj862n/wzrfPRBc3VT7Qi7fT+bmuCtE/Ydbk8MBQAAv98zqYxqx8roLZ2DSbl+q2VKdPPG1slkMh6Px+PxZDKZzWaSR/Upj37y5vk4tx0AtBeshOP5fG4GYs3QDx94tL3vwW/o/woAAGB5PpXRcDgsA4+Ed8iROfBcHzE7mJo5bDqdDofDwWAwHA7H4/F0OpXpou4tPf4kc8y7VEN1sqr5fG5t/F3BUZOoVI63FEfJowAA4Ld5JpVR57aZXubm9B3/boVIK5t6B8tLGNU8KvXR7R0uf4x7d9ZSKd9KDJ3NZtPpdDqdSocB63odzwJOW8g5S/HYN4xSFgUAAL/fs6qMaodRXfnT3MB3MqMtZc7pdDoej4fDoYZRaamX/T9wJ/eynih50XGc1WolJ2B2FfixQ6jwXXQbBQAAgXuqlVGrn6WWCR8yH9ND9imWy+VsNhuPx6PRaDwez+fzRCJhTvYpA5u8wc53bikvTbFWv1VJosPhsNfr9fv98XjsTaKbarSbDmoWjM15AKxDP27F13efvgO2tu/B8Uvt24/+8At5yPk81jYAAMDyJMPo9kD5YzlAh++YkWK5XI7H48Fg0Ov1BoNBoVBIp9PmoqDL5XK9Xks81ZBqzhK15WS0pCrDksyMu1wuh8Nhp9NpNpvtdnswGMznc+8kALJ/q0xr7lwfT6VSsqJpPB7XoV3mNo+eR62ppsxZAhwjrFu3yHd4mfdZ5nn+ZCr19iT2br/9nB++HwAA4PV8mukdv/nqf2AP+rXruvP5fDgcttvtZrPZ6XRGo5FZoZIKmuIAACAASURBVHSNeenNBy3bj+i7zXw+7/f7jUajVqvd3Nx0u93pdOo9z9BdeskacHXjbDabzWbT6XQikfAuK/rw+/NdNJ95e+s+5OZYwVpn5tIpEbz5z/fpDzlP82R8n2h9d9M29+4HAABYnmRldBMJZNFoNBaLJRKJZDIZi8W88XH7Hsz/TqfTbrd7c3NTLBZLpVKlUimXy7lcTr4rvVTlix9opre6Fpjfms1m3W63VqtdXl7WarVOpzOZTLZX3cyyrhWDkslkJpPJZrOZTCaVSslUA1If1fz06GW8TWXX7bwFWqs4an7rV4y42nIrHl71fMhPHwAAiKcXRreMH9fZndLpdC6Xy+fzuVyu3W7rBuY6Rma/SavlV81ms3a7LQ3cmUymUChIS306nZYN4vH4arXStnJzXv2HNB/7xilJwPV6/eLi4uLi4vr6ut1um5XRLblTL0r/jUajqVQqm83mcrlcLid5NJFIRKNRq+n8ET1wh3qeW2LlTybOLWfiW8K893Den5o3Lm/6yQIAAK+nF0YtZvKTqZ3S6XQ+ny+Xy9VqtdPpSP9LiYnmpPdmj0Mz4IbDYc0W4/FYVuN0XTcej0vATaVSEnnN/bh3m+w1YJlFUyv0yLfC4bCsUyqPr1ardrtdq9XOz8/Pzs7Ozs5qtVqv19Nz83a+9IY5PVAkEkkkEplMJpfLSZLO5/OZTCaZTEp6Nvf2WOHp3vZ33y3NAPe4Z2J9/NBv6dc/fFzv/h/3/AEA+Dd4DmHU/K+URQuFQrVa3dvb6/V6s9lMY+X2llaNFBLUlsul4ziz2axWq63XazOMhsPhcrmcTCZDxvghK+y6nmXivV9LW7m09buuO5/PO53O5eXl6enpt2/fzs7Orq+vNYk6t4OczBhqluXMsqgIh8MSRguFQrFYLBQKUhxNJBK+N/MnU5RZINyUR73R3Lpjm6rUP3Y+5i3yfssxEuQP9DB27nb8+HWdBwAAeMaeZBi13uzNqBGPx1OpVD6f1y6eg8FgMpnM53NzYXcrMVhfa3FUNRqNVCollUVJcqvVqlwup1IpHQUvDd/u3RnsfaOJxBcz/axWq8lk0ul0rq6ujo+PP3/+/O3bt1qt1u12rQsP3c6KvylpWWFUSsVmM30ymbTO5xGb6a02a99Y9tvimm++lDO0Fob9sfPxll1JogAAfK8nGUaVN41JLVBa6ovFYrFYbLVaqVRqNBrNZjNzMx14bu7N3LlV1xyNRrVaLZvNhkKh+XwuCyNVKpVsNquFRrPt29vw7RrzoZp7XiwWMmb/4uLi+Pj4y5cvnz9/vrq6GgwGW4LmQ4TDYUnnEkYlierUVL7n9sN8w7FZHjYv/+G78o3d3p+UzixrTjF7b+9P3/tpxWjv0a3dbtoPAAB4iOcWRp3blnrtJZnL5VKplMxnpC2qslCT65knSHfr3A0ZruuORqPr62vXdSeTyXA4HI1Gk8lkOp3u7OwUCgXphbkpfVr7N+tn8/l8MBg0Go3z8/PPnz//5z//+fr16/n5+c3NjRVGN9X5zN1at0JGL8mtkN6i8Xjcu0rqtlv8nawfR+h2wL7+VyPjlj2sVqvlcrlcLle3pDOu+eM292ktvmX9661WWvlSfit0M+8N8UZhsw7qbh2ABQAAtnvaYdS5OyJbHolGo8lkMpfLSWVUhxzpBppdzPFG3j2bpVPJoLIgkywQKkt0TqfTxWLhum6pVEqlUt4TczbU5yRvSU202WxeXFx8+fLln3/++eeff759+9ZoNMbjsXkam/ajfL8rbfSFQqFUKhWLxWw2G4/HrXE8P18TtfheuPljkk8F3jy6Xq9Xq9VisZDC82w2m8/n8/lcUqk1BE3PXH6a0WhU5quSf2OxWCwWSyaTiURC5vm3jrWlp4fr19lXw6hV9tZOHeRRAAB+zJMPo44nUYXDYQmjpVKpVCrlcrl4PC71Nt3e7M1p5QyTBiYZzLRYLGSWpfl8LqlIAuVisZjNZsViUWaV9z1J3flqtdIlRkejUa/Xu7m5OT8///Lly6dPn46Pjy8vL83JUKW2p49sKWT6nn86nS6VStVqtVKp5PN5GXRl3rpHjFDe1nNvc7lvA/p6vZ7P55PJZDwey7/j8Vjz6GKx0OKoVR/VMCrpUz5jRKPRRCIhnROkHiylcTM++l61t+y66dLMa3n0NA8AwL/Kcwijjqe1OpFIyID6drtdLpez2azZUdJshfe28jtGKDGno5c86jjOeDzudDrS7r9YLEajUb/fb7fbkva0ChsKhaSlWJKKlP0kvE4mk8FgIKuMtlqter1+fX19fn5er9fH47F5PrIH86x8OyyGDOZ3Y7FYLperVqsHBwf7+/ulUskKo84vm4fIbMj2PdZ6vZYQP5lMJIBK54fRaCRfjMdjM4y6t5NnWXnRrIxqWVT6DWv/hGw2K7OrxgxmsdzZPDuBsyFumpt5C6uPei8BAHjOnnwYtRKD/JtMJovF4mKxGAwG19fX+XzeGrVjZg6zLGolVLM3oZk5ptNpq9Var9cSTBuNxvX1dbVaLRQKMnGSxB1Z60ieKE380+l0MplIfu31et1ut3WXFUbN89ne7q/N3+aDsVisUCjs7++/fPny8PCwXC5rMnZuZy31TbE/I+TpuupbeF4sFpLFW61Wt9vt9/v9fl+SqCR16QixWCyWy6WcsLlmgXXhZofReDwulVFzdtXcLZ1YIJ1OR6NR6zytQ5g3x/xXN7BiqHViP3MbAQD4l3g+YVRihNQjQ6FQOp3e2dkZDAbValVa6s1nmR0QfaOSWX4L3c5DqaFQJoqazWaDwaDdbjcajaurq0qlUigUpAgnizZp67A0Q2vT/GAwkOzV6/U6nU6v1xsOh9IwrYuXagbSU/W9avOEvUFN2uj39vYODg4qlYp5+XoIa/b7n6Ex1PqE4G2Un0wmss7q5eXl1dVVo9Fot9sSRuX+yA3RJKqfNDY1l2vju1ZGZYJVmVQhn89Lx9lKpbKzs7O3tyflczOMup5pYq3964Vsaso3HySJAgDwQE87jIaMeT0lTIRu55B3bqOYLOBp1cAk82mzrxmezFRnpistjkrf09VqJV0bh8OhNNNL+S2bzcp6oboQvITR2WwmZT+p/Gn9bzAYSHu0eXrm/ERmEdcxUo55zuv1WkKbOZdqPp+vVqs7OzvVarVUKpn7tyqjj/GjuNNhQB8x/ysnOZ/Ph8OhlJMvLi7Ozs4uLy/r9Xqn05FbIZF9OBzOZjMZumRerzftWaFQmuzj8Xg8Hk8mk9JtVEqk5XJ5d3e30+mMRiPp6VssFjOZjPxuhEIh+cJbH/Vei28SBQAAP+Bph1Hn7uqdkrHMFvlsNlsul/f29g4PD1utVrPZlMclU2olzKp4eTsCOneX6pEujLLBbDbr9XrT6bTX6yWTyXQ6nUqlJI8mk0kJo6vVSgboSMySyGU2QztGeU+7md7bOq8Nx978lM/nX758+eLFi52dHavLrHrcRGVmeivjShVZLr/X6zWbzXq9fnNzc3V1dXV1dXNz0263e73eaDSS2rAwg7X3bH3bxOXHKoeTcNnv97vdrkz7XyqV2gapFpdKJenpG4/HpXOF3H/zluqvhPeqzQdJqAAA/ICnHUZ9K5qr1UqLo6lUqlKpHB0d/fXXX9PpNB6Pt9ttWSBUByRJ/vM2c1uNsybtnSmRRSLUdDqVmlzilvYZlaLgbDaTbqMyHn+xWJiN76HNo7zNB/V8zBOT3CYnH4/HC4XCwcHBu3fv3r9/f3h4mM/nrXmUfCt8P1MitSrK5lRKsriU9I6VoVqXl5fX19f1er3ZbHY6nX6/r8Pn5Z5Y+fshIc+7jfyIx+PxfD6XTrr9fr/T6dTr9aurq7Ozs729vZ2dnf39/b29vWq1Kq35mUzGHHcvtXMtiuvjj3LTAACA89TDqLCqU2YYjUQixWLx6Oio3++7rptIJE5PT+v1+mg0Mp8eMnpnWlHPm9t8ey5KQU7myJxMJuYc7M5tZl0ZdIpT88y9HRZdY1SW92LlJK39pFKpvb299+/f//d///fHjx9fvnzpG0atjo8/mUStS5ATlvHy2j304uLi9PT05OTk27dvV1dX7XZ7OBxK71v3dqL77dXQHzgxudU6bL/f70vzvcz8tbu7e3h4+Pr166Ojo8PDw/39/VAolM1m5SOELotg5lFn8yqvJkIqAAAP9BzCqHO3TGhmynA4nM/nX7x4MZ/PtYo5GAzMMCpRY0sHQWVGN9+irAQXHYT0vTZlL99kYx7UfDyZTO7s7Lx9+/bvv//+8OHD4eFhLpfbXhn9+eSkfQy0aXs+n8sCAb1er16vX1xcfPv27fj4+OvXrycnJzc3N9PpVJ8uY85+RTO3fszQZCy/G/F4PJvNSoFWBpBNJpPVaiVXkclk5POM9CLV3xD5wtlwxwigAAD8gGcSRoW26i6XS8k3juOkUqmdnR0pvE2nUxnDLu3C3j1sWtncrCOanTud26Aj5b3vPdWH1Ng2XaPjF6Nzudz+/v7R0dG7d+/evn374sWLcrmcSCTMEUvOo8YmrYZq+nccZ7lcTiYTGaVUq9UuLy/Pzs7Oz8+lgX4wGGgfCXMn7t0JU80A7Xtvraswt3HvcoylkoR0mdDRY9J3QqY1nU6n5gIBUt7WG+7c9ut49K4OAAD8Oz2fMGoGO6nP6ayTxWLRcZzlcjkajTqdTrfbnU6nNzc3kkc1r4RvOX5t8Va7tm9j/cNZyckKvpt6CDhGqNL4qyefy+UODw/fvHnz7t27169fHx4eVqvVTCbj3PYiWK/XZm9O36b/770KDZHm49PptN1un5+fn926vLyUgUrdbnc0Gvk2x29Kdd7vWidvdW/Qf70/QeuR5XLZ7XYdx5Ex/r1eT7qWvnz5cm9vr1wup9Nprdp6R7yZx/reDxUAAEA8nzDq3AY1+VqKWNrYWigU5vP5YDCQETOLxSIUCskS8BLUpAYmZTBzmR8rFZnZy73t0GmOufkuVlnRuhbroNZm5kHj8Xg+n9/f35fW+Xfv3r148aJSqUgSdYzJ8626748VSvW4ZplWSU308vLyy5cvnz9/Pjk5ubi4kNZwKUNKNwbzud5o7hrdD7w1TpO3CLrpZ+ENu7JsgUwB2+v1er2eOcVpOByWJUbN7fUemtM4yIOPOGMrAAD/Hs8njJpJ1EoJjuPEYrF8Pr+3tydjt5fLpXxXBzO5rrtcLjUhmcnGyoXy9Xq99h2Drw39VkLabtM2mh2tU7J6BWg/0Y8fP/7999+vX7/e2dnRJOp4ZqG3dv4zQsbErjL3arvdvry8/Pr166dPnz59+nR6elqr1aQa7Z09QM9q+z03b6P3Xt17q7W1Xadtcm+HTDm39dHRaCSTbclEB47jyJKh0s/BudvJwffn626Y/gkAAGzxTMKo1sy0H6d3G5nmaTqdaodFmf5ThsDLIxJSQ3cHsG86nBV9JKxYicc1KnxWLdA3VOnXVndS71KfKh6Pl8vlV69e/fXXX//1X//14cOHly9fFgoFc25R927T/3fF0E3nae1BCs+NRuPy8vLk5OTz58+fPn369u3bzc2NJFHX6BIqRWjrLukMA9a1PyTNm5t5+zzID0UOKo/LgcxMv1qtBoNBrVbTn778HNfrdalUkv6jsVjMdV2zr7B5b/VnSiQFAODhnnwYNXOhlqy0CdUUiUSkV6Us0uM4jkwOOp/P2+221YsxZMz66c0c5qHNc/B2JbQSkpVazG9Z+7TOQeOatU0kEimVSgcHB1IW/fjx4+vXryuVSiqVMndrNiKbldGH3FvHEwe9sU+S3NXV1fHx8ZcvX2TI/Pn5eaPR6Pf7OnBer8g69Pa6psVso/eeku+lucZAeD2cVV2WJnudgUs/k8hnFek/KlM+6fbe6OkbiAEAwBZPO4x6K5Rmu7ZzN/yFw+F4PF6pVGQuelkhfTQayaxPvV5vsVhoIVOjm28R1HrEDG2aezQ+un69DPVfq1nfPISZutzb0dxmHpWxWS9evHjz5s2HDx8+fPjw9u3b/f19s91cr8Xq0fjAtGSdsHl7zT2Mx+Nms3lycvJ///d///zzz8nJydXVVbfbnUwm3omu3NtetuZPR/nu3wx53orppoqyuYHmS8eTfbXS6bquTPCkOVVr5/LcbDZr3bct5VvyKAAAD/G0w6izufpopgQdXC+P5/P5UCgkM/vIvOsSNXq93nw+l7QnFTIzpvgeetPJ+Jb6tNimj/gmG92DDN/WbaQLgW6cSCSKxeLh4eHbt2//+uuv9+/fv3r1and3V5Ooa/SC1YmufoBV5dVUrTucTqedTuf6+vrk5OTTp0//+c9/zs7OOp2ORGEzTJv3ZFM01KP4fgy4t4DqWzTVZLlpe/MRqZTrc+VHYC6sJd8yq+/bTwkAAGzx5MPovbQqptM2OY6TyWR2dnaOjo7G47HruvF4PJVK1ev1fr+vtVL37jB53zC3vWLqfaJvDU/zUMgzNtw8un4dj8czmUypVNrf33/9+vX79+/fv39/cHBgTW4vWdaa7v7hzBMwy5ZmhdV13el0KgssnZ+fn56enp6eXl5eNptN3Y/ZN9S3jrg90oVupy/dHkO9N3PLPh3jE4v5W6FpdbVa9ft9OfNQKBSLxbLZbC6XS6fTGkbNazF/TN5zAAAAWzz/MKrMZBYKhTKZzP7+/nK5TCQS+Xy+VCpdXFzc3Nw0m02ZhMiqRHo7O3pTo/mvVaB1PEnU2RChzL1pPJJHIpFIKpUqFovVavXg4OD169dv37598+bNy5cv9/f3s9msNVH8psXut/MtSfqazWbdbvfq6urbt2/SSVSmcDK30WFAVrx2NkRS6+aY98Sb0XUznSPWrLZ6FwUwn2J+ANBTlS9kpa5msyn3P5FIFAqFfD6fSqVisVgmk9GILNel84iRRAEA+F7/ijCqAUXzaCgUSqfTOzs7sVhMlimvVCrlcvns7CyVSkUiEZ33x9yJVRS0juLNcBpNNkUoK7hY8cibpRKJRLlcPjw8PDo6ksnt37x5c3h4WKlUCoWCDloyq5jfm43MUqhzt5+oczdbL5fL4XBYr9dPT0+/fPki/UR7vZ7ZGi4BUaOhN3Fax/Uy74l3/JZ5FM2C94Zp885bAddM84vFotlshsPhdDpdLBZzuVwikZAN0um0HtH6KEISBQDgu/xbwqgkBu2FKQPq8/m8NHnn8/l8Pi/tsOFwWLqTmuvXCx2QZD54b+jxbmxmRKtkaDYfe3eYTCYrlcrr168/fvwow5UODw/L5XImk9GJnMxR3j9WqLPSlWMELHNXi8ViMBhIGD0+PpZZnAaDgYZRmTRewqh3Xqot90277fqem/cRLU9uipj3XqzGdyv9r9dr6Q6bz+czmYwMfRPJZNK5zcEOSRQAgB/13MKolQmshmAdxO26rkzTk0qlEolEKpVKJpOJREJW3JFx97Vard/vyxSkkqhklp9N832azBOwAopvXtHz1LQajUYlyekAGpm0/927d3///fdff/2lNVFtNXZul/10jLz7A2VR82vXM0GpfncymUhv0YuLC1nws9VqySxOcm/NKVeduw3ivv/dcjK6jTUSy73Le0XWaVtfe8ui2tCvkVqmxL+4uIjH43JR8Xg8mUzG43GdpsB7FAAA8EDPKoz6ls3kCyueSo1Tslo4HE4mk6VSSTJfKpXK5XKVSuX6+rrT6QyHw+l0OpvNRqORlP28M5J6D+RNPI5RKN3U0K+kb2gul8tkMslkUr4ul8syYkk6ie7s7BSLRZmM3Tofqyb6vXnUSsbubd9T84TH43G32200GldXVxcXF7L0fL/fdzxTtHrrvr6nZFaLZXtvs74EdJ27XrZZGaxbasVE67va6G8VkuWTgJ78arXq9Xqu6y6Xy+VyKa32UkSXNa6kvV7nPaBECgDAd3k+YdS3/OZ4apPmIBUNH5FIJJPJSNtrJpMpFot7e3v1er3VanU6nW632263m81mKBSaz+e6XJMwj2gVI83G7k1N9r7FS+nJure3t7OzU6lUpD9rtVrd2dnZ39/f29srFouZTCaRSGgsc+6mwC2x77u4Rp9RzZcygr5er19fX19dXV1fX8vk9uZ1OUbi33Kl5resGf6tLcPhcCKRSKfTqVRKqpJSq57NZtPpVD4wmJ8TvHE8dHeGqS2N+BJ8HceRrsPL5bLdbsuYtlQqVa1Wd3d35ZOA3H+p15qrf/1AWRoAgH+n5xNGrWKk97uhuwOJrG1CoZC0vaZSqWw2Wy6XJYa2Wq1Go3F9fZ1IJGazmUYu67hWHnWMJGqmYTNsadOwN7LE4/FCoXB4ePjmzZsXL17s7+/v7OyUSqVisVgqlcyRNI6R+X5guJLvtVgnb20j45a0Jnp9fd1sNgeDgbkTja3mnP9mPrP2rJdgnYZJqsWlUqlUKmWz2VgsJrF4OBx2u91ut7tcLq2itWt0zPiudBgy+uzqOLbpdHp1dVWtVmu1WqvVGgwGUrp27q5c4FAcBQDgezz5MGrlJ7NOafV3lC/MxlndQBNhOByW0fSSe4bDYafTKZfLuVwumUzGYrFUKtVoNIbDoS4sJIv0SFnOvR1G423XdozKokaxSCQi86hHo1F5RGYOqlQqr169evfu3evXr2Xapkqlks/n0+m0VuM06okfHjjvfYpvBVctFoter1er1c7Ozs7Pz29ubobDoTnzwKZPBd7Ts3K8pvNYLKb9d0OhUCQS0alVy+VyoVAww+hoNOr1epJHh8PheDyez+dW273vafh26tDfCjNcqtVqpR02+v1+oVCIxWLSl9T6PQQAAA/0tMOoxAUrcQqtUel3Q8ay9WZAcY2Fy2UIi+bObDabyWQymUwulysUCuVy+cWLF81mU+bGn0wmk8lEKnOu604mE8cohVppxrcBWoYlSbFTBlFJf0RZbv7FixcHBwe7u7uSRCUlmxdo9Xf8rltnRUAzr7vGSlHe4uhsNmu32+fn58fHxycnJ7VabTAYWK3q3jmYrIS6pYlcp1IqFovZbFba5aWDZi6Xy+fz2WxW4vt6vV4sFtPpdDKZDAYDjaTdbrfX6w2Hw9FoNJ1ON90onSXUPCttZHfurrGk28znc42/hUIhkUiEQiFds357cRcAAHg97TDqbB2c7lvzC3kmhvQlo2RkEp9EIiEN9wcHB+12W7JOr9frdDrNZvPm5iYcDstAe20mlglNvfu3QlsikSiVSq9evTo4OKhWqzKzejableBbKpWkCmgWRM1r0UP4xvF7+RZuHSOP+u5wNBo1m82Li4tv376dnZ1JZdRsH7eG8jie6rVVgLTOJBqN5nK5g4ODly9f7u3tSSk0k8mkbumMB+7tAKblcint9Z1OR3qyXl9f1+v1ZrPZ7XbH47GcnhlJ5VjWtFOuwfHrurper6WrhnTekP4ScjL60yGPAgDwXZ58GPW6t8FUI2nI6EVqdi7UJm+peEWj0XQ6XSqVdnd3R6ORtNJK7rm6ukomk4vFYjQaaehxPHVHx9MkLRKJhMwb+uHDhxcvXlSrVamASiEwnU7rxJbahdEqWP5wDDXj+KaWeq3v6uOz2Ww4HLZarVqtdnV1dXNz0+125Vvm8B2zMuqtWHvDqCkSieRyucPDQ5m+an9/v1gsyq2IxWJag9Q7KcddLpeTyaTX69Xr9fPz80KhIFPGLpdL60NCyOgPqpdp1Ud1SyuMSv270+nc3NyYhdt4PG6GUdcznxcAANjkGYZR5e28aD5iRhBzNnvppKi1LimRyorkuVxOKqDT6bTX68ls8+v1WrJpv9+XWTYfcj7ObQlwd3f3zZs3Hz9+fP36daVSSafTErk0eGmyMXuImhnXXBfqIbxB2VvCdIzKq/ngaDTSuQVarZa58mcsFnNd13eKpU0k6ulSRslkslgs7u/vv3v37uPHj3/99dfR0ZFMHSCFYXNGJ/OHFYlEXNeV3pyaEaWYKhNjyRRd0s1XP3U4nrStX2vetS5EFkRot9uXl5c65ZZUr703mTwKAMBDPPkwuqX86dzNW65f71LtSOoYgdUMKGaKldyTTCZzuZzMNBmJRCaTiVQKW62WNZTHOhlLMpksFAoydej79++Pjo7y+bx8S5ct9Z7DQ/a8hVUTNffsbbU3b4vjOOPxuNPptFqtZrMp4VsLh5pctywHr1+Ebpeql0disZgUnvf29g4PD1+9enV0dPT69evDw8NqtVoqlWR9Kd9ep2aZU3rcSlO+zM8lQ+9lyth6vS7TM2lWDt1OoW+emzm5gRVGQ6HQcrkcDAbafJ9KpSqVyu7ubrlc3nLDSaXAU/HAD9K++EsHftjTDqPeXOXcbbk2G+KtrGl1HDS7eFoBxUq0kldkvsnFYtHpdKS7p3Rn1DBqRhnfF7hkMpnP53d2dg4ODg4PDzWJOo4jy5Zaqw2ZJ2Zd8pa0at2uLUk05BlupTdHRpF3Op1GoyGprt/vz2Yza+ebTsDbGq4XEo/HtTz8119/SSg/ODiQGQwSiYQMJvPeB9/rjcViusRruVzeuXVycpJKpZzb1nzzplkXa851aiXRUCi0Wq1k1NpsNguFQoVC4dWrV+bUCvfeCgBP2pZP2gB+2NMOo86GGTGtsGI1bZubbYo1wlqM3irFJRIJKZFms1npOCgzpW85T5MO2JdxS74XZUVPK0lvuq7tfBvlnbvR1hwsJYVMKYs2Gg0ZFTSZTKxJPX2v0dyJc3fiT7kD2Wx2Z2fn9evX//3f//0///M/Hz9+fPnyZalUkpXfXc8gJ/NDgnlc93ZaKFm/IJ1OFwqFYrFYKBRkWi7HcabT6Xg8lvH18kRJ/PJ1+Ja1T+e2huoY48/6/X6tVjs8POx0OuPx2Aqj5ocZh2wKPB33/qnytwz8Ck8+jKrQ3YEjm14yHp4MJIlKkVKfK3FHI0v0ljz4Xa9Tmn6s7CIH1SM6d4crWU3JP8NqnXfvzuhkHmK5XMr6n61Wq9VqSVnUip6bPhUoqbDqxtFoMxrqCwAAIABJREFUNJPJVKvVV69effjw4ePHjx8/fnz//n2lUrFuhdV07nvm1glL6Vp/WKFQaLFYjMfjyWQia82bedQ8VXOH5m2XMGr2wRiNRjJ7lBRKrZ4Vwdr0S779c8umDyePYvvOeYPHFtZLiu9v5o/9Cj3u76G3IOK7wQMbsh64JX87eB6efBj1zaBb/j6t4uJD9m+2MpuVUee2PV3+/YEK5aZ6rXme+nrkbfT/gbKoY9wcK+Ft2aE0T3e73WazqW305khz97Yb5aYk6n0LicVi5XL56Ojo77///vjx49u3b3d3d70jgbb8QK0HQ3dnSA2FQjLsSR6ZzWZaFo1EIv1+fz6f6yWYBVH5UZprE+hnBpmaVLdcLpez2Uwa7qfTaTqd1r0F9Q5h/ZL4/oitqq18Yf0d/VjR3cv62/Hd+b1/s/g3swKc9aHXbDx5+K/Qplc871uD9Vv6Xefp/QBmMs/Z++na8Yu23nMwD8RfEJ60px1GfZOos+GP1vHEo3t3bg5U976+SMSRVdEXi4VZQ30ImSBTVm+azWYaZZzbNGMuMmm+MHlT6QNtSm/Wrry7lTDa7/c7nU6n0xkMBlsqo7pzvXveQziOE4/HK5WKzCTw8ePHo6OjUqlk9XOQJz4k2+kG5hRdjuPEYrFSqSTnPxqNpJ+rfKvX62nzup7b+pZZFtWfRSQSMcOoTLkvs31NJhPpp2H9hmwqUv4K3h+B97vO5p+1NyyaN+Enz23TG7PjGTcGKCt6mo+befTHfn82feLyvip632V8/7j0733TX71rfMo135J8L9abkre8mPDng6fuaYdR52F/hNZn0IckUd9nWS9bWhWTMLpcLreEUe9BV6vVYrHQnWgYNTPQpheg742h1kWZ/zWzy6bdrlYrmVW+1+v1+31ZctPa2Lx2q1bhe8Oj0WihUDg8PHz79u2bN2/29/flDvh+uriX+TpuTSYai8Vk1gKpjMo9H4/HZl9P6+nWz9H3A4zrujIcStrrx+NxMpk0e50GYnt8vPfXRnP8ll+GHzgf33z8iEkXz9imz+Hm78/3furb/grjfdD7srnlPB9yJvoR19sHycrZzgPeufgLwjPw5MPoQ5h/qw9Molvoa81isZAMulwupSzqDTHeE1DSvi/1UbMzolmUsj6gb/IzF7WlZKV0TfbhcDgcDqXn5cMP4dufMpfLlcvlvb29g4ODvb09zeKLxcJ1Xe9MAlvoC7fVxzcWi8kXiUSiWCweHBxI7u/3++12W2Z6MncS8hSh9VveJbXC4bDcluFwOBgMRqNRJpOJx+PWlQaVt3zz35bHvX7+nK0Y4d5tqX+UQ+DZ2/K5yPqse+/ndm+2u/fQ956emRrv/a0OGZM3e8Ol+QEe+Ld5/mF0U3Hxx3ibTpwHfLze8olWPx9bD27KEN6dO4/xKhby9OozvyudI8fjsS74vlwufd8hrHuiEcQKedlstlKpyLxLlUolk8lYF/u9dQ59GzAjo+5E1ruvVCrSqt5qta6vr2u1mjmSyTeG6uPakdR8XAZFDQaDfr8/HA5l2SdNwAF6yN1z71agf+lboPlWre6t9wAhv65E7m1PbnMzx++Dlvkx1fokGbrb+/+BZCfe9Uf019g7INX7lvHrftu9r2D8ZeGpeP5h1HnUP0jzpUQXr/cdFG8eetO3QqGQ7kQf14abTae95UA/fFHyhdlOZG6wWq3m8/lkMpEB6bPZzLdPgm9ZQjYzv5VKpXZ2dnZ3d6vVarFYtJKo9jS13ioeUsYwm+0klWoRQpYYmM/n/X5/Z2dH5tJPJBK6aJYZOjddhTmbldyT0WjU7/d7vd5wOJxOp5v6aTzix6HH5X3jtKpHP7lz/drshuvc/pQ3/dUAyjfYWanO/NXyfq42hyTqDs3Z68TaYB5Ck662ZQndoSyGEovFYrGY1XvV+zHsV/+2/85jAY/oXxFGf5GwYVNAdI3BNN7vmp+nvd/yPeiv+2y9aZ+u6y6XS1kHVWzpHWvtxFvMSCaTstjS3t5epVLJZrO+pcTvvUYzPJmFVfPtJ5VKFQqFUqlULpdlDc9kMmmGUTOJhozGQasmqg8uFovJZCJdF0aj0Xw+3zT36m9+V3jI4Xzfa83pBR7r1yxkjIDWt3n3dtAJ75d4CDNc6tebYp/1SxW6bR5xtn7Kkl430+lU/pDNkqd7u9CxdsqSMBoKhaLRaDwel1Xf5L/Wbq3O9D95H6zr9d1nIK85wE8ijN5vSy40/+vbyHsvLcj92Dk8Om8+kJdg7SBrrj4futud695yWiQSSafT5XJ5d3d3b2+vXC6n02lvY9nPXKx+ANB0FQqF4vG4fDeTyeRvZTIZmftJEqT1ZrbpJd4k714yFmoymZhzRQXIfKve/gHJ2sCs/VjzCVh729QaaN1DqfrLVK/6U97+3sz7KLawfjHkr9vxa3mwspr++pmfV+V1bL1ey6wm0odH+sTrgFTdUmKovAzqC2A0GpWFS4rFYqVSiUajiUTC9zT0v7pD2ae+Rj28ymB2GQqHw+Zc11vuAPCHI4zeI3S3umm+uOiLglbUvC893gfN78p7vzWAyfHEiNDdMe+Pc2F+fF8T9QzltXj7pAHWrqycLcsjSRiVtvJUKmW9hoZ+uo9vyLMGrIpGo9lsVhbNymaz6XQ6Ho97FwjV/ZhfeN/t5D1Mei/IjArWnTFrtL+B+Su65aC+hSWxXq/1imTmAXmnlIZIeUf33lW9P/IuKzchEonI+7RUoGUP8ntulpx9z5P3UXiZn4Wsl1brVcv7++n90KWtPbIwm8RQ6f8tv/w6R4puqf9qTVQaW6rV6sHBgXzStmZKtv5Y5A/EnNBjNpvJh+HILd9LcIy/bjl5/Zgtf2XyUqbjPl0GC+KpIYz+ONeYNM43cZpZZNObrtaivN+18qjv17+C9dptJmazT5WXliRlD9bwc+c2oMjLd6VSKRQKsk7SlqP/gE2ZUiQSCWlTS6fTqVQqkUiYrXK+z/K9Fue22+js1qZBXb+Z9/fNNz763mSp9fZ6vVar1el0hsPhcrmU9zx5q3NuP4NZT5QforxNyn2QGQx2d3cjkYgsx+o4TjQa1YqUVXk1z9Z7OYAwM5n2+jC7fGhOter6uof1ei1ZUAKo9Pnu9/vyRa/Xk2mDNZLK37j+pcsHKvmtzuVyu7u7L1++dBwnl8tVKhXfVwA5upywjHrs9XqdTqfdbg8GA5lgTpr7ZaJi19NWpmlbY/RqtdKGpmq1qiXSkNErxvc0gD8TYfQem4KmSV8HvQlA86j37d+3DGkdeksR63GZodkbRq154H9sP47jhMPhRCKRy+WKxWKpVMpms4lE4nGb6Z2tLdGO48hQA4mkyWQykUhMJhPfgKVnom911gpMGtN1yYPAw+iWW7c95Okb+Xw+HwwGtVrt8vKy1WrNZrNQKJRMJpPJpPSH853CTG6RZFmZgzaTyezt7TmOk8vlSqWSbqwLB5i/Tr55lPdO+DJzp7u5U765vfnfxWLR7/dlZWNJhN1uV8Nov9+XMDoajTSPSkdSCaPubQN9Op0ulUrj8TgcDhcKheFwKNPSbTkTCaOj0ajT6VxdXV1dXbXb7clk4rpuPB5PJpOxWEzDqLkr/RNzXVdOY7VaxWKxYrE4mUxisVgul3OMcYHeprbvvsvA70UY3UijpPbpcW9H4ZgZMXzXlr1Zj4RuWz+j0ag1iEeP6PwBA7E3Nct6N3PujlbxbiNhVDpu5nK5LRMhPVYe9f2W5NF4PJ5IJGKxmC4Z6nsOZqL1ZiZrdO3PnHPg5Ld3uVwOh8NGo/Ht27erq6vRaBQKhVKplP6wtK4pzwrdjk2WMKprrubz+fF4nMlkDg4OzHur76nOhpG/gQd6/FE2fWJx7v7O6Au1JlSrn6jOCtztdhuNRq1Wq9frkkdlajadR1m6gEskldhnVhZkn8vlUtr3pXFfe5r6vozoq4fruvLEXq93c3Nzenp6fX09GAwkjEpDjZQ/fcOofBieTqcy03Mikdjb2wuHw5VKRQql5vW6tNTjSSGM+nBvJ5MzJ1E330FlQIz+hcvLhHaq28IMPfKU2C3dRoptzu2rieWXXPDj0auzXrtFOByOxWLJZDKVSklh0lo/U/fwMxHcfAn2vWly57Xjv+9agt7CofeU9C3w4ZXjP5Bel1Y3x+Nxs9m8uLg4OTnpdruO40i/NPm1N2vA+i4rv/yLxULey13XLZVK6/V6b29vPB77zkWw/ZTkiz//Fx6/jdVSpD2Y5REdzKTMMXOz2UyqoRJDr66urq+vm81mt9sdDAbSd1MqoBJAZdoQafGw9maejznZ05aGEfOjrGTiwWDQaDQuLi5OT087nY4ky3Q67RtG9fOejLaUBLxcLtPp9Gg0yufzb968cV3X+mC/peUB+AMRRv2ZOUNfj/QNeLVayUuGlUfNAuq9uUQjUSwWMycE0S6kIaMvlPUp/3e6twnMvFIzjPq+OoeMqVUlwZj71xfQn0+im3Zi1TsfEvH1rLyX45u5nxbrPV7euaVyc35+3mq11uu1jMxIJBKuMURJhUIhyfTSxD8YDBzHqVarmUxGWiG9R3R+7vMG/iU2VdD18485ilQ3MP+oJb11u91arXZ+fn52dnZ+fn5xcVGr1TqdjrmEh3bH1M7xZuHA23giL8s6ZYRvMcL8y9KCpSwj3Ov16vX6xcVFs9mcz+fxeFzm95D3F++fmIZRqcUul8tMJhMOh4+OjmazmW9W5k8MTwhhdBsNguZrik6ioXPWbIo1vtnF2rk2GevjsVhMx1fq3HjBVkbvvS7zca0rS7Lx3cw7c9BD9v8D57xp52Zo3r4f9+6UpVs2e9KRVMiPTAbUyzAmKdJLvVOmrfFOpxAKhWS6bykmyYPNZrPdbvt2pNO3yS2fFpwgPnfhD+T9yzJ/Q3RqNp3qKGSsaSd9Ttrtdq1W+/bt29evX09OTk5PTy8vL5vN5nA4nM1msit9ypYBmhZ5L0gkEolEQrp7bmpjMT8AO7fj/HRdYlmUeLlcyp/YljAajUZlMTx5UBaT01GGm07S+gL4MxFG/3/e1zvJgjL+15zURrvmSPO6lvesF02tklqlTd8jWvU82aFUmx54ws4ve7lxDVZjtLdaYJ6bbxaXmU10khTpj/XrXih9d/4Dzev6lE3f+sOTqDdP+94ZvSfydmherzy4qTIqsw1Yk0J4u77poc2z8qZS3jjhy/rNMR93b/uJas+fxWIhreFXV1enp6dfv379+vXr2dlZrVbTj0m6h/Xd6fnMz/86HkCGH8kvucZQSaIyEN67qpPFqil4X1L0M7z1p6R/Kd4/sS0V0E0fyIE/0L89jOoLkNV0aL5q6BebPqA7d4ec63fNT6Wb3vi/N8SYJ2zFWd/P5T9PM+jPd4t0XXexWEjHf53JcrVaWZ0QfvIqvHU47wbmYir3FkKsX5InJ3S3w+uWdy8zhv66i/WGUetsfb8GnPvGM+lEm47jTKfTRqNxcnLy9evX4+Pj4+Pj8/PzRqPR6/XG47EkUfPjtPflXRu+tOKgc8DpOAFzznnf13nX09VVPcqv96YPw9Zb2M8fCPil/u1h1DGKXuZnYvmW9TdszuzjOI70dhfeRTJDdzmeFzudMn00Gkk/dPNA3qP7nrCes5SmfmmJ8ed3Iv0Rh8OhzOc3HA7z+Xw6nTa32VRtfSCzvOGbujSJmmMUHlgZtR60yid/8iu+5lHrzli10kcfjOV9e5b9b/oT+5PvIYLi/UX13cacz2S1WvX7/cvLy0+fPv3zzz/Hx8cXFxetVms0GulcoY5fi4Hvnp27fx2OUUnVv/0trwCu0T6m+TX8SMvhbmm0cYw/KP6y8If7t4dR/RMNG7OamwnSufvRVl7spFN8q9Wq1Wo3Nzftdtt3aXLr5cYbRkejUbPZvLy8rFQqr1690jxqfsj2bdPUSPFLK1h6XOvT/KYrMvl+Xl+tVtoZsd1uV6vVarX66Odv1rm935V+AvpBYtNk9b4p1tomtHUw1p/G+qltiZu/9DfK/ITwJ98u/CF8P536tguZnZrkpfX8/Pzz58//7//9v9PT/4+97+xqJGfaVhswxjkHcpy0u8///xHPOff9vLszQw42tnHOCWP3++E6XacsqRvDwIyZpT5wjN0tqdVS1aWKN9VqdTAYSCdPVRvKj5e0o9Edr05CoU5UHtl5QxlWwgpeI1dd//hyTqdVPn5nzeg7vdPi078djAobGzqIHBypKBxl/YBffLFYvL6+LpVKrVZrNBpNlWqQXOgas1nTHx4e2u12sVg8OzszDKNWq4VCIY/HA7cnZMEE0EG4PXdIoqaWlpbogC50EGoeInSivZeSoXLUJWUYcGhWms/BYNBsNqvVarVaTaVSyEn51AE7kLNUEEKQnwAltabcBdKYJWmn6vAwLVK+0hd8ltcmu1kiEyQlqBfWMqAL+L2U14xfL6wIPHVOtMc8abZ/6MHe6TciB4RnznrkExgdDodgzgifR+w8ZXWgfUoHe84xjNnUKIKd+aVM8lOrqD3ZWOw8pI3Z4AHaXHxPCaseh5hlyDRUupgPwwHXvraS4p3e6WXp9wGj2qOheo0q8zgKkW65v7+nGnEoW4ykdLCtdzqdZrNZLpeLxWKj0RgOh1wSqzwODIWD0Varlc1mhRC1Wi0ajQYCAWTfXFtbCwQCyAwP8vl8wKbqAxqzyaQc1E6PynstkgMaRkFIitnivv+8TWcOOJlMer1evV4vl8uxWKzZbKpJKMHQDfus9Q7EdX529+LF4VXycFq8IC3I1s6nYRjLy8sej8fr9aKyqNvtdr10adNXIu1ql8SwFkRKevpnkJ1yXbtyFnP2fg6pSjvnC7TX/B6kbkbO63j86GQyARLN5/NI4YR8ojy/mKRD5cyTr0xpMlXGCHhKlZl4UlLtyCVSt5gqnozZ7H7a92tY1n+7jt7pnd4E/T5gVCg8yw6RaDGZBKQoFRySJKNcByp2EB4FD0IK4m63q4LRqVI6GYpMmHUARqfTaavVur6+Rh54r9eLAkXxeDyRSCQSCZRxR/FMlOgAJOXHesHO39JzaR9fnRyOCVQwilJ1lKne7XarrpYqYxUKL4Z7Q6PR8Pl88Xi82WySYlKaN4c0Ak8iaVTtdrvZbDYaDRQARFIVfrHLylwoDYm8eOknl8u1srKCYwNOCyoYfRMk6ThJVJuzjmjkS6rmviF9v3quUCfTYJkl1HmWrnzGgeT3IO2xWXvZo9f8TqQ9xvAzOSHR6+vrm5sb1Nvs9XpqUyaj6WwRByj+aTFrj+jC2iDcXq+9zK5f7oEKQmvCSjUNeSHYm9UCYmHpTbV9OQ/mnd5pcei3AqOCbU47MWanrCKMiAoZvV6v1WpVq9VisXh7e5vP5/P5fKFQqFQqADHcQ5TKb/DNj89SrIZhxXuCDaHiXK1Wg6mFwE04HE6lUplMJp1Op1KpZDIZj8fD4XAoFAoGg8A9xKfQmvRcDlphOwHG1YrSNWtraz6fD8paZGaGT4Izs9PqM6BsrtfrKMTX7Xbv7+/VF/Q8yUpgkUN/+nUwGDQajWq1WqvVms0mKvipXUuD52pRYzb2dnl5GaWJgsGg3+/3eDxakbCAKMFuhrlmVF3PU6WmPP2kFdh2UlydZIm056V/IXGEZDcb81zzm5Edo5tOp/1+v16vFwqFXC6HZKK9Xk+rsNQuWppG3EK/2s2qodj0Ha4UCo9Vd4cUHaVuENUTTCi6Xv7TO73TW6HfDYyCHmXK0q+TyQSB7cPhEGbcRqNRq9Wq1Spqx0E5ilglSZ3mYilIpTEIS6lmJ6eFxVzI6g1dbCAQgOoOsT7lcjlqUSKRiEajwWCQl9NUrU7qMKRBapmjejtoZWXF6/WGQqFIJBIOh9vtNrIySRcbNmZ6rhIWQqDAT71eh4ay0+nE43E+nxyPOrNUrTqWeuSPiU6r1WqlUqlWq0jvIskhFXFKbUrXY1oIo6+urqpg1FlE/WSSFoD6vgymxZ9/zO9ij8gZu7x4m/xoJF2jYiztT9IFDnf9QjKYzyX/UmXjOHCWy2XYsmB74Q+lxW1C2acSWCRHT7BrMhbhFOr1epH0fh5bufNmMZUcF4KJMzvu+miDj47qX0WSEHz0sufR+7Q/lX5PMKqiGVXo0ueHh4fhcAgACo1duVwulUpQoUGB12634WWo+ko6YDgONwUDRlq8SEQs1TTNbrd7d3fn9/sBBOPx+Pr6+sbGRiqVikaj4XDY6/WSlpQ3qMWgJLFMy+7MrweR8V3yrF9bWwsGg5FIJBKJYEKkRFcqEX8HKzdZUvRut9tsNiuVCpwfgsFgLBajuwhe85TOEgeRVEH0K93Cx08qExwtSErx0T6aaUV6cQRGg8Ggs2b0V5EWUoOkOZRu/Dls9FG8+4a4ud2OfvYjcCRk14i0qcUsh6HvVYTqfIZ0YJU/n+w0vvQv/348Hvf7fZw5yaVKMrxI/jbSkcxg/vd8DmG2onDSNYtCoRBSgoRCIa/XS/n2VZoTFErnYdM0udXL+UDyTvMQTazxmCPfi0zsG2Jiv5x+TzAqkTaHqBACFnmUZUOepmKxCM/3QqFQrVZhkUf2H/iqqxYfMceqpaAcut6B+wurNBxS5RlWoEwwGEwkEtvb27VabXt7e319vd/vA496PB4e3oSOeMJIFcnZoWeeSI8Aq8vlWl1dRYFymOlXVlbsxIP6JcAoR67IJFCpVG5vb5PJpMfjMU0zGAyipB4NRpsBlOSHVg9E7Jvfglos5XI5n8/f3t6WSqV2u62NwbIj7XRJYNROM/oL+ZEDV9WKc2m1vOqoxByc+k2wcmmSTRZBOCcEsSO7fWp3MR8SneJcs0mL1TOVHZIWCzP/dryFby7TNOHBD6tLvV5vNpu9Xk814AjFRCCdzCWfq6WlJY/H4/P5EKfo8/nABuG5FIlEkslkIpEIBAIo5smbmvNZtIQxUOCBYOkCHB7n2d39G4hPlB0X4qcR6XZ+hpEa0dKPc4B/Ff0rwCjtZL4s7u/v4RjabDbr9XqpVIJ76M3NDYoXNxoNCrWGT6dd5g7n3iUFxjzSZTqdIleIyfKJuN3uWCzWbreRIBPKxVgsBkdShN673W56RnIPUMUPDUxCJGTDkiAUCVdJAMxDdmbffr+PRIChUAgwejqdhsNht9tNnUrD44xAapN/kPq6v79H0oPb21vkealUKijoLA3V+dWoGiPoSPx+P6U7WJwAJonnSjyR61rsjiUvBUnV1cLh2ot08cvJ7nj57AekBe/QgrpD+WBoSNpGTEfLr/bKX0V28M6YDTCHgavb7SJIETU1BoMBtrndiYvzNPpe4vPLy8uBQCAWi4HZhkIh7HcAU9iL4vF4MBjk7Ffo5naemeTsiyNRLePlY35GX/9OenR72m0KFcg+2tH7W5iffhMwqkVdYlbo0rJA+g9o5uBaRPZifFOpVDqdDiFR3CIsT0SJKfCT9JzAlMillO4wZ4mzmPv7e5RaRjB7o9GAF2ksFkskEgh1CofDa2tr6rOLWSTHxyNBTPhFSdOFrJzdbhcRV9AQax/WARRKdH9/X6/Xs9ksR59LS0vhcFjKZzlPMnkuWigLpmmao9Go2Wze3d1ls1kcMwqFAgqxSOWyhD0C034PpzFkPyBtsZid51/LiTgcoS+dh6Rer71gftKKzye18IbIeZ5V1vRog9JucrhGvcB5nudfmQsrTaVz1P39PTz+WxYhcZvJ1MOcqWr3qcTGXS6Xz+eLRCKpVArOUcCj8MlZXV1F/hMcRyVdAMe7P/ik5mztNO0FP9jFv5Ccj3kvMqULu3cWk34HMCoBOMEYDa+iAYJCFO6DSP+BoMtGo4HEk51Ox8E3FMQP0+LH1q5a54NzQ6nZ8XgMZ81er1csFnEuj8ViGxsbe3t7w+Hw4eEhGo16vV4uxsQsVuMjJzBKClFputAj5bcqlUrwxAKXl56F3yiBUTwUN9YDTxuGgdwopmkiLGBpaSkUCnEh4QCmeeNiVnhPp1O43t7d3d3c3JydnZ2dnV1fXxeLxXq9PhgMyA/BZK69Wtyp/TIQCEBNggiG1dVVfv2isaFFAMf/EtK+fVNXcNj5dRiKTVB7zaO3S6vXDiWr4GwxV4up2HMEi0DtdDqtVqvRaCAzNIeV/DG1DHY6nVJeFDgmgbtmMpnt7W14RiEbNIUroeAFyOv14jgq2Ote5Jn8d5IkpLQXvCAD5+3MrxT4d9KbB6OmQsJeD0/KxXw+f3FxcXx8fH5+Dos8fDRNK7WT6hvK45CAYwjVPapPciAyxNCpXQt9QPAlnU6n7XYbd62urkYika2trWaziRIg0+k0Fot5vV6CuTwMyGAOUlxDgGJOfNKm0+loNAISzeVyV1dXV1dXuVyuVCoh+kfSLDqIMXo1BstQPZ1OYUeDqhXPArdLwzB8Ph+iAdTNbIdH1XfdarUKhcLV1dX5+fnZ2dn5+fnt7S3yDlJUrJj1lOXETwiSH2ooFIJamtQkJIfolsVhN3bKM4crf8aw/gXED2O0DdUTsvZGLerSNq5+r25AfgtdwDGZMRvT49D+4hCN8OHhgVI+ty3iiUKFxbc5u+bcGzk+6Ra32x0OhwFDd3d39/f3d3d30+k0ApXAKk3T5IXm8UFYEQJkX1r8afz3kAo0XxWPSsKLb8OFEhALQm8bjHLQpr5sKYsHQqprtVoulzs/P//+/fvXr1/Pz89LpRL3DYWdWnLW4V0Q83KxoojPQ6KS6oLzSkmtKCx5hmiqyWRCLo+FQqHRaADP8YvBNAn/IYsynxOtg6NpmuDsyDCATKs3Nzfn5+dXV1dwuGy325gxGqGdcJVeEB8MvpxMJpVKxTTN1dVVGLuFEOPxGPpdVH7iKFmaE3pB/F2gzlOj0SAkenFxgcEj7yANCQ1yUC79RF+SlHK5XF6vNxqNxuNxgFGuEdHSIjAdLhell/LUdp50vdr+IszGK5EdgiS+QaGB80zCj0yUeq9FHFsuAAAgAElEQVR2YJKwfFRI/3LSLtepVZZzOBwOBoN+v48yv4+2YM4SP4663W4c8o+Ojo6Ojg4PD7e2tuLxuM/nw2anvPTcrkV/uebCeCGb7zu9CM25sF92/fMj0Gu0/3vQ2wajnPjJXorCAQxtt9vlcjmXy11eXl5eXl5cXBSLRdSUp0ZI5UlqOUk9xn3bpbP1s4mrJQTDDRw4EscEeOKK2/F43Gq1YLVHoc7BYLC+vh6LxWBRclmlw4XOas+fHTAU2gUEpZZKJWSQvr6+BhJttVqULUWdamnLaV+Tqi1AMFM2m11dXYX2OpVKoegUD953zRaM5hMIgI7ALxR5ond9dXWVzWbVd+2gnaJeJEFiGMbq6ipCaGOxGNnspDKtQhHt7/Tbkx0SBfFzrJZod/MGH+3UeaNpr3dY849292vJ7mHBD6lGPBVDmrNNUzGMLC8vB4PBVCq1vb19cHCwv7+/tbWVTCb9fj8xZLXAvcFCoHANZyPOjzAPSU2908vSo6/mx2f+/UziTG8bjHIBwFkAz7CDkj/I3MTNzUjeJB2gSSQYulrAhlUukl8sXmKR2QkqVT5pLxsOh+Vy2TAMGNZbrVa73d7c3Ewmk5FIBKo7SQvC2xSWUb7f7/P0n8i3WiqV8AE6UZ63z2AkGBKV2jcV3ylpYsfjcb1ev7m5ub+/B46kcIFwOBwIBNbW1lZWVpDqTwXo0+l0PB5DL9LpdHhuhGw2i7pZzWYTnhh85HbnVPzLta30PTzJ4vF4MpmMxWKoPqCCUampd/q9SX3L6onL7mKunFPvdT7jSd/YYU3puEssThqPdMDTPtcCEs6i4/GYwKjKTon/SOYsk6mr6cpQKJRIJDY2NnZ2dnZ2djY2NqLR6NrammpK4tMovUHxRmbvnbRiS0va12q30uz6el8VdvS2wahgWIfesWSa73a7pVLp+voaMPTy8hIaPqATNVCJfH3s1g2JB87Unjd4VcbwzzADaX+SehwOh7VaDYZ1SmsCW9VkMoF1iQAT1AAcRCLNPqp0FovFXC53e3tbLBaRWAChXZ1OR50uVcMqJRbQanrwEy9M9fDw0Gq1ECyFhNXlcnl9fT2VSiUSiUgkAjxKcQP0CtAdFLpUwbVQKBQKhWKxWCwWkd++1+uhZJRQALQ0Nmfo73K5PB5POBxOJBIYWygUWqiMTu/088mYI9JIzOrJpH0teYprl6gdr5C+57LQDtGqq13am+phdXFIi8inszXi7Ypx8GmhCefGLpfL5ff7o9Eowuc3NzczmQzSNpF/ud2JmvciiaQXoXe92uuReiDUkgoMtPvlXRw8j948GBWKV74ERjudTrFYPD8/R7hSNptF5iaeZpIDIwfMRx39OAy164K+tGsZj8mN47BJjcdj1FtHVBCUBJTw2TRN8nYyrARVaPDh4QEeluVyuVgsZrPZ6+traI7L5TLCfcbjMdcpqmOTpJ00P1qZyuNbodpEAGyz2QSeRv7XWq1GcUJra2uIcKIoeAge5OqCThRgOp/PUwkWeNlq5atWFyVNNf/G5XKtra2Fw+FkMplOpyGlpEzX7/QvpEcXgLpt8b05S1KD6gqUtpJ2J9rdqz0/q0cyfpKcB2T/cgIDmVikzQYtbCaT83wcNQOBAKouJ5NJ+IUTEhWWAlWrIqXBiNecsXdI+ho05/vSajH4Enr0BLLgW+nX0psHo7QIVAYxHo8RCX5+fn5ycnJ2dpbNZsvlcq/XIySKKEgY33nuFaGss0UgyktKH4SV1oRUjO12++7ujspvcvMThaiDfVMyFLJr5/P5bDaby+Xu7u5qtRoKuEvaUGkrzqkA0M4hOUJQHCvlYxJW6oN6vR6JRAiMIp6JTqgERuHqioxd+Xy+VCo1Gg3AaKFIaO2AJTGvrQ5qGAY0o8lkMpVKxeNxJBd89PHfiej1dtPLtvyyYoOvJdXPhINRuswBhr7GCOenF5nn5w1eVe4KC4zyxEzaPf6oundpaWl1dZVqL4Pt+Hw+2uA44QurBoqw5M6/B2G8+Ob9yVNnp136kZEYSlyB2umja+/RoT5vYD/Ywk+mtw1GJQ5OXB552mu12u3t7enpKXSiNzc35XKZks8RpiHYQfpRO/WD+dIBp/MvOIMRjYTYLjIAYKij0ajRaJDdims0l5aWfD6fYRiTyQTQjbxCkUMUfxGl1Ov1RqMRgTl1ngkW07TTCFXtsorsucCAjy/wKHwGBAOjVO9kdXUV9UKpl6lFCNuCpwGyxvb7fT4MbWWpR9XPhmFwLL6ysuL3+2OxWDqdzmQyiUQCmlHB1sbiHF0WgV6bIdop45/au1ahZYcLn9o+7RreCx+5qhlVGdGLkDEbcMnVOdqHVfcL38XzT7X6LPxw6Dxm3ilxOVJVIq/I2CKKXpKaNVmAEe9aYhFut5vXVMPply6gyFF+WOVp/qR5eI03+PNJ3WL8+6duMSIVCL7SXPHVztetJFJ/hFSZIvVFlzkve3VzzbnFuFSVrn/VuX1ZettgVDCuTdONQuSoe355eXl8fHx6enpzc1MqlTqdDq7hqA6umepmU3sRs+tJMLnyJBHIl8482IXvGepLqpMEUQdmDTM9uDPVjkKBe4R+Pzw8NJtNpIJHziNY5BH51Ov17u/vpZh9vosIqKnh7cZssRPpebUg1WCoGnchnep4PEZAFfKPwltUStdFUnwymYzH49FohNwuw+HQ7o3YSQgupfjYeMgalaJOp9MIYAIS5W64/GHfBAt46ySBOXVDzbnL6GJ+l90bfOqblZaW0Ml4tc0XX0J8lhzABJ8E6V5pttW7nKeat6ztRTtgIjJeUWY90ok+WGRnqafbufZBSpa8vLyMukp09OWxsGA+pnLsnFrlM1RQ8nvQo1vsGSTBsp+DRPlTGAq9VHemKRdl5F049yXNszTVdpJLe81rz+2L05sHo9J0I8dktVpFakykOodOtNvtaltQX7k5m6eDX4DP6vLVcmdnmvN6vlukwahLnHjrZDKp1+vgvMjG7Ha7ccpfXV3t9Xq5XO709PTvv/8+OzvL5XKokImAJ7RA2elpQoiDG7PZ9SjJs4Os0oouu11EYUnD4ZAkh3Zr8RZMpig1LScwnmDcnC/RIwZPHg7UBYLoU6kUnMnC4bBUdcl8R58K/QSRrJ4BpF/tRqL9aR5273Cl8zjFrG6SCyphI55fcFHxAUhtziO0+O34xm7e6LmE/et4RqfUFJ1IDcPAAVVi1yoY5dJdmnYisMrV1VUc2lUwurKywvm/+hR8RXHOySfkLZK0xYTNq59zi0k/vSpg4pvImLXOSQN4we4Ei0Lhi02FDdrb5+FmEtntxFed2xenNwlG7biJEGI4HLZaLZT6PD09BRKtVCqS0ZYyBHG2JS2CZ+BLPrwnkfog0vKSlikfs5jlzpR6yTTNwWBQr9fJuv3w8NBoNDweT7fbvbm5+f79+8nJyfX1NVLBS1E+UrNiFpJyeKdVRdhBRvUZ0Rr3BKU2pfx/TyJkVwUZloOpmK07JZSZN5j1n75cXl72+/2pVGpraws5p8LhsNfrlZ7lrez5n0zqwnhBFvkaEoUTZwLPgBTOt8wjn/gwJOLt2N2oSsF5unNozbm71yDO+vBX1VZSKmW7+TTm0I67XK6VlRWPx2OnGTWspIGSfQakviDtMJ749L+eXnuL/QSa5xH4tuIfpGvUZg1mIXyjW2xB6O2BUX7aEOzFm6YJJErZzlF35+7urt1uI2IJF5O2TOUXhqK34H1JpxyyR4v5mJ1E6sLlvUiPKWbZsV2DYJek3YTHwtLSkmn5ksbjcbfb3e/3ke4ql8tVKhUe0aVtU+r60a3Ct6XJ1MzaC7Rf/vhulMQ2792Op/C1RL8uLS0FAoF0Or27u3t0dLS/v59Op4PBIHcm4y/rBR/hd6UfnBl1Y77qVNOSoGU8Z3fqwjNmFXhqL1qiUHFuiVaXnDps8KglhaTrHRjXm1jDBiNtVh2JHdk9L8AozPQej4fXfnsePWm1LBT95C32gkQvVytu7AghFthi2G4m069rgamwYCj21PLyMj5wW9ycYxNvZ3pfld4eGAWpR5bRaNRqtUqlEsoFXV1d3dzcFAqFZrOJawyWDJ8MtXaMSfIlog/mrI2e/8TzQzmT2gL/a1pOUfM8OH2JJ5KQMYLTp1aV+Xw+7/V6l5eXAVIbjQYClbRIlD+L9oA4JyTVIlGtixXpLOecxkeJ2qSJtXsimn+4kfFfXS5XKBTa3Nz88OHD58+fDw4OMpmM3++3e9h35vIo/cjkqKeL10aifE89tS/ahnSjFoyqzfJcRZTRHV7R+MBTf6i3Gyy4cHl5GWV1yfqMlBrSIPmQeJuLv5IxcnIe1QL9eZ5Cwu5aSGE8XenwRklaD792ME8iaX85r2TTNJGOZjgcDodDxOwCknL3M6ETGbS/4AW3ykgqg8KHJO2yN3pceQ16k2BUZQemaaKkJFX7zGazpVKp1WrRNWA0pimnmBZsmUqigiMMvpj4BYJx8yc9gmlTBZT/y1eqA0TjP+ExOfzCNms0Gty/is6CKuyWEJUqq7QzJo2Hf1DlnLT9+ARqpfUzyGTo1vmcKglmqd+lpaVgMLixsXF4eHh0dLSzs0NxS1JT2kd7p5elnwySpJX8Iy2AaF873EJp1xCKNxqNgEFHoxH+vb+/p4qX2iXHjddAolD4+Xw+r9croVIecWiyMD6xeChEO2+YLhRgGw6HmBx+gTrndu0gDhJwX5s8/0nL4E1zgzc6eFq3j74pYFCKee31ethu9PZNVgBckvhi9uhCCnWfz+f3+ykLIT/1qQL9DZ33fg4tLhjVLia71wYbdD6fv7i4OD8/v7q6KpVKvV6PAw74TUprS+1URV18W3JI+ugjaCGX9oPaHYh7Akh4Tigoin4iPCrpV+wGSZoAfKOCdfoscWfJL5NgLqX/fBSGSl3wTrn2lN9lN6vaRh5dRfSZMhRKY0gkEuvr69vb2zs7O6iw6vf7DWaxlZjUOz1KdscD51vwQd2M3MQGlQY/mIm5tVnSwQn7AmpF2OCksxndOM+zOIA8knkPDw+koRkMBpCOA0YERklYChvQwMEo1DZwhUTSokAgQCJzdXUVUtPOtgjiQetkzZyyHMbzgGy6mKuUMLcO/T7MEkLX8VJM07y/v+92u9VqtVarNRqNdrs9GAzU2vTzHG4Bavv9frvdbjQatVotGAy6XC6/37+8vAzsgjIiNFd4askLwqVLEUjDeHR+fiFpVxQXIryswJx8j1aFyQg/8fWJlfAiXNRhi9Euo9QrvV6v1+t1u91Op0P1YsjywMGo1IuLEQejwWAwGAwGAgGv1+v1euF5DDbChaxKJDppi0lpwu2kJ02vBJT5FnPe3QtCCwFG7XChmI/pTyaTZrNZLBYvLi6Oj49PTk6y2SyvO2/MVqsX9rxJC0O5NtGZ4Uq38F3Bt6Ld+qbLSJDgXh4hri5KaYdjkDRU6VeHMdM4VYBl9/hLS0ter5cOgoZhkMkD4pOy8RtW3Kvd5Gu/tJPf6jXUi50MUAEo/tIuBZ+lMSwvL/t8vlQqtbu7++XLl6Ojo62trUQiEQgEqB0pKn/xd/uCkPbt83/V84Zp6bl57AiwyHA4JInS7/dHoxEUY3RSEvMxE+oFHa2srKytrQWDwVAoFAwGPR4PZcOVjmSmLsu6uvXsBAmK2aL8BGqPdTodIFGAUahtSO1HalGHlslxDfuOhGUgEAgxCofDgUAAsnNtbU2yLRJNp1OeNw2zPRgMILNpnjmjE7Mbk0/70tISwDEhYwcwen9/3+v1ABQwIcj7S9gFKaXr9TqKAFPFOGmSHQ7YRCjk1m63K5WK1+tdWloaDoeVSgW1QkzTRLK8KcupB3nv8XigEsM00uPMI7x+CWlXjsmcmrhiAgCdCHWVKdqVX6zdxbQMprMEDMe3GFzI1EFKDaoPIj2OuhPpmNfr9drtdrvdBu6k/dXtdvE9ZBZHgQ5glGQ9lvTq6qrX6w0Gg+FwOBQK0c7CwQ+ZayWTmjpIvsX6/T4Gg17oSKziewmz0hbzer0YwNramvSu7ab0F9KvB6OqnKDvpUVgsLxCHHshaCmbzZ6fnyOCvlwuU7Z2sAbgM74lpL4k1knrjAs/BzxEi5LOQLRueC8wA8ESZKeqpCcFqfvNxbK+8ynCZ4M5torZdAFaklAmb1Mav+oUu7KyEgqFEolELBYDy4aiApU8wb5p2IQMJNinAmvBWJhhj/75T878SLqLPxqdNCQkGolENjc39/f3j46OPn36dHh4mEqluKsoTZcKRN6JSJ0c7D71tTrzR9qz/FfUR0DN2Gq1imIH5AMNjky5FFSJwg9gNAZ0hFNWOBxOp9OGYcCuzYdHe40PyQ7gCrZWpdWOZLpQxaEeb7lcRl1foM/RaEQ4W/IWFTq2Sc/FRwXoxsFoOByORqPxeDyRSKTT6XQ6Dd6ltiYsMNrr9bCvK5VKtVptNpvQQbpcLrfbDbuTYAxHwqbC4l1utxtzi64hNbX9CiHu7+8RCVCpVKgmHF4QHW7H43G73a7VauVyGWVN5gGjIBdLNYrl1Gg0lpeXp9Mp/L7C4fDa2hoKKcN5dzqbZwNwCoUw8C9/EdpOfy1xxmWyUzqpPPjZYDqdYotVKpV6vd5sNjudzmAwoJp5dOxxQGyCqVepl5WVFa/XG4lEUqnUZDJBHgM+SIeNIz0O3w4qw6Fi0c1ms1KpoMgLbTH4wPR6PRwCAbWnNpEGnKQthiOfdN4Lh8OxWCwWi6VSKWwxqGy0T/Hw8DAYDLDFwM3oZIUtjF3GjzrmrKs0wQZssVAohK5xXlLXwKKJrV8PRoUNHlWRlmq3RV31Wq2GiuQ3NzfZbLZYLPKDAmnjppYHoRafqWiG4zlhvyjJeRkBmKSWV13gp1ZVJPKVJndpycmJPz4RH5jdYVQCc9prVDLZ0YpPO9f8aSEXwOjm5ubm5mY0GnW73cPhEDU5XS4XjtSUUAlyy7RSeGoZhypln8HKnfEo79dkJQ/oFSwvL0ejUYpYOjo62tvb29zcDIfDkEm8l3d6KvHFzL95lD/iLi4pgULu7u6y2Ww+ny8Wi7VardvtkvIM7NuwDqJ8LfG1J63GpaWltbW1cDg8Ho+9Xm8sFpOqP5js/Ga32Oioo34JgkK03+83Gg3IyNvb21wuVywWAakhF6EsIQPilKVtp2lRu6blTYhhyap1CTMiBFUikchkMt1uF2fjSCSCI6U0VMMwINGbzebd3V0ul7u9vUUNkYeHB5fLRUEbJB058+T6tqWlJY/HEwqFUqnUw8MD5tnujdMrLpVK2Wy2UChUq1VKjQL0DDQJvXKr1Wq1WrQA+MpRtQ8qP59Op9CM0odSqeT3+8HSsYokBwm32x0IBBKJxGg0Wl1dDYfDWsmyaLxC3Qv0vZhdtNPptNvtlkolRAOjOB8pxQUDo0KR4ySqwF253Xl5ednr9Uaj0dFo5Ha7Q6EQoVs+SOmDsN9o6uFWCAHVz2AwaLVa1Wq1VCrl8/lcLlcoFMAoIH9xDbTvsKsQsJMOq2q/JlMnA2uSpT4YDEYiEZy4Wq3WaDSC9EcFaelBsIyx6srlMljB3d1ds9kcjUZCCJzZVldXVTBKE2tYnkXYYliWbrc7GAyqOEE7mb+WFgKMCnvMYei0X/QvIujL5TLqWOIkwdc0DtCmpfeaB9kYs6pHSZNKv1JkALkto3wc3LAcwKjkMQ1LAYIS4BSFcWKFSccvDpGdH4dzBJeSBY1jXPrGmFWOShOOx6G0z4ChmUxmb2/v4OBga2srFosBjMLIJYSAaa9er2P2eAF6oWgo1df9DDJmyW5aTJaon27EB0iUTCazv7//8ePHT58+7e3tZTKZSCSiDVriXT972P8q0uIA/is+SKuCTCL05f39fbPZLBQKSOKGU2i9Xsf5h2QDjLlTGy83w/KrJhnpdrtR8dXn8wmLgUiYUh2/Cq/5U3BhP5lMgEEh/KAIQVXefD6fz+ehtiELHQAQmIMkrR02i1aIgu20223ob+BkCceAZrNZrVaTyWQkEuHVd/ksjUajbreLk//NzU0+n282m+PxGGAUpd2I03IwSkXgICl9Pl88HjdN0+/39/t9BwOREALF2BqNBsB6sViEeDZZOQ/DMLhrEK/cIb0j/plDZNM6e0MBjHIbnU6HcjwR6uVgFMA6Go0CVScSCfJKkjpdKDzKmb/BzGjGrHcZrgQ2ymazZ2dniAlut9uj0YgUnA6aUWrWtDwcHh4eDMOgNeDxePD2pX6pd+mD1LjaEX1D3h2dTgdmB4DRQqGAVdRoNHAGw9uEXNaGvj11i8ETAF4o4XAYWwy7rFarpVKpWCwWDocRSiiVTaGig0gKhGI0g8HANE242RAYpdmeWk7VAKMwzPp8vlgsRssSjs7q3C7UshSLA0aFgtb5B62ImlgF6IvFIph4q9WilO/8egl7OcMdg1X1oC1HP1E0ADkJ0TEIeBTBqmQf5I9AYBROKvAM684SNCLciO+y8jnzPW9ndXImSTTyaddOmjQnFIQLz5hEIrGxsbGzs7Ozs5NOp8PhMMBoJBKB4xQYxMrKCuSH5B1hsISv9FycqUnCY57nehSMChuoDa66trYWiUTW19d3dnY+fvz44cOHvb299fX1aDQK65uKZoTO4PVODqR9NRJS5Ici7dvEIadQKFxdXaHeLzLmdrtdvnEoOIZvFhWMkpiERgHQClqNaDTq9/uhGKOh0geDneL4mPli4EAW0ArCplwuw/QMNwMyf5NalASM3U532BTS5hUW/AJvIae0Xq8HnJfNZpPJZDKZzGQy6+vr6XQaz06Ge/AuKJBIlVuv10ejkWEYkJQ8Vwm9aPLJIe1sMBg0DCMQCFDZYbunEFbIMzwEarUajMVIVyeEgOh1uVzk/sS1RFJTBjtsqz/RYwKRgEuvrKxwMxdpofB+V1ZW/H6/aZo+nw/PooJgUh8uIH+QELm00QiJ5nK58/Pz4+Pjm5ubarVKhz0xq0lVl5yw1oBpmuTrDCSKM57f749EIuFwGOpnPj98zfO3xkUYH4PkWtDpdAgVwN7dbDYBSbHpuEXesPdne+oWI9jNt1ir1apUKvl8HgX80un0xsZGJpMBMKV81Vhdw+EQZ1SgZ9TrmU6nUHutrq5Knnum5ftHYHR1dTUQCJim6fV6Sdc7/3P9QlogMAoyZ+3R9KXqMXZ/f4/dks/nYTZqt9sSGDV12RmcybCchfEv55Vwc4FTCIxc0Wg0EolEIhG4KgOhwseIK/lpucNJmQ5tgKTQTGCroEA8/HLoWQwWIM8D1YVuW2qn1GSKT/4lf2ouraWmSIpEIhG4mqVSKcit9fX1VCpFBr7RaBQIBDweD5g4gDtUVr1eTzJ3Ehh1sfhTc9aPQsUodm/NYOlL1SXEW6MGJSV6MBjc3Nw8ODg4OjpCfvtMJgOnMbps+liG2ndypkePCvQBRE7b9MpgLy4UCghY/P79+9nZGWpbQFFH50CDeelwhMQHA/nx8PBAeY5CodD6+vru7i6U4tFo1OPxcF7kgKdp9arKnvF4DM1iPp+nLMjlcrnRaHQ6HRxQu90uYCht8BcHMcBbGCcwPc6ZwWAwmUxub29j8U+n05WVlUgkwicKwH04HNJxGjsa+khVMwp+BWsPxfq4XK5AIACrpRYBSLMKWUuxz3Cf5Zb6paWlqVIHThIfNJP8zGAnaIhRkxYARGBUWB7JQohAIOCQB8qcPakuDh7la1VYJQmJsz08PHS7XR6JcXp6ent722q1xuMxrIKGZXCQ5plePS0DNAjfCRxaAoFAMpnc3Nzc2tqi0z4HlCofoJ/UrS3NaqfTubu7Ozs7Q31BGLtxwIPkJbODg8j7QcJ5Buu/3W4XCgUcXeLxOETMx48fwawSiQQXW7TFsNo7nQ7M9PDrg31/OuuWTQp7gFG4h/r9fintBicOZxeHFgiMahcErWb1enj7AoyCrUMa8WvMWZp/MLieklkIIbCYIpEIQTHoD6B1DwaDPosIjIpZrmda+XXJSIfVBiRaq9VKpdLd3R0pSDqdDjQHFE9Hjah+LQ4PIn1wuMwOJeAUC1XoxsbG5uYmznbJZDIWiwWDQRzaDMMYj8dwsaLshtg/OPNJYFTM8hrpNT1pw0gShQseSQKZ1mleanltbS0ej29vb3/48OHjx4+7u7vr6+vhcFiNrtDiA2eM9U5E2oni+N4Zfo3H41arBev86enpyckJDIjtdhsXkNpGC3Soa364xQGD/P8QuHZ4eLi9vQ0kKljcFbXjME6DHbSEZYDrdDpQkFxcXJyenl5cXOTz+UqlArsnUA7ta96a8xbQjoHfor2dEhURujIMIxKJlEolaJcBtsD0DMNAPD43+JD9XVgeUzw8hYNRDABP53K5pBisOYnAE6FbIQQGzzWyxiwJBYNKbfIXyjuiMaMdMpRNWHE7XCApF7UjXxy2wOeBntSw/JvxjPf391irsM6fnZ1dXFzA8oBG8JbBQtVXqd1iuAYaDWyxvb29/f393d3dVCqlFrRTh82BI6kweOPosd1uF4vFy8vLb9++/f3335eXl3RMNZmHpZjdOD8Iy7S3YyZx4iJY4vf7C4UCML0QAkepUCgEdiFFKWG01CCsi4JxNgoZpIMQbTHt6YhGu2gwFLQQYFTiGubsaVLoQBIi4GBjKhQKd3d3cBczTRMHdJMdy+aZfTpvmaZJThiUIwaCKhaLZTIZ0ghmMpl4PB6NRkOhkM/ngzpQSnWr0nQ69fv9oVAIYUxQ48N1DHpWMlssLS1BUIGPI1ZAYvc/OPMgPvNidpdCGRwOh1GZfduijY2NZDKJfBxut5v4wsrKSiAQcClJBDFmmNhoHvgusjtyqCQxIC51VFbr0AKNGS7e6XQaB9YPHz4AieK8zmPFyAIoIarFETaLRupbUGdP2E+gMesnCgPc3d3d5eXlycnJyckJmQ6lTqUPdqMyLRsfApUIhu7t7R8Bd7kAACAASURBVG1ubiYSCQpZwy0YjEtJK0GywZh1vKNMZ51Op1qtFgoFEvDX19flcpk8i6RVLRhHstvp2pk0GUlzK/2ErccBZavVuru7416ShmGk02mv1ws+AMck2vJ2U6rODL0+GrZqF9YSXcNnVWrfjsNzETA/e1EbESxfnnqBy8ps9aheYKHItHQZpqW0prkdDAbVavX6+vrs7Oz09PTq6qpcLvd6Pel2k+VBs+uC/hqGsba2Fo1GEWZwdHR0cHCwvb0NqxrskKYVTipsdq7JDhs024B68KsGhs7lcsfHx1+/fj05OcnlcsjrInSKLdpiQocxnkR82HwvTGYzfHe73Uqlwr0/J5NJJpMJBAKGYSD+iZIxqdktqFkHuUkPq/XElZ56oejXg1GJk4pZbaJg0IEmfTKZAImWy2WklwMYHQ6HhmHAgkAvbB4eRIYYwTJcTK10g8iSEI/Hkfx8Y2MDblXxeByJ+vx+P6UhlJ5FejosEbB7r9cLfSHM30izAs+tWCwGYzfEFcxSpKOlafnB/SM1Jdj8G4aB2FsY5eFMBrUosHgymQyFQtx8SbS8vOz3++moR9mAI5EI4jFJFSTJSzuBITELh0d2kExSg9D0wP81HA4nk8mNjQ0kctqzIpaARDnbVbUgC7uxF5mk6VKxlN3CRoDz1dXV9+/fv337dnV1VSgU2u225BTFpaDatSrtVldXY7HY7u7u0dERTiObm5uRSIQnT1BHa+j8m/nRBbk+2u02DDiFQiGXy2Wz2evra4oFsbMV8C6et8ZUEUsrmf/Lb4Fi6fb21mTmF9M0k8kkNguC8Z2Tkj5pbHNeTPzZgePx1yEUdy91MUjz47BmnMfGSfurYE/6PED8siQtMGNWp4u4wNvb29PT069fv56fn+dyuWq1qvV/c95inKD/29zcPDw8/PDhA5ygoBOVcotqF7zBzFzGrE4UyQQRpXR3d3d7e3t9fY3aNwgA4sPg2lw7VMoHI13gQOoFdmKo3+/f3d0JK1MYvGmBR+FQi2QXPp9PDbqff8s8ujLnaecn068HoyBpu3KZ5JpN8wkkihDUu7s7xNEj6IxuhBeRYWOd0fYOTYBpWX8IiUIhmkqlNjc3EayzsbEB12Okwpayf6lPpCXCatDM+3y+aDSaTCaR8y8ej4Pjezwe4Gw4yEvtv9KSQigPtKHb29tw6yGH63A4DN2tFomaVv4dr9cLjTJ2F8JBstksUrRQZg1+sHZgbc5bS3rLKhORvqEDBka1vr4O3wMQNL5cJ8rtj4IBDj6Yxdzei0nauZLelGGpbWjXQyd6fX19cnLy7du34+NjOLFxoxtfCQ7KFf6N2+0GEv3jjz++fPlyeHi4s7OTSCQk9wxJNHJ8o5U60+kUydiLxSJg6M3NDTI3IfSn2+1qg76l0YpZc6d2SKoQlaZRMKymAmi60jRNuNYhtzlMfrg9Go2aponDG6xAWo43D9hy3svai7njpt1l0gzMOQZ+yzPwKB+bOgxh/45+LeFhVeU0kGixWERcIM57tVoNbovSDrWbKHWLCSGCweD6+vqHDx/+/PNPmJ5SqVQoFOLnPbVlPnuEFylftbD8sKvVarFYzGazl5eXV1dX2GXVarXT6UgD0+qnOOSYfw5VkpaT2hFoOByWy2Uk0oFbJ2yw6XQaZzxEnsAc8bxhGLPnN7uhLtSaFIsDRgXjZRIe5YvbNM3RaIQUx+RhCfdktTUx9wqj9ycpwJC5Y3Nzc3d3d3d3d29vb2trC5aFQCCA0Da+men0ZtcLfSaoDRAMYDedTmGpJy9M2MuElTJNAlVzcn+Hwaj7EIkhotFoOp3e3d09ODjY29uDUR5RSryqtZaDu6zUVzjbwboHPBqLxUKhkN/vv729xYtD/mRn+Ehd2G0hOwhCr0YaHhmM1tfXt7a2UOcTHsB4Rn4kxTNy7wi1/Xd6KaL9zt81HC5LpdL19TX5id7c3LRaLbqRJ7cXs4uB61E4GhOWozCSJ/z5559fvnzZ2dmJx+Ner9eY9TmmzypoNlm6aRoPoeerq6uLi4vLy8ubmxtE8lFQgqGE3PEzD9GjIEmVgtJPnLUS/nBZ2TlwAXm2TSaTWq2GOBUctuGF5vV6EQ2tPX6T5CO+Tf9OlYxULitDyDw7iCNR7fXECTk3U1mKeovdqlCvoa65yZXPpN3wfoRFvx5hkDxnGQQrSmpfXV2dn5+fnZ1dXl4Wi0W6C89ozirXqUGXrnI17gqHw9CJfvny5c8//zw4OEABETj7mrNOYnyE9JmIF481TRMJ+W9vb8mD/PLyEnl1eFYNrZzi9OgWm5P4UPkMmBb0n1gl79vt9nA4nFrJQYUQ0+k0FosJSzWGLSYtJ2nT2W0f1yxp1/8PPulr0AKBUc7uTeapI4HR4XBIuUWRg5fKftI1JlPFP4pHDVaAh1yGDcOAGxmst3AjoxxG8JrC7arZy5wlYb179SRKT41F5nK5YJ2nQAG+/6fTabfblW78kdnmw6CagdAEp9Np+M8hh2g6nY5EIqjRzN8FD/sFuawyVPgXOwotQ6eCir3wmqUUynDSpeiN6Wxs7KNvUCKaN0qLbVpZyqETjUajgKGoOL+1tQW7PCZfdbdQX6X6Ht/p2cRfrqnY6LHsgeogb66vr5HxhK4xrHRs2l1PMJGHbyPtdjwe39raOjo6+vLly8ePH2E6JIWEGrSkHbbBcDP9xENA4HiXz+fJgAPC1qDhTVllaqlxhxlT/+XTogp1wTYI/wYzQyK83+9XKpXr6+vV1VVI/VgsBsgyZTntiWDkMRnkJXRCHNKlI+3I+Zj5gGlfk1LZYKhXwhymcnTkW5imTpURHGXyD9PZNCYuy1uUgu7V8VOzpk5f+PNJAtD0/Xg8bjQayOJ0cnJycXFxd3cnaRYpabdWwBHYokM7crBQ2uYvX758+vTp4OBgc3MTiagFWx7S2zGU4xPpOGg8sDzc3t5SvP/FxQX8dugaXvKegAHpm6SX4rDp5vlJmmHOFmg7IEsDrry/vwf6hypqPB6vr68jH5NUBQqEBDXqMExWsUVYu4xW5huSU4sCRiVAQ/MrsYnpdDocDhG3VCwW4YCorbdBOgbOnjjRiqHrCfgi8TWyMMDHZX9/H5gMiX5civO+uoUk5ghexhUhtEOktbKyshIMBsH1SA+ByHSYHqBWITHpYv6LzqCNeuRzbhgGlQok78mtrS1gtY2NjXg8zgsH00PxGaamTCvilabI5XIhnwv5j8IVdX19HVkDUV2GZ/6/v7+nFMQAEFo3ee3zupjzg8fjgasDvqFybfF4PJPJbG5ukvtBJBLhZhG+6ji3FbNVv/kCEDo+9U5akuZW2uPSO+31epVK5erq6uvXr9+/f7+4uODWeZC0sCV0CNYsaRzX1taSyeTe3h6SJ3z69Gl3dzcej0t2Qwl4UQvcfsK3sxDi4eFByjwFDRMVU9FOhdqU+pPdjfyp1S9pNiTpKJj1iSaKbiT/UfgbNJvN9fX1tbU1JFdSkxcSL5Xmyu4Bn7pZcAvk6/LyMvVOGlaCGnZTwQcp2KqzAxO007l6aXl5meKgoaXDcVerFuWMkRp/0lO/IDmLhk6nk8/nKe4HQUsOy1WSOPxAhad2uVw49lOyvM+fP+OwR0hUHZjKV2kCpZ8QCXR9fQ13gvPz82w2W6lU+GFPeyN9o0pevlMctpvK+bU9qi3wrvHlYDAol8tCCHi+NhqNcDgM0wQKgarD48zz0S0vbJac82L4VfTrwajEEfgqVx2NTdPknljaSsR06HEOYDLYeZdf6fF4UJN6a2sLES2Hh4cIrQ0Gg1JuXjG7gsWsdwEfvMHO2dLeUMeGA6XL5QKiAkGniKxpqMpAjGB+HictaGGBUZQJ5mrgjY2NRCIRCoWQqYrOZPReSLrzh6LNxqW4YRhwaUAB4mAwmEqlKNc36h23223kuqLyVEheCFJdFOiD9D0QJ3JsISMsvG+5RhbJuZAmlucusJsxLqQNVhNB2Kzed3ImPml0buQbhK4EEs1msycnJ3///ff3799vb28bjQZFoFNTyFqPu7Q7VLDX5Ha7w+Hw1tbW58+f//jjj6Ojo62trWg0qjpp0VtWJcHUKuRN1jTTNEejEbzuLi8vv3///v3799PTUxQrIpMLf3aelVM61FFHqnjjckhdcg4iiv+k6l+5nz0U0sg32Wq1kOg+EolMp9NKpaKt/04BTxwRSk7hnNRBqqReT/pRnO1dsz4Y0gyogpmvPWckocpyzuJoGHaMXSgnlnme92VJXflE/BukFL26uvrnn3/++9//np+fw6mRBBkuk4xg0pTylsHwEbH06dOnL1++HB0d7ezspFIpnrNZzM6Musi5kpWWE4JGqtVqLpc7OTn5+vXrt2/fYC0hbz2u9KGFIUkuLdOmt6muKzvwJxR5Sl/yZaZuByHEcDis1WpIdI8STYlEYnl5udVqISBb2j54BTyhmHb+VeCkHfCce/Cn0a8Ho0J3ALJ78ZPJBG4icBiFptCuEvGjc01glL4xDMPr9SaTyd3dXcBQpBtERBHhFZ4PRbAVLNjuUsGoypIkSIcvgXWgqINCFM6jyN85nU6RLEYSV49OsgMZVshRLBbb3t7++PHj0dFROp1GvgnBindTj5PZ+vIcEGt3prBM9vAESCQSCIGs1+uNRgPJrZrNJiApVQSgClX9fh/5O7TbDPoJOANA80qlgQE3EQKMclmIW4L3KiZZlfH0Bvn80GcJ/WM8dMsvkTpvi4gVqlCDphH1fmq1Wi6XQ2LO09PTy8vLRqNB7VBuFFNRYXI5BJxKvSCwN51O7+3tffz48fPnz9CJUpEt6e3zMXOspuKMh4cHJLhG5qnj42OE9NbrdWrHUEo8UDobqSN1DHSBnSh1II6xcDttJf49t60DiWI/YrfG4/Hl5WUcHaV4SgKy3LtGOIJRZ3lJt0ytFPRIjIrcqFMr4SIZ0CQxrxqvpOmy65q/Gpo3skFD1phWoQRKcqLlS7Qsf5XU5/2aTHPBl3G/30fp+bOzs+Pj4+Pj41wuR3dxfQ1n+PiV71aSFNCh0Bb79OnTH3/8sbe3R36ifIR2Ji8+bHoFWAk4oIItHB8fw0+0WCwSDDAMg0zzXBZrfXiEzU6na7QL9dF3ajLprH5Po5pOp6PRCIV2kXS8Wq16PB6AVNRe4vcSr3MGo85bjFa4w/h/CS0EGFVJOqzQZ6qnV6lUKpVKo9FAdTKyEdCV5uypTm2fL1YihM9jF6ESyfb2djKZ9Pv9dA22BOduZMBVX7AErKXPU1YXm5iFsKTsyspKOBzm9egQFQEAJz2p+ixzkmnlQkP6aCS3X19f54+MQWJsnPkaivOZmBUMXATiSmDrYDCISlSxWKxlEQr4QuyRohSCEIGHZMen3QgLLGAojPIokQXcCdAZiURCoRBUpCjZSlVbJbukOQs4+Evkf/mTcp717FfwLyRJPAgL8ZNIAztGAZjz8/ObmxtU+6QWDJ1XomBKEfwr6f8gJlFg6eDgYH9/f3t7O51Ok050YtWutBu2UFY1fppaOVCpQunV1VWpVJJiKylqRBJ1zruYCxWtgPlB4pAL31BucCEEspcYhtHv91Flzc45SmpTK4mfRFNWkAamEkBSuoDeLxfPtAa0PUozLPFk7VBVtQUGBr0AquOQn98CkoQ/MEuQJkCi5HDJgwKFFRcolFXHZ0zaYjAtUj7Ro6Oj3d3djY0Nn8+HayBBjNlTmTpm2g7kA+ByucbjMTJPocDS2dlZPp9vNBp8SUBiSsN2QJbSRD2a4+IHiXTqJtNx3t/ft1otwzAGg8Hq6irOgWowjOoXp30E6cNboUUBo1oYR7YY+pJcK6rVarVabTab/GLwCy1P57tFOnjxHmFB3t7ePjg4QOxOLBZTa/AYSk67eR6KXybtCru15XK5fD4f5LRpmnAxyeVyzwY9KkMxTXM0GpGhHKYBVa+g7mFDIW37QplzYcECw4ooCofDpBAlbSgs9b1er9/vozgq5JCklIWd1O12Q3kMGz2ycweDwXA4zGEoXA44t1KnRZWp/GH59Y/yhXdyIHWeORJqt9v5fP709BTVPnO5XKvVkowYYnZfc2spfpUMi6hvubGxcXBw8OnTJ1jnJT9RMSu5XbOVujhkpKBD/ATTITwKvn//fn5+XigUms2mtiYcRmgqde3pS77SOD17tu2IhD2PdTBNk8oa4d/BYNBoNIbDIYKHBoMBzq4kuSXjCTVlhwjnJFQNgOsOmMCjWEHi/3xu+U/S+nmGCDdNEypbgFGpwqSwiVj9QXLAberwxCynki64v7+vVCrn5+ffv38/Pj4+Ozuz8xO14/y8IxBKfa6vr/MCIqlUipAob1Ba6mprtAfpJ8TVIdPw8fHxzc1NuVzmfqJ2zrvq/IhZnsOn6/XIYKkk8C+p+ZEzZDweLy8vw/6p5nZ96iC1V77sgnxBWggwarfBDKYsAcG7AvWKJO2g5NgnGHOXkKjDLkL4zs7Ozu7uLrI4kYKQyyFymcdP2g3AxyDsmZ0xm0iVToHCMnm4XC6/37+ysjKZTFqtVjabRRAVhTo+lY2algrWZUUfCyt4tlqtIjvBo4vYZeWAlMQ/f3b+vfqKDcNAKDGlfwqHw1AzkLfoaDQiRk9GMdVX1WUFzlPcktfrJc9RfIZGFhiUD4avDcHWjPrgKtt6JXzwbyCaPb5U6CdyYvv+/fs///wDhzApMScMFMZsZiVpNUp4d3V1NZFIIMXMp0+f9vf34/E4r0MoZvcgXwlcDJBiQ1jqCmwfmA5RGiqbzdbrdTUHKte88q3BxbNQ0lFNdAWmf5xcVoSyFAYkLWzTNFGXeDAYUBqa6XQK5sy1NQbTStLT/cjITcsoyQ0y2svsbpeeRZ1e6oW4irr9HcY2sUgdG3dpdR7nj9Oj8GLKsgiBcN47Pj7+z3/+g9LzzWZTAkBYwPzReEcw1vHrl5aWIpHIzs7O58+fP3/+fHBwkEwmVT9R8sukLyXoTBeY7ITT6/VqtRrC5+GNXSqVoD7kFxNnoJa1jFrlFS/+dqQNrgpK4iSm5ZiEgvXCckFR5Y54iVVkJ5R/Lf16MKruVXptkn4Onsvkw6QmgScJ4bD/ieeSsQCoyOfzUY0lpHlPJBKSqVraHirksns6BySqtkN7g7vBra6uIuwmlUoh5We326XpotABtUdOnKEAwPHLUCemUqnUarVWq8XPssasrURtij++MUsYmIogQfBAgJ3d5/PBYWBsET4TBlU96PnMYyQESaEoxQceZaIlzgqd55Cu5wxOenfv5Ex8eklA4ktyu7y6ukJSpIuLi2KxSMoP7pCjzj9XoohZMAoxifwYnz9/Pjw8XF9fD4VCUiUhaekas5pL6RphMSXoRC8uLlDIG4G91CZ3vBMWiJGWiqH485jKWfrFiXdBz6hFZjgKEh8gokngLE5ia2qn848QRg86XmIv8wtInHNfVWP2FKFlGpw7iTm2vEoul4v81Ckhq3qN+ClS34HhG4okFULU6/VcLnd2dvbt2zckfCADPS1XU7FZ8/Vp6I4ZHo8nFoshXdrR0dHm5mY4HJbOe4JJDXoF0jqUJNRkMun3+7AKXl5eXlxcXF1d3d7e8uHxtFN2/hKGcrwUCvN/cZI6ms4mrOSrF5KOsxeDOTNowYMDOcijxZRTvx6McuJrxWDgEoQga7gP8uTDwl63Ku0Zes2Slz05XCOlUSaTicViEhJFjzyQRVo08z+aOnJ+O5YdtPcGO8siIxJyElUqlfF4XKvVgMilvPEO3TnPGBTP7Xa71WqpSiN+r/Mql5CZyZLG02VclYXPsJYSN+HkAP6kn8gIYpdVmw+GGJ80YOlZpNvVOVzMvb34ZLBQA2El3kMAEMxwcLskJIpzi2mdJMWsvoHeIKmpSFYhkdP+/j5KEe7t7a2vr0ciEbfbTZepAtuwAYj8dSORUy6XOz09PT4+vri4KJVK3LdVMMc7MYuNeOOCHfNMxTmMxsPXtmQFttuV5ixxLSP5rE+tbAaCrXDXrEc1n1I+M7QN+UOpsvN5BCd+eLEjhcjq6irWA4AgmMZwOIRXD7eVmwyhSiRxJ+IDcOCh0yxiLgmcPTw8kOhBBhKkqEsmk9FoFPYrtSPhyDCfStrHsZtqvmJJpT0cDpGeE6Hop6en2WyWu4oippMWifpEhpVylXdtGAZ0ooeHh/ATXV9fj0ajOOxBQklLhW4UDBGiRy5np9Npt9tFzQv4iUKJy5EolBoqb+ddCPYiqDvpMnJZIccV1d4itSBmtxjfKSS/+BuBQZILPiSe4yQUHw/tpL3guloEWiwwSpsH/3Iwen9/T0HWKFXHb+SrnL82O54ofYlCLCj4iYKQSPBOF/AlZSj06HPR2PgH/qs0MM7Z6SeXyxUMBjOZzMHBQb/fh4G7Wq0iBwe/bB5JoL0Arirw1Oz1ehyMSjonQwfRVLnIR0LfSJMmNUW71Hn8P0gkqPiA7V6l9ifpVf5OTOHnkLqQut3u7e0t6s4TsOMOYbz+ipgVhMTZseTIUxNZe1FO7MOHDyj4mclkuMJGwrV8kIZ9Zg/QYDAolUpnZ2f//PMPnNikQt4kVLhRW8wG3EiiTuVjeHbSw8HthIc2clM7nx+OPqHdRCAgXDCp/hlBTC1nk2CEyl74r0JhYhI9aaegBt7W1pZhGCgp2Wq1YMoko8d4PEZNPph0Op1Ov9+XvEslDSWHPuQ4gYpTKF+MoseUX9kwDHivolmXlTU5EAhEo9FUKrW+vh4Oh1dXV3/kYZ9HBIOkLyXrAej+/v7u7u78/ByB8ycnJ7e3tzzGTl0D6i4zWJkYw/L7j8ViSCmKXGkbGxvhcFhKCGgoZjRV3qmLZzweV6vV8/Pzf/75B97Y+XxeigvkzRrMdYS+oQWg5u2nFqCGp1hYaLtxOHGxNPL8iYgorwJseqPRiIfc8aHaSRP1zXIxKn34LYXOYoFREOf+hmW86/f70Nh1Oh0tGKV7pZ35KBg1DAO1WDY3N5HmPRqNqpWpDV3Q0pNWAxc22hv5PjQsLQi/wOv1ptPpw8NDMETTNOE+P5lNAA7W+eh4VBY2nU7H4zGFC6AwpmACVT0oSzMpZrcQdcHPFdJlP5mIpfJ/JenrfLvEEfhPrzHgfwnd399D5PznP//573//e3l5idAEk9WWpBnmSkTeiKHUn/R6vRsbGx8/fvzy5cuHDx8ODg42NjYikQjhBg6wtHuTvtS+XzgVAIyenp6Wy2XgYL7AuMAzLHs99cudLA2d+5rLStBLqXODwaDf7ydICoUxSU2++wiDkozs9XrIYlitVvETfxwu1Ak0a5nqdLY2lcSBaYPYGUwdaMoCKGH2XV5ejkQiW1tbrVar1+tNp1NSi5pWUEs+n8/lcvl8/u7uDphbeonScwlm70KnbrebFwre3NzEoQUFctDm/f29aZrcQ53KHQOM8oVk2ugCX5zUjSAs9y2gKPqy1+vlcrn/+7//+9///d+Tk5N8Pg9wz28kh0uD2YjxEzFPeq1QXSN2HmaHw8PDnZ0du8Bfvs4lYSpsDHq9Xu/u7u7k5OQ///nPt2/feM0L7TLjO5o3y3mIOeuH7bJSeuMoQtlXOCSlyFfu0/lgEeUdw0mv0+lQZIuUJJsGSfZ6U2esk+bNnNWbCHt6u2JoEcGoRKZpjsdjvGCK+NaCUXqv/HvtOpAgFLJRpFKpTCaTTCaDwaA2rEF71pyT+BJ5FIkKts34NR6PJx6Pw4KPZBDw8lQ7eh4HRLP9fh/B7IFAgA6F2qeQ0DOX2ZIAM5Qz8S8kaTDzI1G6/tWG9q8gl1WsmZ+1UBnv/Pz869ev//zzDwqTgBDohs+02LgrlTmbgY8QhtfrTaVS+/v7f/31119//XVwcJDJZILBIC+1xZGfqUvqZM56d/G3jxjzYrF4fX19eXmZz+f5M7pYeVJaY7Rl1B3Kn4XbYVAQDrq6WCwWi8Wi0WgwGPT5fB6PB2F5sClDUYqOyFYIfR7Ffbfb7Wq1WigUhBAodSYJcr6ppQ0ubIwegm0K3oIWJD1KU6uagBDC7XajTm8ymURo4/39vWEYiEdcWloiJ+NQKOR2u6fTab/fl/ITScMWOkmBN+LxeEKhENbMhw8f9vb2ksmkz+dzuVyYvfF4bFie7sZs2WGqDMKjZ+xKabw4SfMswT7QeDwul8uXl5d///33f/7zn/Pzc7qLUgdOWdwM3c6Xk2kZmoUQKysrfr8f0/Xnn3/+8ccfBwcHsM7zoKUJq+zgUkLHBFtgtK9p2NPptNVqFYvFi4sLuO6QohH6aVpmdsceQzmECCu9FP2LoJFIJBKJROLxeDweRyJqOvK5LSJeBD6DkAbsI5xVBoMBYqyr1SryWK+srPAQF3PWEMGZmPadSsxHK4J/D1o4MGoqmgmAUbxjmGDUo8Y8r9PuteF0GwqFotEouDwyUE6VEsw/892rk2Ca5vLyciAQmEwm8PvJZrNwJ5DUG/OQ3XTRdkJ2T+xACbdJoHOeZ9GiPc6Jnjp4tQuHyyRkLwnRJyHRd/px4o5ZQgjKHZjNZvP5fLlclsAEuVXxL/krIy0F/9Ln8yWTyZ2dnaOjI+hstra2gsEgfuX5fU3F+KXuPkNxHTFNs91uo1gD8uPyX2HR4zKPi3beBe2pqZXIndYndHWwBScYRaPRQCCAVGWktsEHBzCKhJ0Ao4FAAHjO6/UigcaEZY9X9xd3UZVkP38o+pLP6lOJ43XyJl9bWwsGg5JDIcjr9U6n08FggBzMpVJJ67tJwzOZ0VN6RlicQ6FQLBZLpVIbGxuZTIb7a4HTSucojofogzFrfnnGPDyJpC6AmLkeYTQalUqlXC53e3t7d3dXq9X448MVgYtRvj6FJftM5q4NJAqLIiVy2t7ejsVi5J9Ki8puMfB3TWSyM2G73W40GqjV12q1uMkby35qpf1W4Th9oO02ZRGE+NXlcnk8nkAggDeO+OBkMoki2H6/3+v1ZsSvJwAAIABJREFUQgdPyngVjBIS5WCUNmm5XG40GrDoUjAujU0VUnyi+K/q978TEhULCEaFMsWmaT48PMBFnbzUJclEa1ELU7RvlwgleeAh5Pf7PR4PFhy0LHSS47YJ4mXPZrhasmuKczfsHBozljvPjvsjy5RrRqGBHo/HvEaRtGEcIOmTpsV5tCoy0Lbg8Ja1t0gI9Z1+GkFS4jOOVdCJXlxc5PP5Tqej7m4tQiKpacwq6ZeXl/1+P5Aoyont7u6m02lCooLtKTErrtTFxpcWyciHhweUS0G2Y+TdlJ6RPvA2DRaXyWUwt90bhkEnZGhDE4lEKpWKx+OJRCIej4dCISBRqEXJakxmeg4dqHQZgGm3200kEpFIBFUhCoUCqoeg4jylUePPItk3ORFvpMd5VQGpbR913bxeL/K4YU7sWnAYnmEYcHggNfOcxhy+PDiYk179K5G2IwKjQojJZIJcaUhuf3NzU6/X1brnzjBIan9pacnn8yUSCUQsHR4e7u7ubmxsxONxFabzXngjtAvoGn4vIuir1WqpVKrVamqpRR7ioyJRdQNKDicul2t1dRU2h1gslk6n19fX0+l0MpnEBoFaFGZ6bDGc91QzPZ33AExhxcWGjcVid3d3MGA2m01I1dFoxBPg0Dj5IWeqC7EVsxvw5yywn0aLCEZVmkwm8Ai2S33MF5lKxO5NxYiPQ3AsFqMa5fDBEopJ2lCi+4Wie/sRMpTQXXUM+AAHMpQaQqFLXhCFT4UdUrQjiCvKWoCTnMOJkw9YuzGcp8Vw9MZ7tAWHyaef5nlBv9N+XnwyFUs3AoC+f/9+cnKiJrcXShUlY1adoK4f5BPd39//+PEjkttnMplAICCNhG50sQpqdmuJf490TrVarVgsQsnU6/UkjqQKG94vj6/HB8mDDWAa0jGdTqdSKShEcQQlTkWAyaVLH2Gy6CV8A2EJGYlUcUWLAEnhlG/O5vShOefogb8C80XP5M8g1yxpB4MxT22qotA1U5ZhYH7OKXFFdc28EtECltT2BtPLIrk9imciLrBarUrAbjpbtlQ9LLlmU4qipu7m5ubR0dGnT5+QKC0YDKpeLjTbjyInCQqjGnCxWCwUCqVSSVuBdqoEzlNTUr/09ukCj8cTiUSSySRg6MbGBhIjxONxIFGopXhGBWw3OnqRUxCI2yKGw2Gn00kmk6lU6u7uDk9xd3cHSNputxE7yAfMAxAlmE6vwPmp+bt7i/QGwKhpne/hM6QtvOYARg1GfDmiGjsqRsI6j/I8km2FiytaItQpXfki7JhLEak1CZUi7s/r9cJxHu7SaoLipxJtJIB+NYUWH4N2hFr07EA/Mmnz4Mt3oLloxGUe1c9E1aKrq6tisdjtdrWaUbqd/8Q3JhGS8u7v73/+/Pnjx4/b29uRSETVlnEBaScsSQPBv0SxvnK5XCgU8vm8mpBfsBSnJE44QDFmkyJLHmzLy8vBYHBjY+Po6GhnZ2djYyOZTMJ0A0uIx+NRRRd/Fj4MPAKEKHhpOByGexwUQul0OpFI3N7eApWaVr5DPgnEPBdQBHLMPbFJjK9Kd7Ud0nVBl2zXlB2RiJHe9cuS2qZ26WJOXC4XDnvX19fHx8dfv35FMTOpfqYxa6CnFqQPnJaWlrBEDw4ODg8PYZ2Xkgmoy1IaJ61etQv4/tZqtUKhcHt7WyqV1EArCV9KPUrdmUrOVK/Xm0gkdnd3d3d3t7e3Nzc3U6lUNBqFqyi2mDFb4IY3aFjVIqBNn1rJMYRlwR+NRtBzkWsNgqKKxSKsrFJ2XrV9u8kXj63kN0qLBUa1rF8IATAqFYRUb8RnQ6c4IU5B38M9CLYq2Ls9Hg8p4alZFdYYr2yKmqcLRP/5fD7E/cGZpt/vT5S08PigbU3LsrGLUABJLXCnjlP68OL0vKn+nbbo2yWSFtJLRHKMXq9XqVSQUvTk5OT6+rpYLELHT1mQtCGDXIZhh3Ix4/F4ksnk9vb2/v7+wcHB9vZ2Mpn0er0G82gk7YLLMSe5nTxG7GCpVLq9vS0UCtVqleefkh6fejSU6kQ0PxISRfbKvb29Dx8+7O/vIyLE5/PBy1NN/C50x1eQa7YOiGEYsObDGA1PADBASEoEboLBqsaWR9nIizNGDiJN5pRJRwvKFaBWaHMYqt0FpOiiohsPDw/UF8XGcQ20Hdj6aehc+15IrdBoNLLZLHSiQKL1en04HBqGgSS72s3FW1YDg1wuVywWQ4GY3d3dra0tJEOkrEnGrN5HOzPqsuFrGOc9RNrBkwRZFLiznHCcZOqRLKJcDxUOhzOZzO7u7tHREbhEJpPBLuO1FUzmTa4O27AUVYZSKhL5oUBItgBJjWRhNFH9fl99j+pG5rvPYSe+dVosMApSJxpc4N4i1XYM4nxB+lJ9wcgqR0XMUb4cC1EazDyQ68XRj4RH+TBILQrn0XA43Gw2Edf1I2pRweYZfi3A/dI1EuNYNBhK977j0UUgyUwMGgwGlUqlUChcX1+fn5+fnJxcXl4Wi8VWq4WMPDgTSiJEOmGaswo8wzBWV1cjkcj6+vrh4eFff/0FnSjVUTNnk7lwu6RWCWHaeECapkk2eoSDVKtVSEpeq52PmVDv1EpaRGKSgye3242wcZSJgoPB1tZWIpFAvJHBbK98NsTcrImed3l52efz0YE8ZBHif+EhR5WBpROFxF2FDuT9yO6T2DVHourhZMrIGTSrvahfarGvOhJ6alWP9ZPZDsajbrH7+/t6vV4ul29vb1GiFsnt6/V6v9/HWgXIluJpJJ0Ltgw1jkROqVRqd3f3jz/++PTp087ODvLPoDW+YYVlAeDKIP52+GqR3lq32200GqVSqVAoFIvFarXa7XYfHh7IK5cf57Qzgx6h6qbxY4vF4/FMJrO9vX1wcLC/v7+1tZVOp1G2QD3pSe9UGrN29+F7AAzumQqLRCgUovLUtVoNzyVY4mFum6WWaSn+rkhULCYYlQhMAadVIFEHdZ3KC7gegn8P7TpSiwGSwv+dt8ADmH4+uLE7ZCOMiSdnDgQCyMAnZdd7lFQBjCM1Qhm06Fad+VeaGe0B8bU7fafnkXY/mlaeS0lSItnh169fv337dn5+nsvlULsBhx/DMGjfkY1MQqIIruedrq2tpVIpaBNB+/v7iUSCV7U1FZdBtDBV8mZIj8N/gjcYdDbQjHIzvZqBhXcBvQ4JVI4hVlZWkN39wKK9vT3kPCaFJRfDxg+7BkFM0rEWkJTAKBxSKTZL2noqTCdJ+ezxSE1RX7xT/MvhAqX9f+pUaIdKvVDCB94X/Sv55v5MAaE9HUnKdSFEp9MBDD09PT0/P4cDTKPRIFdFg+UWoLu4sCMwSr+urKzE4/GtrS3UWPrw4YO2pi4deHhTfDvYbS76HjnFa7VaqVS6u7ujAKbRaCQ17rBP1ZkxDCMYDAKDHhwcwDoPhSgUljxUV9umNHiH8wxdgH0EGyYcYyKRCKwciJOrVCqdTgcx2VMrWYSUS1GL4O0G8HbpDYBRMSvVHAwxT3o3LpcL8XEot0B1TXinwsZz4OcvAul5kfMFSbD9fj8WN6XnkMZpBxS0aI97TcEpWzuSX3I4+8323u9E2ldDQp27vjw8PCCc4u+///5//+//XV1d1et1QnJcIaoqVEj7JcWXGIYRCoW2t7f//PPPv/76CwrFeDzu9Xql6FS6ni9grYAXOsdoYYHRRqNRrVbL5TKi6adWBT/nGEfOUlQ/0VgsdnBw8D//8z8fP37c3d1Np9OhUAi+a+rA7Oac96hqbqSTtrAcfuDzAzZC4VzCMpVIwUyk3OWP83pnVBV58OXEI5bsRvJUksKhpJ+ELmDoVxFHz/QlKkXf3Nx8//7969evFxcXd3d3FI1Oc0VglI5PEqbnW8blcqHuwJcvX1BjiZaoKjSlsalIVDpb0h4HdqTsSLVarVqtorAWSi5pD0IqUUc85sHlchGX+PLly97eXiqVCgaDPGGTmD2aSiPnC4xPO580CbwKIYDUkcoU6YHRnYuVmeXZKieTCffnkfrVdvR70JsBo1ohND9pTzyUrJjyRav9Pn/QL0Ra9kpqXUBSwOj5EyxrkahgR0k77yvpiPb77Yd3ekGiLcYVJ/V6HQb6i4uLy8vLarVKP8HviuLwJD0NhASWpcEcQOHBtrW1dXR09Pnz50+fPu3u7sbjcRSAIYkrqfd45NP8y3hq1cvtdrutVgsZRrVWTmF/CCQnNv49WT8/fPjw8ePH9fV1lJyQepfuml/eS0MylVyYQMN4QJhEeAJFyfaqPpQ0Kv30vQQReJK+kYz1z25/wXmaqhbh+fZBzWbz7u4um81eXFxcXFzc3NxQElx+XprORtDTQqJppEPI0tISHGD29/c/ffr0+fPn/f39dDpNS5SW3NSqsaxddYJp9FXYKpifGLYY8vi2220q/kkrVpJE5qzFgENt6gU1S7e3t5EBAFmHpXMOrR9+vBEMgahPIcFWMbvLxKygxBjI8MhzVkqxwjQA7TT+lvQ2wKiwFrozEtWyITvmwiUlJYuWWnt0SM5d/AhJO0361WUV0oWLtHS2+xGaskrWDkpoO46/4Kz8nX4muaziNLQq7u/vs9nszc0NgtDb7bZ0vbAMiCRRSLBxIYrrDSs/y+bmJjAcRSyR57epC6Qg4eeA2Pg39IEkZa/X63Q6vLCKmJWp0pdc0ktgUQiBR9jd3d3f39/d3UVdb/zEpTufKy7RVXDGexdMKEpiUn1fPp8vlUpRXlICo51OR+paapx3Rw/7W4rPX/tQUu8kwoj5TyaTQqGQzWaz2Szi0Hk5BsPyFeHoit4a4Tzi/IZhrK6uItwHme2RUhSFUtGm6idqtxrpAhWJ0skTeBQZXTqdDnYZ36dqcXn6lXtUS5LL6/Wur6/v7Ozs7u7u7OzAu4AunlhFp6Rhc1xLA5D+8l5USKDuXFS4pToUONaiuiRvR+qI3Hu0U/p70NsAo+rimx8h2b052gN2Lkf8VGSHU6Xj0UsRX3N264+SSpBa96mOU9q5Mi0Dohb6c4Ftx2Xe8eg7gVwuF9YnLYnr6+vT09OLi4tCoSAlt+fuoSRLyB5KYJSvOqRwgqoDBWC2trai0SiPQSRxK3lzSmtVXbTSlUKI6XSKjNZIBTAYDHixCd6jinG5KZmDY7fbHQqF1tfX4ceGwGQSk6ApC3uCJJa6E7NSUJV/fB6kZ5QmAflu8A2KMPf7fZQMJe0UHlDbi2AnCu2s/gb0Sx7KQQogMQKZxQqFwtXV1eXlZS6Xq9VqPF6bmjJ1+VbphZqzOlHkEwUShQMJIpakNiXwRE3xMXMJxVcR7c2pVZoBYJTK3PAWyJNHMGBAFxhKDjKUwEin0zy9hjp+ods7hMg5G1FXvoRB+eMLhQDu0TjSHdRqNWRRJX7CGSA/2nHe+PuJ2rcBRuchLXQzlDA9ifjr1HJwu/etcocXx6Mc8qoXGLP0gv0KG6wpXaMd2G+2Pd7pRwhglMrJVqtVpBQ9OzvL5/PtdpuDUWh3JD82/MTVA3zJIYvTwcHBly9fPn78uLe3l0gkeFFsul0bhjj/WgUbAThDUeJer0clNCWivSOJZxVMQ9IjWSMqoWcyGTIdSm3Sl5KLJF0gZmWhJPXV58X30AnReJaWlgKBAF7EYDBot9vtdpuedDAYUESIi5WapFmSHtmBhzybVHb3SpzwTRDCHshHq9frIW7p8vIyn883m02t8RdEeFQwQWnOBi0tLy+Hw+GtrS3Ujzg4OED9CMkKpz17mIwEU1tKe5BDt+l0ioTidN6TEt2rC1vdbnxfGIZBSBRBjdhiatZh3g6fFoMd2LRuxBwJSGCUHopGhdfkdrsjkQilr6pWq0hph6xb5qy3A/UoIVHx23nKvQ0wOievUQGiM6gSbEELG8w3T3e/cEHw8b8IqdvJ7pp5vnynfwlp1yHgF0pQulyubDZ7fn5+fn5+c3NTqVQGg4FhWQYBg/jao83Ffb+kfKKJRALh50dHR3t7e3Bik0x1JAnmdGKhB5HWM9QYqC6Bsn7QF9o1wv/lTUlgmiLoDw8PodaVwkHu7+9NK1OMavogKf7o46hPxPkel3xCCJ/PF4vFer0enGKBCeC3Q8ob6Gufao15p2eTls9ji43H416v53K5SC16c3MDA72ELFXNOm03sobxW2Cg39vbOzw83N/fhwOJmv3QbrTOskldOQ8PD4PBANZ5JIfRVl2Zp3EQWR729vYODg52dnbU8yp3MzBsaE4pb866eBJNrRT3KF0rhFhZWQmFQqlUanNzs16vI8GTaZqNRgN4VMxuTH5a+F133MKBUbvlpa6Pp7YptUyrhOIJ1K4f7eX1VgZf03ZdT1ndEYfyg492wb8xmOuCKml4+9rb5+/9nX4nUmHZysqKEKLb7RYKhZWVlfF4fH5+/u3bN9joUTCMkpgYinHNmHUjowTshmXazmQy+/v7f/zxx+fPn4FEw+EwOpVc4oQODmrBGX1Qf51MJv1+v9FolMvlcrmMfI2SZpSexZhVz6gfhBCrq6vRaBSZtw8PD/f29uDHhkegTmmoDrubhioJQsEkIl1A10D9SWQYBoXxCiH8fn88Ht/c3KRq2iiAxz0THFiT8UsdRn9LRqQVUqZpdjqdfD7v8/ncbnc+n8cWy+fz9XoduZD4spTaJGFKgIza93q98Xh8Z2cHDjBAorFYDHGBtEfUZcnXntSLdIGYTYxgmuZoNOp0OvV6vVarNZtNNazHVCLV1LMrbzwYDFIJDDyCdN4TjCGApCHxqeNnP4dzIH98CZLyxr1ebzQa3dzc7PV6iBGESzplsBIs+ai6x3lfvwctHBjVEi2Fp8JQkMSRiWhZaxOXPg/4viDRgUzL2U2WhomCjX68U5eVXc8Oj9LY3sHoO5E0UqOYvV6vaZr1ev3i4gIJDq+vr09OTm5vb+v1OtYqcWe+dEkeYAVOrbI3ICqwRMkOYTrkMI4EkrqFuWywE5BaMAqbWqVSQc1MZOGWqnWrz0KtTVlyACGE2+0Oh8OJRGJzc3NnZ2dnZ2dzcxNZUXmYgjGbM5wa5PPPxSS/gD+pUFioyg+l511aWvL7/clkEmrRwWDQbDbr9Xqr1ZImSnpY/hJ/laT8nSQ0kalkYFhZWXl4eKjVahcXF/1+3zCMYrF4fHx8fX0NywNdyfMW4QOWAXF4Lj5Q6jOVSmGXffny5ejoiCNRGoy69oSyxagLdQ9KN8L40Gw2y+UycotSQnh+jWCgUxJDfMG7XK5AIBCLxZDffmdnZ2trC7mc+HlPWNpljv84ZKQuTMtxXNiIPxqDobgKcPsPb9nn86XTaUpeAVtEo9HgrUkf1An/bWixwKgWMoKejUepTZVvmpZy0TlYx4FeaVnwY5DdhJisFoC2ROrz+jVYbkg7y6ZWBL7Tv41UMUDfoxoeUoq6XC6Px9Pr9QqFws3NTa1Wk6CnsI6F0h7nMoBobW0tnU5/+vTpzz///PDhw87OTiqVQukUXED5O11WSkjelMl0J1yYcTGm3XGTyQQOXgRGudrGUOoBqkRiDEmww+FwMpnMZDLr6+uZTCYejwcCAbrSZG5q2tkWs1xC+snUHQ/4ZVLj/HZ6Cwhmgmm+Xq/ncjkUkOTXcwbFZ8+Bcb3T80idz+Xl5fv7+2q1en5+Xi6XJ5NJtVrNZrOlUonHLbl0lSN4O5KdOhAIpNNp+DEjs/3Ozk48HufWbemQQx9oO9OvJFPELE5VwahpmsPhsNVqIYNvrVZTNaPcp5y3zyU4DkJra2uhUCgej6fT6Uwmk8lkEolEOBzmxV2JRfBR8anmhzehYIn/z957rbeNNGujDYpizplUdJDt+b77v5O11jOeGVtWYM4Ug0RRwH/wbtQuVDcgKngs26oDPzIJNhqNrqq3K/JcPb83JWSa4Dhk1mP+i8Wi2+2en58bxQi/76/KWS8LjKr7AjHvRat+PzQOFYBExbB+X21/u6eQUbLb29VgespNjR8aVeArvRKIKuBCUw6HQ8SGLpfL0Wg0Ho95RoLIoHeYj4w+EdZHVEF6//79H3/88e7du0qlkkwmLW/6BcWJGvVEgFama5RStm1zMwa56bvdbq/XG4/HaKtIqM4InfUPLctCE85sNlsoFIrFYrFYzOVy6FkKQrOJxzUW4rBjG4HA1a3jVmO13Bb2uVzOtu35fN5sNtF8XCzUQ00Dr/QU4vsW2wMsdnt7G4lENpsNfNwcieKMxDUIvTLbLSbKv0qn0+VymYpxIpRZIFHyJVpadrlgLoJi/BEE8uNfoYjYeDwejUaz2Qzdv/xWI+DUGg6H4/F4Op3O5/OFQqFQKKBPIUeittv0QWka1mFHMv4Igq2ch4SjcOSKZYe5Jx6PVyqV9Xrd7/cLhUIsFguQWo5mHf+VTn0vDowqHzeZ2Hl+5Aeh9BfmuNEnBOZ0y+I2SFTnt+9EfE2AQUG6CeS5bmf8XDwv589/bSle6cUS4Ril1M3NzXg8Ho/HqFiJDFnaV8EATg9iQ8NPpCvBWlOr1RKJBL7l/LtlrlLAscpmicYgNIZB46V+vz+ZTBA9yXNdKfqcpgH0JjQ0dYSnXtXJZFK0WbJZRfpHSDz6ihiTltpPtNKD49aktguFwmw2Qw9DkYP8yuk/hCzXeeU4zs3NzXQ6hY8eXEYNP+lKpZn6iEG4Pw0lkMrl8tHR0fv37z98+HBycnJ4eFgqlbA/aRsbQ1fFZhNgji6jP/zA6GKxmE6nKL2JMg66+ra08BVx3gMY5SyWSqUoxkCxmAeOK8QZ9d7tzbWemJ4yKVCORHkVC/RZLRaLmUwmHo+Hw2EKkeez9QPxvwy9LDBqXG7aK+Q79oOkunYJeG3YE/Bxo+kIgF2AJjNqTfVvCWV+d4Q5Y9o08+336L3qLQD0W16fhVC0W+KAV/pViQtclGihSBIEkxjhkRhEGAB2d3fT6XSlUjk+PkY6BXQkIVHFFIMIVRTYi29sy0ukaJUJjNpuNj3suxSQR78lBws52TkY5fgAvTez2SysNbAiizX0S5zfkvxEk350FMtilCHZbBbz1Hu8veLRH0i2baPKgWKOPsFiHP/hD9qW3CWIEOFqtXp0dISSolT1lmz24qAlOMuoBfim0qGn+MS2bVRPQwV4ZM4ZLaN8fMsUAE3OB0KiokOhUccZJYO4teAa/jgEYY3LIp5UfI7O3ul0OplMxmIxHu9ru8mFXO3qE/gF6GWBUSLxqkJuKxeq7q7/RN8lug2AE5AoUkSRJQplqQ9u5KgtD0/PSFysAIyuVqvlconJr9drYxrWg4g0KM9h0q9RbDWItlnzV/qVyPiuSSkqF4RRVSDsLgJejpfEIPy/SFp6//49FTtEnKi4NcdwfEwBf/1UjgBw+pRgtkHdGX5T5dXTQitbboNTUCgUIjBKBhvBZboifJC0MWpQocn4gPcOG4vFIpGIX4+3V37/98lhZni8U6N/zLiT+cGDvgqHwyh5Cy47OTlBFSTOZSTnAzaPEauJifHPxUOh8PtisZjP58vlEiE9+i0sr9VDH5+f98jcqA/CueyhSNT4iVgcozo2QnME1qN5fSaT4TlMECyQIdYv5JTX6QWB0YBVhg4T3YaeeDtYbqitH7b+ZrMRqXaCo3RR/oy05T5zXLMTNciezWbL5VLY9oMHpEcQbIx1jkaj0WiUd5njY3I1z3Xwd1JLfk8hbqdf9qomvzfpa+64eXU4GsEsypEoGQsp00iZosrov7FYjErM/Pe//0UQWz6f59qF4kT1ofQ5Cw0UoE052W7hFd1a46d4jCrNsqxoNJpKpQiMRiIRPzBqVO1bkn7rAD6y3KAjOkXwC0KhEOKAE4kEqnTRgPwgGnyXV3peog0vjnN854j3YrkmfLHfdnZ2crkcWs/D84CMJe55oDjRAP840b171XgBzEPotbtYLEQOFneVBE8AYBQsBjCK8x5qyfER9B8Gz9yoNPUnEotPCJ5/orSo9N3dXeQ1FovF2WxGeFQ/ZnAQ8ivRSwGjRgMJyLIsyoqIx+OxWMzvjB5gYtE/R6Fg1CsZj8ez2QzlvihSm59g+OkT3waUPXocOYzowbm4oXvBnYFiK/1+v9vtooUDr09mfOp7Cf3uE4lEKpWCv4A3FhfDGk/hfo8WcFMja4kXJ+54L+zgaMPvvn7XPE68vhLIcVOOLLe5H0/UNf6E0phERYhIJIIygcfHx//5z3/++9//fvjwASVmEokEL4G0jW4InoP4ra6WbFYF8N6LaSlIbvCHjcVimUwGeRWkKf3mf6+C9HuEgK+4MCFWEn+InySTSbQYGI1Gl5eXtAgUfkBnDNtbLNaouV/pcaRLKrH59UJgiglYviFxZSwWi8ViSAr88OHDf//7348fPx4dHVUqFUr34bJX7BM/A4SQ3rqkNW4zxLyS80FwjR/g1pdFKQUwWigUSqVSLpfTw531X5Gq1ZULXeD3vH5j+n1ovAzlk1FhA0B8Pp+j6pP+w1+Sp14EGPUDYUSIR04mk6lUKpFIRKNRP8uoESeJT0jzLRaLcDiMjASk7y0WC9q4mJKoSSF2xr27c3tyWNgZjR/yNvPFH5vN5vr6ejabDQaDTqfTbrd7vR6pB0Sa69VzdNJnTkmI2Ww2k8mgkLJRAupDBWjlgGlwsSWe1PGSMoFR/SfKKzHFv+LWukj1e7p7xa7xFr8hOV5jOd+HPBDTYQkElI3BNz8qcaIm/MnJyR9//HFyciISe+mQZmQT5XPesLRMBUHYFULCAFgjZVC/XgwrnlG46WOxGKXS53K5RCLBNaWucR+6r0it6g9FK6Z8+MJYHDQUCqVSqXq9/u7du9VqFQ6H0d0H9m/FGmiJ1huvYPQZSd8JOtQL2C2WaxZVSsFTAbtDqVTa29t7+/btp0+fYBOt1WqZTIan5WFYvXh+gEikbSAu1kU3EbrSo+PufD4XD25p8a9+MhmPlk6nwWKFQiGdTgdgBsWY109ZGC/zu8b4X7/PiUjioQKkGpWkAAAgAElEQVQJHEpoyyR+9asy1I8Ho0L967vBcpPj0ul0JpPRg5H9hjISj+JyHAf2cGr5MJ/P0+l0KpUihUSvXyBFDpKeC4VwvOuw0t+WtxvNzc3NfD6fTCaox9bv97m1hljuEcWeQqFQNBoFGEWSrwCjHBfqQjBgHfwOCUa6dz357XRtZxQoRsklXp8QdjRaABI13vp3Jo4pxUsXcJMWn4rb89VDMc5isVir1fb29vb29qrVarFYFCVmlKarBBIyTjL4NVmsHzS/F5Hfg4v/cnYmIhbL5/P5fB4BbXqTd+Xd5I+gbZ7dyBH6h5ZlJZPJarV6fHyMZG2oSY4Y6ETBQy+M8/9VVel3JX0x/dzWICMQ5ITNCdCGYpyNRqNWq1UqlVwuJy4T428j54Vs5HUh/DYG3PTIhdAjYUgRcwXkt5fg8qYEJoSXGDe28e8AehA/BvCgvgLkCKrX69PpdDabIYDw9+GXHw9GORlhjeUWQwEYTSaT+imH44+Al2eZDB5XV1eIvETwZS6Xi0ajIpDLiDsdb/zN04EIR0V0JFXeIjhU/AKzRcrh4+5lZE6EfmcyGWT26RERlubmM741Ii4+lCYl+YM/RfUaSUfA9zK2mC1Nz+/U4WcA+J0p4EyoI1GQsYYRvkLm4u7uLnJo6FuYKvnPxa0f9yL8tuK9pXyNqlFfCiQwQZql02moScW0Pn/2R8w/mO4d0+++sVgsl8tVq1V0iBkOh8PhkL7V8YrfHX8fzfo9iCsI5SNLOQWbALjsQjx3JBIRfeep1NeWG9IPIOqHHH00m5X91ocVmjfgzAmhEY1GE4lEMpmMx+NkUvEzK/yb5Kcuw+FwIpFAzCisubpbkqSTEBe/Br0IMMrxjV65yXIdCjDXBRQZeZzhjTKBEDyay+UwPt2CLCK61nSYF8M4+JbEhYLFgu0E8oM1YjQa9fv9wWAwnU71ONGnEDQlIiIoZlRcYwXWb9LFpcAfRqinHrtuwcRZV2lIKOCmOn414lFu+rJM5XheaXsS+wrN8VDXczgcbhkSzfXro4W1Ue8Kx8ijh7Isa3d3lwcd6TN/gQcbHsCjl6Myrsz2COaVtiexN7gNki84fatMcg9k2zYlHhQKBfRxECZJPv7jSPz2Xmm/pb2A0JhxKEoyAfHD6ktgLl1ZOI4DnwnVeNIrACifKJpfhn48GLVMAfVE+ApWd9SwNVZq2P5e+oebzWa5XJLXG1b9SCRCYNTx1g4MebuH0ef6s2xD4oyLiE/FEDC/eL1ez2azbrfbarXa7TbqHd6robcngFGkzeJAGXLbbfud5wKIpwEK4WiEg99VOnCpqkNh/rdjcgDRhxxtO27whnI1wa93Wn1e4vuHbwbio3A4jCVdr9fIJ4WMzuVypVIpn8+XSiUxGtfKT5lb8LtD7r8RdT3ovnhGmG14yAGfwPc7nj2OLNdyhmImKIkgpkcn5x81yVfiQlVIWl2mWZZ1d3c3m80QmxgOh/P5POJhstksv+yhYt/I4/zbJz2kOyxH2Pquo+3K3Slczjx9Dk8noXoAoNFIORKJ6KVsxEnj16MfD0ZVoIGKtk4sFqOqsMaY0W3ekM4boOvr6/F43Ol0AHYRNkoNG7gjnoNROkT6oatt5sOFBQEa5YJRKlAMQkubdrt9fn7ebDYHg4EfGN1GK+giBjVcYLYhB6JiWFl5Exv97iLAut/t1KOE3UNJfzX8DyE6xROJw6sf3Nx+zV+JiC87AXqAUTRxWK/X3W53vV4jgSafz6MjZS6Xw1tDqQdu9lAMyT10RwVff6+bXv/KOCBpHeESFce2F0UCWxhJZ/Z7f/JKDyWOwJTP2gohJn6i3KLdVAx4tVp9+/ZNKZXNZmu1WrlcjsfjhUIBF1tuSLfy8lcwCbG5/W+D2ZaDbFtrSyGu5IXJ753wv0wBkoGmbWx78QKFwzPSiwCjROL0JuyC8B3zEBD95/fewmjYWK1Ww+Gw2Wwilgs9xNLpNCk2bGjOkw897QUcyMSAllt5HvflYn25XA4Gg2azeXFx0Wq1RqORHjC6vfTXsRfq7gL0i3LHxke41xYikOi9uBNT4skiAtT6qXwaFjxM/xprnQRPlQ9r/NZ4PP21xcSDKGDBxZazXKOmzaqE7uzscF/heDw+Pz/P5XKFQiGZTKJeYCaT2d3d5WqGfBfqse+C/1zMn2/FB43pdwAjlaPPQT0txuD7EedNoxQVfCrgKeilPdTPQrQf+MbQ0xWMa87JTwiPRqNWq3V2dlapVKLRqG3bmUyGuwdpfHFH4y30yQf/hP/wXlnN4bWf25p0qChNiMV5IZvQiDUB/Y2FI3HBL3y6e0FgVKwyOUCJH5DGFI/HjVk1W+4woxhdLpf9fh/bNx6PQ/PBCotrqDOvrpOCYRaHUAHKko9J+InHrSqlrq6u+v1+s9k8Ozs7Pz+Hm54aZNveBjB+LKqYUhHfZrNZdMgFEBeankYwKhguDZWGOZRXy/qtAExilFB5c3Nzc3NDbSSRwMtDFwhugkjBU9F+VKXV7eiO5m3XF01/myTI+Huk88mWkPeXJ1IDeB2QrfRyQSILXvmAVKLr6+vBYHB2dpZKpUj95PN5HkgD/MqF+DO+C47Athw2QLPSvhUs9rzZkM9OwUAnAJ6Kz1/go/0UJIAUF3qwWZD8JBZTPjtQfymbzWY6nV5eXqKdhG3bjUYjn89Ho1G6hs57xLPK5G5SJpgl/vBTTwFSVGBKv6+UN6qEpzw6mj31h2zFAEBJ79QIRunn33mCP4xeBBg14ifjIYZCkjmTPPRGRNj3tm3f3t6ORqP1eu04TiwWQ7FcHA2xm4n9qAs8HWIECwme8YOGOtDh0YcQLvyaxWLR7Xabzeb5+fnZ2dnFxUW326WKTjCx+BWd0W/teIvsKKXi8XipVCqXy8ViMZPJiK7fVD5QjwTXxYeOKmgduCwQP0HxVLTfQG/iq6sr9OFYrVZrl6i1D4F1yB2kglKfmFQqhdoL1HGRn/IFEhXGHh3N8Cfie9JiPuLfE4nqgpU0AYKfsPJKKXSdXiwWetPae8/6Nzc3/X7/9PQUdg5UtObnJeIdPf3xWSjggBdADzqfPO4W/xo5jIxGYi4N6KtHpHy9kh/pR+VwOIxGMKgOdnd3t1qt5vP5YrGwvRXjaQQ/Y8Fms5lMJpeXl7FYzHJdTIC5ZL/H2xRRMZyMOM/ynt754+ggchtm8ZPGYig6EvOLiX6guPbjCL/V+zfm9DLox4NRP/YwnqqBNuBKTiQSvGPYlumudIHlOt+Jb+fzebPZRK+RcrmMFhQ4HTrMS4K7UAVgfoIxYjJ6QEvzvtGYHLRhQHLQ393dLZfLXq93fn5+enr67du3ZrMpaosqFsoZvAJcVdDRdnd3F8EJVFvUuGLiE/1Z9JEFnjOyFsrLLZfL2WyGklWj0Wg0GqF2FSApGUpvbm4IjFJIEE7AQD8ItEAjODS5QawhigPAt6unX4g3ophy1a/hTyeE2m8lOwLWEJlw2FTwrV9fX49GI+hLXMb3KmkIxRaWvkWoNKwFu7u7aF+UzWbFifRB4O9xFMBfOi6nz/VBKApFKMtnnOozEmFQyuK699xLL/TFPtTPQmIN+d8oBoRSmtFo9Pb2djqdOo5zfX3NWzMIbtLHUUohmanVagFrwgmJ9Ix0Ok3jKKazBDg2zlz/1s9swb/SPzcyUfADWlq14G304w8k4jIRn8YvUC9YSjydfjwYVYEWREGoMJLJZPL5fKFQADRRLqDkvol7RzNu8cViQdEz8Anato3Ko7DKwJUGCx9ZRlUgalEm9OZ4Xb2Om5IPmMtNPovFot/vn52d/fPPP1++fGk2m8ZQUbVFBKffOvBm9Eqp29vb6+vrTCaDC4AAlFt+X7CKeHzOP5ZPESieoQJrKCHR8XgMMIoeBNw+enNzc319vV6v7wWjMIgi8BdRB5lMBu0SEokEWdZRK4ALrGBRpZ8l6POHrvkvTI4bAYKq9Qj82N3dnc/noVCIl0kHcValfx3XAGO5zdLm8zlYDyb8Wq1WKpUQQa5YJM9DMy22pOd9xXgiRCxwMPoDrTX3Egej9+ZyvdJ3JWKQUCgEP161Wk2lUuv1utfrXV9fTyYTfn3Ibbdru+1UhKCD3kHihFJqZ2cH+YJoDwYDkHJj1SzmWBPbVf/koft5G8Vt/JUO2R3mbPwpCGKBJIPuQfrlj3YvAoyCOGIjbhG7eWdnB31Z6vU6DC3j8RgFCEXnjy1fm7jYcZzFYtHpdL5+/UpVZhzHKRQK8FzD5KPn0ZMi0VG18XCjMy2JDK6fgES/ffv2+fPnv/76659//mm1WlDM2zzdgwitgefzOVpSoSFEiHWB4hfz84P+t8NsveIoDKQLAIryrug2gaYD+Bsfcjc9YOh6vUb8KMligFHCo1QkNZVKwZNLtWlzLgGqwgZMRTS4TY6/Mg6slc+x/sUCiB9ChLSUG/txcHCQSCSm06lt24PBQKwhLazQkXTYI82H7L10On15edloNNAXtFQqQVOGvM3S+CdPJ2YEf9iA+vEG63N7e4s292Tc1Q91+hweOfsnEyFRHvWrPxd/gy8ZWP8aBB1EneVhmgmHw5PJpNPp0GWOa+awWe0twWWWZeG1Xl1dOY4DyY9etVRFMRqN+r1TLuqNx/UtyWhJfehvlbsVET67Xq/5Nc8oE55OYq1go+EBaT8Rkn4WekFgVJBx64fD4XQ6Xa1Wj46OKDJmNBoJn3WATOeEb5GfSx8iOhNIlDov0zFU/FyPE9dPM+J2DvNe0bfAfDw30Lbt+Xze7/fPz88/f/78v//7v3///ffFxUWv1xMtwozWxwcRNQWeTCbdbheWYITSog+EcHbwoDEBRoWWEvwGLy31Xx0MBqjej7Yu0+l0Pp8DfcIvT5x5e3uL10H3wqu5ubmxWOLkzs5OJBKBlZewKUJIUaiyXC7j33K5XCgUyFzq1/WUXqLfYePliLYfTlzVrddr27YjkUixWDw8PMxms5PJZLVaXVxchMPh29tb/is+iFh2npmnlFosFsPhsN1un52dZbNZGOwLhUI8HucszxOknuXR/PJb/WZOnxjBKFQONjn3PzjecB3+qx+7zQCg4cfAsVDXlLBb61zjmHIlX+lxJESQbdvhcDiXy+3t7dXr9dvb21AohHIr0+mU/wTkd8Lh+w1NVTqdzvn5eSaTQXcDOvDrY3LBKN7+I57uufb5ZrNBFiy611LYK8ejQgX/WIJYuLm5gY0GnkAea/E70IsDo9xSou/OUCiELsmHh4fL5fL6+hpZEUYwGoxE+cVcj8JbQdAHfAjOLxQKaOfAk+tt/4JnNP+A+XCESlfe3t7CJnpxcfHPP//8+eefnz9/Pj09BRKlpQgWNEbS9Rye9Pr6ejab9ft9VM5SSoExSqUSukFQHwvLDScAiXcUzNs3NzeTyaTdbl9eXrZarVar1el0BoMBvPNXV1fX19eUO0+hF8HRwNCUOFZalnV9fU0WNcUqp2az2XK5XKvVqtVqrVYbj8eVSgXY1HEcCkXwW88AqHrvU/8ORMDRcTPVqD5otVpFw+vZbPbt27dsNsvDRsl1qLz2UXqDGJmicebzebfbPTs7Q69a6mEoGgJZD3dpcTira1Yek7MN0SACikHrIFEPwdCINBBmmyfq9aeQcd1ub29XqxU6J4NP9VY9trfJhZ8t+aHv5ZVAXPDiE6BPJDns7+9DEqIK9XA4RCgXiUcS18rr+dGl2WKxGAwGl5eXyB9AgwZedlr5K+gtEZ7fHngcHtVHg0ZbLBYAdqjSGHLr/T10/GcnowZBcgjFqs3n89vbW+MR91+c6b9KLwWM6luQgzOiUCiUSCQKhUKj0ZjP52hl1uv19N/e+874hhBpucvlkr7C3kW9oZubm2KxSIY0y7LgsvdjoW34ilyK9Ml6vUYVp/Pz869fv37+/Pnvv/8+OzvrdruLxYJGhvblT7HNIxunRA56RGFaloU5TKfTarVaKpWy2SxS7GElJcUvRA9NhofuASZCk43H4263e3l5eXl52Ww2AUZHo9FsNlssFrqGE6LTbz25SBUGVNBsNoNUWiwW4HbkSJE5tlgschOpOD1vuby/G/HtpLMAalNEo9FsNlupVNLp9Gg02tvbOzs7m06nwKOO49ze3nJOtyzLZkXKaDvRxkAi1MXFBaJ+ESKMXENcQEHAz4vhguut+JGudfDIyHrGnkQNmpegI5XPJodAmM1m6FE3HA6hKfXf6irWCFZe6RGkLyb8RfAWlsvlcDi8Xq9RcQXWTZjWyMC25e5FIlS73QaLwa2E+FExGW4WFf+q+xhQV0YYTWQdBRNtOSGoUZtlPp8j1gsPIhbQTxv+O6Qzwu3t7Xw+HwwGnU6n1+tNJpPr62txmbGQxS9DLwKMWqZYEz+xGIvFcrkcUl56vV4+n08kEtyd9yDrBf0k5C1ov1qtRqMRjvsQxEAwe3t7xWIREYe7u7uWm5LPB9zyXIjLOOMhqXwymSB3/uvXr1+/fj09PT07OxsMBrx0gDCibL9BhcWF40VEvsM7P5/Ph8Nht9ut1WqwIKLqE6yklM7ld4TgT4T2x4PBoNvt9nq9TqfTbrfxNxSbMLTo0NZ4C10GGZ+RPrm5uZlOp5vNBkGxw+Gw1+uVy+VKpQLTXalUKpVKhUIhlUrhzSoXGxmN37pZ+je0j9KDQ4XwswScucSwmUxmOp2+efOm3W4vl8tOp7Narcj+rVy0p7z2UfqWGBxtQrH3kCOFmOBoNBryFunk++QRFk3xOZUtFBZ0vg7bfG7bNg5+CIxGHjQ9u/jVD9lRxjmvVitqt4EKxzwaT/mYk9VvyRTPS3wzCCMLAj1hE0HE0d3dXbfbbbfbs9nMtm0AGmIihFJgHG6wF+8I+YLdbpdYDPyLOjb8V8RiHBSKSQZsALHTYOaALdbyJnLoXCy+FUPx8ixXV1cofWXsMfGjWEznMtQMabVa5+fnl5eXw+FQtFd8kKL/GenHg1EjEgXR6nMDDErGFAqF6XQK9JDNZkejEfmvOZoJuK9+5lDeLQ5leXNzAztlp9PpdruDweDg4KDRaJTLZb24zOO0CDID1us14nXa7Ta881++fIFBdDQaLRYLfcLbGIADiM/WcRwkqhMqRXPUUqkEvzbaFlcqFSx4IpEQzS10whMNh8PLy0tA6lar1ev1YArFsXU+nyP/bPsJP+i10oewzm42GxhHEXqYzWbz+Xy5XK7X63t7e4eHh4eHh7VaLZvNcuuvEAEhVszSqIB/QzJaRhFxAW9GLBa7vr7G8WO1WlmW1ev1rq6uuB2U4AudkRyWFYEeho7jLJdL7NWdnZ10Oo0eDbu7u1QGP6RVG3261iE1qQeOByNR8S3ORVdXV4iTBiuJ1qAg42HvXyD9iRy3LcjFxQVKy8EsanljM35tTfkSKKQ1HKIjXzQaRb7pZDKB6Xqz2ThugDIuDuACfg6E/WU4HIJ5k8kkCpJEIpFKpQLTj+X1dwvMpI+v31e/zLIsZO4j/fTq6opf7Hh9brTldD3oOA7i3OAEg32BasXwywKwx3clHdgopW5ubkajEZraXF5ewhamvEUbXy2j3538dqrF0urpxSCRCL4DFJLEuQ3depS7Qbcp88Shp7gvzo5wzU+nU6TajMdjoCiUYUd+DzX44TGmAU/EnxdsjwAyIFF4sU9PT//555+vX7+22+3pdEoGJ9yIL8hz7UvHTYKGLXM6nVKoZbvdrlarSDO6uroCRrcsK5VK6X4WGu3m5gZBqBcXF3///ffnz5+/fPmCFqaLxQIOJjQL0TXfszyR/oBULwMBHkAAyWSyUCjU63XE48Kl5TgO5cfwEUh+UekD2qK0zX5zPMpZifAoOKJer7979248HuMEgm3PzTZ8NMebHUgLjvE3m02v14tGoyjglUqlwuGw4zhQmbqafPpLARhFPtzu7i45qR1v0p6uF8U4ZBkdj8fj8Rilx3jrXUH/8nYyqjrHcZB32G63W60Wd9DjzeqBMfy333fGvwdZLonPKb8TX6VSqePjY+gp6JTZbMZt2EYBZTHiqnMymSAGgM57SikUlhGdjYxzDhCGxp8gcJ9alhAYdVglKW6Wchjpy7JYLCgvFvO/dwL/DgXMeTqddrvdVquFGlsgJKiAxYTJ7BejFwFGdeIIUkddaNpJeLRYLMLcMpvNuONPmVwbgoznM6H50J+J9gESz6+urkajUT6fR4WgcDgcchvPIJ0i5O1UwZU0arug8MRisaBi7/BlN5vNy8vLs7OzTqczHo+5nqOJiYUyPsiDiB4WyUOQXzBeYnpo7EEh4YvFAkoUz84PykiZB19dXFx8/fr1zz///Ouvv759+zYYDHgCFt1dD2bSzwnbEF63MYbBYcY25YbJKqVmsxmqmS6XS9gYYOyxbTubzaJvE6ZKW4sLRG4WUr+3ZVT/EFYZCsMPh8OHh4cjlwaDwXA45BmjwccSoYzv7u4mk0mr1UIBGjrm8Tah6vneCzQl9ZjlgIx2l7DsGgnnT7QZw65DcK24zDFlh/wowrkRhwe9Vo7y6bRkPC2/kCf6eUksIBUDIoNFtVo9Pj6G9QTePMo0UN6iB2KDGfEuKrpcXFxQq3qk1euNUYSdJWDOftxhuT2lUJuPN7WhA79uWjJuPLjpoVWN+XbqBUhscWtuzeWf8/J2RtX/y9ALBaMgLtxtb5/6eDyOExvC/kajEZywy+WSRx9SpXpeQpa/xQC1Icw819fX4/F4Z2cHsR3tdpt81gghTSQSKHJJzSc5HgW+IaiHOgAw0Q2HQ6p2NBwO8Yde2Z5jIL4ynKmMj8N/KB5cVxgE3wGaoX6oMigg+GAwaDQa1WqV7DrUAt5xnOVyCXcD7Ltfvnz58uXL+fm53jVKN6zywwMJoGBgyoUgIVEutkCCmenb29tbnGFoh+AFwXZbKBSo6hOVUBBrqH5vg2gAOY6DsDZaqFwud3Bw0O/3ETQMtuXXG20GRGKR4fdHhBm0LDQZ8tNpTOX/gnThblTJipVlQGcakjOCg4R2N96RTrMwX+lglJ+g/oV9JZZIvyMcRLoTg0hHCfQe9Z+8csozkuN6tDjYqtfrBwcHMGP3+304IvhPlJaBRCT+e3d3N51Om81mLBZD4TxYLnnwqPI5Oxm3k5FTiMBicNMnk0mYbJTrNuEcSqMZeYSAHTqnwNCgL50+gWAKOFndCxODT2WIjoPe0af6m7DMywWjwswgJCaqxqD5RKPRmM1mVBqd2JLnfdPZXSAVZdqUxm16e3uLEDcqLpPJZGCaRYUgAFP0KUWdS8KjQKJkDUUu7Ww2G41GqAYwHA5R753KvOsmEwTHUEovIV3KsAnGajqE9Xt8/cFnsxmlInU6nWaz2Wg0EEVar9fL5TIgaSQSgRX54uLir7/++r//+7/Pnz9/+/at2+0KbxFffH7qNbJ3wDnY8jY+Fq9VJ7EsjmsuJeMBHRXg+QqHw4VCQc/O/k2kwxPJcYul8w+r1ere3t7BwQEyRpGQBGXD4Z0fuOH7HGAU1eM3mw289jCU8jkETI/fLhj5hUIh1LhBNy84BwLMFUZEq5hlFCZ5lKXTyySJHfu991vwGQCxSUbzktLgu2Db1yKj35vAYnyds9kscRmMGujMpLxNCoWfjdiBZwOjEn673YbeSSQSFBhD+RLG1GF9x+p7TAev6LCYTqeRj4V0cjIT+G1R/SwHMIpmfhQXxBn8ESc9MQddVQVIEj/tQ5dR+J+xtugjcPPPSC8XjKr7fNCoGlOr1abTKTzIlBBD1+h+bbWF754u43XdULpss9nMZjPlKicA4nq9TpZCZCTAWQ88qlx5Aa2J+mdIz0d2ebfbJYaB+cFxO4OJKXGVLNReMF9xFgpQPDQUuXJoMmCV6XQKs1a320UQLfVJQql8tKQ7PT39888//+d//ufPP//kQWZ4Hba3Zr7+aGpr9hMcLkbjGt3xYlaxAaieF/XtsG0bDqlQKJTNZikzRrEAAzHnVxKknwGUUqlUqlQqNRqNfr+PQ45lWfjD77Sg2FKT5RsKGPvt5uYmFArlcrlKpVIsFqHPaBx+SjEqCV1/6AwFfqdWXggv5qnK/FfGMxX9l6f6IgCGd98VcxML8p2I72TKEcEd4bqZTCbL5VKUc/KbnvG9v9KzkL6dqBIz/zyXy9VqtYODg8lkAhwGLwS/zC+QjEtIx03kVUrt7u6iWnOxWESoPWw9pDK20ariLvwry7IQxI8meel0mnSi8dkDiCyjiAhC2c7VaqVXp9pyQD4BI4r1kyT6BVy9glDafDQaXV1d6em8vw8fvWgwCvJTJ2ihWy6Xl8slhDsCZeiHUFeAEbqeCAA94o78XyRk4DI0socXABMYDoeoxynAqONmNSJvAxePx2MAO2hlPhOkBViWpbuGlb+sFxhLQPlt9nTIbWVEz859QPDa0yNQo074HPP5fCQSubm5ARg9OztrNpv9fp8rMITScoCoF7S/d55+Is8PanAty8NJbbeoPr4F4MbDYtvAvI1FoJApMTif1SOk229COh4tl8sHBwfz+RyuDNu2Z7MZtwqQWOd4lF4iORzwFTyJlUqlXq8Xi8VoNOo4TjKZ1Ou5wIdgPdA5oJRCDEAmk8nn8/l8HqVScWjhl917lHIcB1UmAPJGoxHwKC/NEWLdmHhZse+0u3Qewefgd15bVC8DrB/G9E9e6buS4xiasKNn/f7+PlgMYg09fvhlZATlwtNinXghveG+QOvRSqWSz+dRU4Ki6sV86O+AbWAEo7u7uyjWls1mEf1FOQbKh630Dx0WM0oxb5PJBNMmg4Lj5qGqh2xavznci1MJjIr0SiDRTqfT7/en0+l6vTaOYLzpL8ZlPwEYBenrHnK7MUG+T6fTVqvVbDZ5JhoXssZTC6+bIH6lmJ1A+UNAdBVSbuMKRI4Cx1Aak8MaUiP+EplAiBsz1jayvHlUon4KZRcqLyoSpRaVK6qM44v/QgbxTjpsBZgAACAASURBVDOkufmVaBQBWy96AaD0FdLPqVhap9PRtZfgecc9KQajAS4lhdqjAe8FgnSNXo0SE8BUUVOdloIqKuzt7RUKBV7JCzZsS4tSfSVB+rJEo9FisXhwcAAkSgceqvQkjoI0jiA+5mq16vf73759Q2b6ZrOp1WqZTIZrSp6Tq/M73drI5kiaRJA6ECR8AsYntbxxz/iQ2Irq+KbTaThG0BSgWCyKzUmci1Pi9mvOly4YHJA8Ud6cQsettdxut5vNZq/XE6cFQTqT8mpBD5r5Kz2IjJIHVsxGowEkCjsIrIw8p8JibevxITEI7CAUKIyUiWazmc1mkS+IzQkbBN0XgpSmxP+lm9KVYs7kfMjn88ViEQmOOtK9V85jDgCjyAnudDrVahUGhXQ6zQvAKS2EzzhswKlVnJbFV+QGpLvwJ6KWhBcXF81mU8TQ84eyvO7KgBX4eennAKOEISxvMlM4HAYGuru7G4/H5+fnZ2dnFB+jmPrh9ck4iKHxRVo0iAM+5VUtRFAtiK2BQRTZ9ECidAugN/ICo/E6/jXGVosb8V0ucrr5NUJVOz6VyfQruf7g1XYQr2N5DVRIFLNtG0ftyWSC/hw7Ozso5Em17gQY5Wlk/HUojcTTGVGI+Pm9coou4yujtNVGvTfFesrBnIAcUlpY2PNEJYFXEmQEjpFIJJ/Pk0kGRxpkjGFfiXIWyqvDaPH5mDc3N91uNxaLWZYFdYgQTy76aTPrZzZhW9I30s7ODlyT1WoVTRMGg4EOEP3EBeLXQ6EQMrpg70GQa7lcRrmcnZ2dTCZDOwr7k0fAb7O9aZWUxiBc3PHp0bNzLsC7QFvI8/PzVqs1Ho+FpjTOh+QJyHgSfqVnJMvUtSgcDmcyGXq/6O2MPB4c+fh24ukHNIIumReLRbfbRXcJbEvkM3EwStFlXFzTvQTkFQ9CzodisVgsFqFT9OKg4lf8E9yI/HjT6RTtAIrFIlgMo6ESHJ8MAWhdWIlD3b08KJQvlWQynvfAYijfe35+jtIHXGnS0vFAXuM6/AL004BR+oPeK2mCRCKBouX7+/v1eh31zCklQmwy3S9sMYspF+J+m1IQigQhSCXESGxrUgy2RkYGI6skZ2MSEELHWN7EJnxCqP1BOowjcvovPwnQI1BTgOl0igICYJjb21tYf0WIknLZfptVFetPgoCzupgwvUe+W7gocViFZMdbu05M4+bmZjAYICABBxvkeKLArdruMP1KyutbINrd3QXqglaDo4DyYxCIabPMJ6HDsPg6GIVLBN+iRK5fWwphf1Xew4nlbasG2tnZSSQSsIzCrYbq3+Jh9S3nuBX7of/ooVA0B3YgzBOjoaAjDWVU29uQw4ivHn9kjpWVV1MiBgn9YNCuYjQaBVTDEJDXYuYDfWKPeJxX8iMjGEWyEbEYshRQ4BkYiBCYcqt3kwgVPELva7PZTKfTy8tLXAMrYyaTSSaTAmPhD9vNuFVaHwqLuQ4sholjsRg4grdW4c+lQ2S+DkIaA492u120s0bdezRRC+jGREJAV7V0I78JiAFJvxuVBZrLtNvts7Oz09PTi4sL9FkU4ET8/Quzz88BRlVgToBSKplMlkqlvb29o6Ojq6srx3GQRQgLCpiNO823ke/6XTguFPMJqHsS/FAEJcVNhQIWE+P3ogu4VOJ4i5QQAWXiEzLKCtQrJgkvYchNPyK/Kiy78/mcO/cVU+26iWv7VRJXYhASoCQpxPVCBRov5kqaxAS+CrklRdGDBCFTiUQC7RVgvoL5DeKMGhw8GjT8wmQx4p/DH4cFXK/XCFZBfgz2leiDp0MovqOo5QSMClCThUKBkpkoa4F3o+CMJjan8T1yTYka2ih2Y3xw4ybXlwKBPefn5whvBWCFvsT1qOTvsOA2/S4BaE8slPEyDiNoqOVyOR6PO50OzKLkphdFRmnn/8IK8qWRn3w2HvnAYoikQmgyBcasVisIN9KMOmvQ4PgKvwKLwfKKMjLI6sP1lOTABSzpID49HYxaloWi95RNjyLWT1kuOO5arVY8HodrK5lMptNpXpqKjI46xjByUICcN35lMQsRNQtAJnS/3282m+fn5+fn5+iyK+o5qt9Js/w0YJST/m5CoVAmk9nf359Op7Zt7+7ufvv2rd/v0xFQefnKYjndwSJb3JQHCFpaQOfjnoWLEp2HFTP7BYxDeJHG4UiUSiTirInemCg+QB46IRf4v1yP6o8Pz6N4KCqPrFxrNPeEijeoy0Hjw+oA1G9Jaari5ervmj8yvQgyX81mMxys4UtF/Dv+4D1IRDTIKwUQKTPEPKDOEXU1Q7kJlHShn/DNxrlDubE6Dgv5HQwGyWTy/Py8UqnkcrlwOFytVmHF5CcxXePi1KpMqFEpFQqFIpFIKpXKZrNo+RaPx/Uenpwsr6neZp3BcffNZjOZTC4uLujuKKoPxalcPEoTE1vXYWBU1/TcJOP4oG2SafztIFS01WqdnZ19+/YNmYhoV0FdQOlX+hsxYhqxLAGL9koPImwnAUbBDhC/yWSyWCyipjWqwSBUDNFiSmtYwPeYxeyaxGI4pSNBqlqtlkolhJCm02lsb+JHRyOlAT6bpSXgt9FoFEXvUfde9Kk3TpIvhfIeL23bns/n7XYbn0ej0Xw+jzqMYibErbqyEPcSTksxMf5Dwrjkt8Rlt7e30+m01+sREkWy79XVFRqvANP7TeNXpZ8PjBpVfigUyuVyx8fHlmUhjd22beg2sBA2EL1j7CTYTYW/z48c5sXgG/Hpu0QfwU+LgCzNXM9FEtdDjotEEe6GKv2RSATZHq1WSy/2IRQV3Z2i9BxTCryRBH7lwxo5WZk0mViHe+8obm0UiI6m0ZVXxXKRhPSs8/NzpI5i5GKxyHuUkxnY+W1OsVuS/qL5bo/FYqhBs1qtAEPn8zkK7vJzS8gNBRNvkIAd38PAUs1mE5ZspdTd3V21WoWyVN6XS0rFcRzkq/nN2XJPdKlUCqVGUVHYqL34zB3m/rtzOwaTrkL+LOJ8wuEwBkc3cL6GyhtIYFxkwbABUoX/UIAY5PY2m82vX7+iY8XFxQUqwupHeqXxF381uGBL6fpKjybj26cDDPp5VqtV1IFBHDwMpWTnvru7QwyJ2GMkEgUcRHJ9p9M5OzvLZrMwXiJDiGIxLcvSY7T430T8EIgaJuCydDqdTqcBSSlTUGcxuh1fEPoX8bKo/uY4TiKRqFQqjUajXC6Luv0g/vi0n/knlpeUpijpetKSlBaMa4BEu93u+fn56enpt2/fiMU4eKXJ2N547i1V4c9IPx8YVT6W0XQ6Td04LctCwN96vR6NRtgfOHMo75Z60H1pn4n995RnoY2ry3fl5QQO44QO5hfD+Q61FwqFgERLpdL+/v7x8XG1Wo1Go4jyRNQanwyN7JjgGr/Rlo/GrxTcq+t7/XYPJcc9MIgD973ji3mGw2GqSIVIqWazGY/H4UKFI4mDUbrjo2f+WxGWCz5umFgAyObz+WAwQIVtfrE4V/ChbFafiwiZFqlUCvbFkNvJk14Z4U7lYlNuARLCge4YcuveczyaTCZ59RlSZrr7m5SKxVrOKqVWq9X5+blt2xQNAq99KpXifhgj1NOJrhTqWd//jvdQrdwK551O5/T09O+///7nn3/QlJiQKK2D8soc46t5kKx4paeQEYxuNhu44JEviA+BI9vttnDsQHzZLKfT8hafEVtutVoNBoOzs7N4PE5OMO5Vh6eOto1xbyiv+gNfYBxy1lP1expK97AJUc95ma6cTqcwKCC3BEYZ8j9Q/UfOpOIP4/yNeFRcwJGocgu2oFH2ly9fkHINjy79JOSt8x1w61+Jfj4wqnOd4ziIekkmkzxKBn4ly7Km0yll7FpuBCSNZt3nAddJXO/Hsfp20W8UsKV0UKgfyPg5DKGcvHgHsi6ARN+9e/f+/ft6vR6NRieTye7uLpoat1ottACm09hDrZ6KOcTFt+J63aRteV0qfvcVQFxfJb4O4qbbMy1NErYrSoSEhoZYT6fT5XIZZgDx81e9uyVRsDLAfSaTgQFjMpk0m01UYOHhiTyShI/jMGcF/xwa9+LiAk78ZDKJSvX8/CDM2MbNSXdR7g6EpqS63CjNDcHCZ2hUUaRdQt4OaiAUUTo7O0MQiFKqXC4TnlauVuNbWpyglD8zKqb1+Sd8Guid1m63v337Bpso1CRch/qyKy/rvW7+F0WOa3zBtonH46VSCdXTms1mPp+Px+PT6ZSuB3LlOXzi0KK8Cd04ordaLZSOQTg1amzTmLxINv7QBbKAvEopWJTEkQ9hBjrOU5omovmHvIXllevjury8/PbtWzqddhwHDi6e8BDSCl3xR+DTVl79wn9ClxE4oU9gFiUu+/btW6fTAT4RgyuTxPu16ecDo8r7tsgECKkajUZLpRLyc9GXJRqNXl5eIp/JdlPsCb+G3DqjIqjxoZPRwZnSdBJnb6VhF/HtvTclfiMigyhdFo1GUfr45OTkw4cPb9++rVaru7u7qEIFIYXsYHQfpWpTevMnHbLTHAjQC9blmk+frWKSiKtwcRcK9QNwCYfDOIhbrgWUQqBEG3RazAB8ELC8uAUgPswAlhtyVKvVAEap7aTwxtIg977H35AstxAgLfLu7m4ul1uv15PJ5ODgoNVqIZKSCglxd5VYZONLhMTH9TALVavVcrksyo4qH04UXwllifZOuVwOBWjQ4QbF3RTThVzpCn3GNyTR3d3dZDK5vLyE9xBbulKpIAuYr56u/4yLLL613FAE/Ye2bSOxt9PpfP369a+//vrrr79OT0/xIkQXXw5DlVdb8wv4JH8rhfpDyPgKHK/PHcV9a7Xa/v7+/v5+t9tFRz0agdSfUFjCTQxCixD8DSt+sVgslUqZTIYf+ZR3w3CMaDHCt9Dg0EoUnI1aE8hNhKtdNzcobVsSskSCBD3OfD5vtVp///23ZVmLxaLRaBQKhVQqhdLgoj8OSPgBxHP58SA+56Gftm1TwuLnz5///PPPv//++/z8fDAY8HxN8SC/Ff2UYJRTyG2lQJ/E4/FKpQIjaCwWQzsWRKTRNXd3d0A22HmEaR4BRh1vLCnntOAfWsyAoe+84L3IdRLXl8K4GIvFSqXSmzdvPn369OHDh8PDw1wuFwqFrq+vYd2pVCoXFxftdrvX66FNxWQycbToNIrpoblxNKDrXY41Ca2KeFZ6EKWJP35f2CNjsVg8Ho/FYqghhdo3juMgDH/lEnrK8/BWcRddlfLb2W5ZOMf1tNIFCDyCQG80GvV6PZPJANmL9REQPOAl/p7EXwEt7+7ubj6fr9frx8fHw+FwtVpZltXtdqknlvi58qoH2m+0xzabzXg8dhwHx629vb1qtZpKpfL5PN8MlsmIqLxMTTFtIJT3QiuaWq12dXW1Xq8dx0ERR6PmpjE5gFOaqWkymZyfn0NYwdqKAbPZLCl4wWvqgXtM/4njxokiY+mvv/76888///nnn2azOR6P4TNR3gAG8fqEhiYcwOPetp/hKz2UBCsp/5K0SGZqNBpv3rxB6EWr1YJZTig+i4WF8L8pfhQshkFQ7btSqZRKJTRXI3M+3wOO1yOvMyBpMSpbUSqVSqXSaDQCc0HgG3W04CxaDR7w6jjObDa7vLwEEh2NRoPBYH9/v1qtFgoFGBd4wQ0aeRttzt+F0pylaMrT6/UuLi6+fPny559/fv78+fz8HElLVNaAn99+Q675ucGo5eP5hQkkGo1Go1GYHDqdDu/MZLFuQ8oNFtE3nLXdsZ4jM/qhYtrRqD/4rwQ3itHEvSxTKyldJKVSqWq1enR0RGbRSqUCY95ms0mn04VCoVarHR4eXl5eXlxcoAmEZVnA5cI4GtLaP4jpWSbjKIg4XAfQRvWmlEIQUiQSQRGAlEvJZBKZ7FDkQKJw4iAwYz6fL5fLm5sbo7/eD/XSBLijSsggpJF2Op1Wq9VqtZDPlMvlEKNMfV/FHvjNSV9nroH4t4lEAm2ZUEIIS9put3k0lTKZz7niCbnluEGTyQQpqxcXF6VSCTW5EFxOcsPxKcerIy2aAFW/Hw6HV1dX1BdXRMhZXl8n7XnHW0UY11ADKpTphdKl2BvEGOjdaB+0x3RpZtv2crmkjKUvX74gVPTi4mI4HJJN1ChmdX1paaSvqnFJX+mJpL8Lv2TKdDpdq9Xevn2LOjPQgOPx2Fi0yxhACSKWvLq66na7FxcXyI6FfkGzOnI8Km9hZrqFCA3nk08kEugHUavVptPpYrFYLpfX19d6pVuONYXqwS3C4TCZGBaLRafTubm5QTvuyWQC/sV5MhQKoTKAmBVHlmKdhTrWpZNt26vVajKZdLvds7Mz5AX+/fffp6en/X6fYg9gGnOYseY3PMX99GCU70UcnnhnJsdxwC3dbnc2m/EoGd4oAkL/GRM/BQPrO5j+EFp5m/1Hm5VEhu12dwDzI4OyXq+/f//+5OTk3bt3h4eHcPnhJ+icgUbbxWIxn88jhxe9TBOJxHg8RrUdFElW3rBxIpIpAmvyqep6VzyIGBAxQ/F4nAp8pBklk0kUvsFbQ3vV5XK5WCym0+l4PB6NRujWSIX0xIL7raouR3RRvlqtZrPZaDTq9XowA2AmPLBPaYeK35z0V+z3VTKZrFQqKDgKWEYGbzGCvpdoj4W8rUqurq56vR7SfvGylFLcX8/f+5ZvDW1dKpXKZDKZzWboNyYeOWDP89shnsxxY2zQcpOXd0H4OzkTqdUwB3wqcMsJEACb1mazub6+xmbudDroAXN2dkbpFAKdkLNSP0W80r9JfiLUCEZ1EykCtw4PD3FcR3I90Bhdo+9bIRXFvcBi6MRLjulisYjwEuxk3blB/xr3EvqClsvler0+nU4h28fjsW7B5fwrwCjdHTKBWIz6UV1fX3MNgkge2Dt4WQC+CMFcplxFuV6vEQd/dXU1mUyonii4DPXtCYnC8oKsSmfrYjW/Hv3cYJTIcWsP2W6WrlIqkUhUq9W3b9/C1hKPxy8uLih4FK3VHdfFT2cp/Na45/z2h47A6A86Nhl/e++G00GeZaqdic+RXRGPx3O5XLVaPTg4eP/+/adPn968eYPm12Ke4XA4l8uh/gBixrPZbKFQKJfLg8GAGnCDY9frtXCRCHUYQA4L9PFjMxxhMX+g5EKhkMvlKE0EZlF0n6OAToTWQbiA7dGncTAYjMdj1Hmm3gfKK7z8cGewXkfHqeFw2O/34dmBHKFTvt+7fiUiixH/HJoSvmnb7WF4fX3d7/f1lrlCDxESFZehmdbp6SmOpmAT7HYah3jfT9+IF4rDXqVSWSwWV1dXqAAgolGDuYPQKrmzlVJ4RpisACOQidVqtdAdEVF02Ww2lUoBklJFHqE4+aPZLEUabcpRY3g4HPZ6vV6v1+l02u12u93u9/v9fn82m4l0CgrRNj6L0sQUh0f6r17COe0lzOEZSV9kkYhDBDNNo9HArri5uYHREfZ4XGNkT4d5qwVavbu7G41Gp6enlmUB8JFbUh8wxFoxBWhbdN8tlUrz+RyGhn6/3+v1xDP6BXQqr3FUuccwYGJ0a8NU0bRlNBr1+32UTUWUajKZ5G296Y5GpnZYzgmOechamUwmg8Gg3+93u12wWK/X6/f74/EY8a/KLTugjynAOj0dX7Qt9e/PQj89GBWoQpwF0+n0/v7+ZrOJRqPlcvn09PT8/LzT6cDyR6iU9mtIa0TBD1tGicz3BAeIjtu60E+OCzSpk5GBFUPe/EokeudyuUqlgipOx8fHR0dHBwcHCHAUPhEaDekjqEWA6LpOpwMtBeU0mUyASheLBdwZdNOQt8GSH9B07nM6hEIh9MYgNIwkIVQnhvalgFHe9AjrAJkCZ/14PIZ+hYrtdDqj0QjZbLZbml4ssmJ6lC+ybgGC+J7NZgCjQMnAo0bJ6/e8r2R5K57gvaCtS8itKooDBpgUmTRcC1rehFnOLOSYU0rd3Nz0+32cWzabDZLrUSKUJkPvWteOxPs8chQFQcvlMjZDq9WCTUg8oJ7PayT9mpubGxSkQ74FDmZIEKlWq+ALqrpP9w2ZigQ7bngfmAXgA0UiEZnT6XSgHeGvRMiBbscyanq+8vqi2aaqWy+H/NjzlzlJGgEl5HzI7aWHY8lisdhsNtTuVeQYKdP5nCs1/BYSGEmHkOQ4MvGf6I36/KaKeZZKJfRnGQ6H5+fnvByVcmGc401p4g8LnnUY0bdIJ+r1esibbLfbl5eXtVqtUqmAxYrFInwRxGLAvqJOE40GaIvZQg0NBoNWq9VsNsFiMO4A+gP98xUWNlGx2mJP6hz3a9DPDUY5UlTe2n6gUCiUz+d3dnZQ+Lder5dKJQRFdbtdxRphK2YDUD4phMGkS239599J0kE7oiHq8fExvPNHR0fVajWXy6GJpXEmQACQGmjvVqvVGo0GmUxarVan00GcA2JJ+SPQIwvSb0S3UyYWQpAQkj3r9TryPev1OvoeZbNZMkDy0EwuMYFH4XmEFLi8vEQFk0gkMhgM4J3h+UnKy9X0hzhR8Hnato1b9Pt9VAtChAM6hfAxfzEx8RQyLgUkO77CiQJbcWdnJ5vNKqVub29RmhvYyLIs+I4JZVKdI7wmHisChUFnlcVigZLDlmWlUqlCoYCNQcW56CxqacZRGl8Ew6Dj6O3t7Xg8psqg/AH1zSPIYTlSJL7oXjj4oR4wXBalUqlSqezt7eF4WSgU0uk0UoAt1rBXLDg55ck1jzjas7Ozf/755/T0FJVlKMYa13M3gqXF5OkcJBAPvZGt98grPTPRwYxENA+XQu33zWYzn88nkwnSBC3LQmkIDom421Ax8QhuxX+xYWazGXJxkDJYrVbRuA4TwEyIMblSEBxHm2d3d7dQKCilFosFVXzTH9PxCYQjVhL8SwQYulwuR6MRLJdAoo1GY29vr1ar5fN5GEHAYtStVxi8IGeoqRVa6cIvf3p6ikq94/F4tVrB9cFZDER/O1rSgngo5eU4o2j9eVXPzw1GBXHGI40FmyishjAnwDENzTeZTMgSAL6iBMBH3FrnCvUEAEpMyx0uHCuD4NEoFosoJnpycvLp06d3797BIEo/pLJzFrNlksCKRCKwTaK6Wy6XK5VKFE6KsG7oM0qwFfM0IlGxAqSixEJFo9FsNlur1WDNPTw8pCTHbDabSCQo2k/cUcgFnPXxK0w77FIoFAKy8Ys6UhobG58F5TD7/T7yPavVKrcWG5/955UO34OESKUcHe6uSqfTOFlBUyJxAaTvJZ1V9eQk27a73S7CAJBpgcMDCsuTxYXb78UW5afTkFuDBqeRXC4HpcXnQIpH17ViKfiwXHHieWezWTgcRiQ07JdoUoWe4NFoFJgAm5xbnjAU1OR6vcZJknIpqMzheDym+dB5IKT1WCKlLra6AKM2y5t+yTs/gGFf7JwfShyv6C8OzSYajQbMdYSlbm5ueEiM5QZhixHo/GO7NYNxF4SsXF5e7u/vI0ob8dmixbxxF+Fv2+1mh8+phhoUAf8VGkrRxChYnLYfB3l0R7IK4wI0H0ZHYsR/owPcZDKBcRQshodFIRc69RFrwBSC1YN3HonzAKP9fp8/L9lZ+bNw0KzYJuSnQfULbU4j/fRgVDdmKNYrnD6JxWL1eh27KhwOU8OxdrtNLnuCpEaFFHwW2RJxkmgQu41/xeeg/yseORaL4QCKCNF37969ffv26OhIBIlyuw4XT5Y34AwWSl7EGDWHyUueSCRGo9F8PgcC48xvVLfiqfVv4Y4Bkn779u3Jycnx8fHBwUG1Ws3n84lEgpKI+V383gXmj1dMRw7gbKpjz7NhLC3KUJ8kLRH+QLfJUCgEZHNwcCASPGmcX1JwbLnPtxxH/EuLRk66/f19lEeAqkC+OQ0iToAOy+oLuV1Y+B1Rbvr09BStQW3bRptQnszEgZQ4vJHFiDRrIpHAgeTg4KDdbiMWDV+Rc1wx/cfn7McUlte/7zjO7e0tot5Rn265XE4mk1wul0wmyV2A0hP4L51XgfKp3wdcBwit7vV6IoeaT4A/+DY+Iv4s/Cn4CD8jvUAWftCUxIlCfEv1K1C9AZgMpcroVxSXCe+EGJyDSBCKQiBzHM1y7+7ugErpGu6KFD8nFqNP4Copl8v7+/uHh4dXV1ftdpsbj3AZDwwVO1YodBD1YMO38MOAU8jPDqdiJBIBEuU6hY7BgssQ5g4si9QFkXzpt3RCDuhgXXlf/XPJ4RdFPzcY5Vjq3s8ty0qn03t7ewjiRgzWt2/fms0mqmzigKjvA36oEmBOaaYOv11iRFEWiwflw9K5jf+W30UpFQ6H0T+wVqsdHBzAJnp8fNxoNJDoLexDjjfLwfL6o/mUAN0APakNBuUPtVotNNIlv4NiPlO9Wr5YSVLP0KAQiI1G4927dx8/fnz//v3h4SGiC3hKI39wIxLlTqh4PA48ijr5CKWnQzzIuLDKJLm46xPuFVTmi0QiyKfm5jrlBVU/Kf0Lks5hZHljtUEom1Wv14FE4UoTJweevqC8At1hYYtEiB/9+vVrOBy23ZL4KC6IC2iLcnbgvEl2VpoJyla8e/duNptZloWiSDz4hwd86xztJzEEvMMpCBsYIXSUyQdWiroETYlzF+lIZB+S6QvZFVTgkJMwzCgvuwVMlYiYlKQlh7z00vVxXunZiYsyncWQwIpgRxx4EJrFrxEnEzE4qRX6Cunq6N2AzYm0Wg5GKSxHL1VmPLqgyMbx8fFwOLy7u4vFYr1eD2XwqZEbNpswhRp3Gl8T/i2C1GHjRBVSzmKIzAEYRWFB5ZpmoVDAYnRiBIshV0FfN8Ugis5rAlcY9Z341vjVT0c/NxhV/idF/eVZlgWHbzKZRE4A8ubg7VJKQXbzX/EAFxpHDGv8V5+Mfgq0vBQwgtCOAFgodggkenx8fHJy8vbt2729PUSwWW40nuNNHtKBr3HFcBBE50PAUNSNc9w0CFFwhyNdXWwpn6N40AAAIABJREFUDfve3d0hKgDWr+Pj4w8fPnz8+PHNmzcINoLTUz8Y6GtrXDGkcwHvgpRSUMx3d3fT6dTPCi4+UQyScim5XC77/f5wOJxOpxSN7kc/OzZ9dnJYbp/yHsnoGjj4EOY4nU6bzWY6nUYPWxrEZtmBXCnSG9SjxIbDoeUaKWOxGAJ/eZqFTvT2OSQlMIqSHe/fv1+v1+Aay7K63S7ZyzkANW4DPn8VaPpar9ez2Qy9rXm3GKqGhhR78CmkGbQjkCjVG7FZ62AxE8cbXKgC9Tqfv9K4yXIPcoJ3XunfJ31rOY4TCoUo8W61WrXb7UwmY/Sn+719/XOA0VarBYBIoV/8yIdfCa8F/8Py2pIQPHp8fIxeGBi51WpRCygU3g/AzVuS4zhQENfX1+PxmFd3giqh8x752cBl9O+dS8RiunXGiIbvxc20GsHM+FPTTw9GQQEwhQ5bvPcgjHw46IAgzeGDRhC35RozCKYEmP22nyfHnSLGRXn3n/J65OGPgwMdRV4qlUqj0djf3z86Onrz5s3BwUGpVOKalaJqaAS+Vnxbk4YmSYHLEHG7s7ODdApkkYv62/qa608dYo2PQRCFiBM9OTk5OTl58+ZNvV7P5XJ0jHbcvpF8HegPuoZboWjmojAHJXtiQdBxm4f0cUOy8gpErlmJYLFD5ZHlcomKBHTxT40+Ayb/iOfSTxRiEL5iPHOCQlDq9fre3l6z2RwOhxTT5jgOuqw53qKetKV1bIQehuBiahNaLBZ5/hmP6OI7je8BDq2gKQ8PD7Gvbm9vYXTkwRsodiNYm8+QvuKgXKBA/AGdpy8pNCUVe+LeQ2hEv1Bpse35WxNxohzQ6OhBf+8cHOjfPiM9QjEHzEqs+VMn99z00Ck5zPxmuRYKcBC6dSDfaDKZVCqVfD6fTCZ50VxstmD0E/KWkYLlHugNvcrg787n87gAfgmhCunn9CF9EgqF0ul0o9GgohBUBIBeE8kEPlrAnIU8d1gQDk5u+k8o/YAKC4LL+BlP3IJupPMCraqIxxXLwh9Blxs/tZbR6RcBo0YSOonvb6SQVyoVx3FgRUNLlcFgMJlMFosFimvC5H59fW0U6Ebi+yNADVvMimNkdYv5uWD54KVAeZ0XIpFvyIO7gxUDvwx/C+BFHeFpSmIcATT1p9Z/sru7m81m9/b23r17hwZRAokqk2LgUpWu4XFCEHOUXJxKpbAUsOZypwnwKA2uu7FUoDhzHAcOHfRQRTwDpbbw+b8EkcEfREdFOn3XOYuXyIUsXiVFqsGJgT5hg8FguVxaltXv95fLJSkPi5WMcbwxjg6LCVHuLoVVO5FIoHZEPp+PRCLlchnNY3iCHY9so0GUe3LD55Ak1WoVmglBY9hmk8mEPxf+NgZtK8YmIhaI6zk/hEQglX9yL2rhXMklpPiE1pDyiAEIIA8d91DN3ykfRFfS25CYvy42+ZUB1+uPrLw+a79Fcxg9dPLBdO+wtA34ZJ7lRviv7ZbbJNFEHqq3b98OBoO7u7terwdAxl8fvX0uQCw3zdxyM+sRf2lZFpwbKJFLzc9440NsJMfrrdbfHTIByuUyJg+piwahw+EQ0+N2IhrcDyCKpVYsyitgqXVPwr0UcslP7QodTRqWXhNB1ZDbUutBm+HZd+93pV8ZjIJoK3CAZVlWJBLJZrOUil6v13u93nA4RKcHpNQhEhkV+BB6RYZGIxnlu/HKYGGHUBuYbHd3d9GOCKXgoUHRCJgq9KI7UTQa5ZueABntdQExjfxvnI/tdilEjTRYp/y0QsDK8E/Qjnx/fx95V41GQ3cSWSaDJZ8zCTLxaJwQlgqXJeysUN4ib9TRDGz0obg1rQk8yCizjxgpvypaLwqPcl2ivK8sWCs8F+mQhSamLzUasRwfHwOAwgTY6XRmsxmHaDxozDHVteX/nc/n1AMT0dW2bZdKJWS/0fXQcBQPTbXfKXoHGw/hrY6bHofWX8i9RTkqKEXLzVUnpGt548a46hJa/156BGyyfRogK7Yx6HUg8g/JHMDciIuly0Le2HdawGCBGfxENCVaJX2oh0JGy4X7mLAOL2hAW0sh54M88GkMFDBtoyB6yo3ETcWbUkplMpm9vb1Pnz7d3NxEo9Fv3751Oh0c1+kaSiTldk2h8ggaTqfTSCRyeXmJWhMwMTiOg2a8fINR0ItYVXp2HIRQiA1SF9YipdTu7u54PL6+vnZcHxq9Wb8jEA3Lw6Mfuou2J1ou5ZV79HJpnoj8plxbagtMs7WYAWvLW6tHSYYfRb8yGA1Wqwiuglm0VCqh7dhkMkG52n6/PxgMgDNQrhbJvDxrhwbXXzaXyPqtjcqS087OTjwep7ZDqVQKRWTK5XKj0Wg0GihPQ40i4J7Ty27zPHR9HTiH8Lnp84GWRR4u2hrp9Yxs//L+OhJVSkG+IOb14OCAnDjkcPf7IZ+8n3Livwq5qdkUQbtarcbjsWjhqJMRvfEPqQD+YDBAtVFehJwuewlIFCRkmS6n+CffT4QJMKq8KyxeOuJq9vf30ZwCPj7kB9gsXwEaiNzousQXjzOfz7vd7unpKWw2GJk3L1De5eID6kgROZGbzQYZtfDLA3eORiMYmaAvCYzSsOLBhXYkA/Dzvg6jVoMK51Yr+gp1iBFiuF6vr66ukPXCBxQvTjdZKdP73WZu21x/L3H8RKZ3Ec8qQMl3VeR+66Av0aNZ0jh/yxSiHYvFKpXKhw8flFKARI7joCIYH80yWUbpW85ltm0jI+rs7AwBo7CwIOYS14S0lAw+mpDklmWl02nqb4SywRh2OByuVivil5BbJM7SGk8E47Nnf9dGDULr73htt8hmSaVSkUgE2VSApHw0/spejlp5LvqVwahOgpEoChNor1wuL5dL6jzW6/UGg0GhUAAqBeZAFjkaY9KuIoVBI9MdBXxRjM0c17JCGhRjUooVKn2iZGYul0NrIoBRVBlEvrli+pIrOS58/RbEiER1XkUOL4qQz2Yz0YpJ/HybD5VSkUgEEUWw79LngIyiweaW81c+WhbA13Ec1Ent9/vn5+fGEsrG+fNV5SPf3t6ikAcA+mq1SqfTxnk6PwKS+uH14PkIffz9iLCd8i6srqRjsVipVMKsUKoaZ0WS1PBn8Q1j3Nic0Gnz8vIS5ZCQEYhEPVzA8YqAjMq0zeBpqdVqMIUql2t4fhs8DFwHcyYVql28CF0P8YuNj6mzv5E7lCaa9EeDfTqfz4fD4eVyGQqF8GgqkP6djSTID+HRv3RuEVzw70zViAXv/Yn44+kTUF4hEA6H8/k8fYIMnsFgsFgs6If6xiAtZhQaYNVms0kshnKKvFwopTGIwfW9rdzg0Uqlgpw8pRS89qvVCp2fQLAm0tyUSRL6vWsOFulXfqdB/XVYjAJWzHaLcnCzKDy0xWIxFout12s0taK42IBl8SMxmZdPvxEY1eW7ciEpICACrlOpFEoaUfknlJsGHh2Px/ARwMmLmg74L/EA92LQXUj1ctiK8kzIn4BpE9559InhXnhkLBWLxUqlUi6XUUmYxheGn6cLL8E/vFbFcrn0C1cgzhfakbtTQdFoFGEGsO/yQYhFH8FF/HaKPT5M4NlsFhCkVCqhq1PAUxu/Eotsu/3TaVl03xBhjgc9yNPJMkUXiAfUn9f25qxsM6b+X/FV8IGBpLbfpnUcB73gLcu6u7tbLBaDwaDb7Y5GI6oNrJSCZ5x0iWKbgaNeos1mM51O8TfiPlFeQyQzOYGoXXyCQuKkaVABG+VdRBEA7iIUDm7u+9bBJRGHyCR2uA623IPuDmufi0A0GlkwrH6oRuQJiq/t7e3l83nLtfXyavl8egFMZGnkd5nSds5ThrW8mWd0jZ+U5lvxuTjXYaYHEX8vpur3XyOEDV5M/rnAeWLzhNwKzY7j3NzcwCKDBqFXV1f8SqMMMUoM27bhf6CNhCI20LD0UDSCLrcdbyVs5RbZqNfr4GuKGOHsrLTuFfqw+lopf/4K+fQUVdpe4mtLFwtlKrgM5rBcLofeh6VSaXd3dz6fW5Y1m8245R7eGyFAdKa7l78CVuDH0m8ERpWPY1pcEIlEELyYSqWKxWK1Wp25hFhSJFDPXcLns9nMcRzCoyI+lXaG2M3RaDSfzyONEfUvYrEYjDTwy6PDL9X4xMkSdTTFtI1C6hHro+9jZF8inQvV1EQ3M8XEPZcdXMrwp47FYmj7ic5YouOwLgseRPymlhvhh69g4MnlcjA2wyHCUQIXN+LuRrECTyWk4b3xxD+EjGvIxbSjGYe4GUBX1YqJWvHVlpuQvxp9kuIWiAOD5k6n0+v1ul6vHxwc9Hq92Wx2d3c3GAyQt267jVuoPab+LmhrOW58JxgWQZ/oPRuPxwuFAvakzrm6PrPd/tfKLRBB0au88TfqAChN6fIgUXoK4hex6/hLob/5vuU/JMtfyE29onwI260uwvGQ4/Z1pLnFYjEkoOzt7R0dHaGnznq9jkajiAgUaxvyliAA7ezs0IHB0mCBH4/7yUw/NCB2oNh4ZORWGgv7bWPxXp5IfKvvuOQHLsVv+Xv0YzG/efLPdY6zWOwyPo/FYsgXHI1GxGIUPMplvv52+IbEtzBbjkYj27Z3dnYQDlcoFBBYjyMfrsQgkJ/8ZdHq8acAaAYBjCJfcGdnZzabUcY9rhc9yZR3A/i9JtvbNId+yB+W7zR6CjEOXyvu/6QLYHhCH+zDw8PDw0N0QO33+6vVqtPp8NeKOCLb7abBGU2/nZERxJO+NG31G4FRi+k5kGMye6A/E3zluVwORkHQfD5HOz505BuNRsPhsNPpQODyqiuO10HAWZffC/7H4+NjVGUC0ESRKeQkJZNJtD6i3g+w4PqJsKeLTl202d721rywAD2UYEguj/i+D7k96A8ODvb398vlMhW6I+Iy94mPw8UHCGsLTA+Ir1fkVux98X/Fu4OR6dYlLMuLYm8/MRSwqrZLutZX/u7gBxHG109T+r2Q/kJYyrIseLL29vaGwyFiRkOh0Gg0Qm6TciMULS/x14rRSF3d3d0Nh8NoNIr+t9lsFhgrm82KdEDaS5YWMEpKFLdDld/NZoMaT5hbKBRCf2pdo3OlTutvXHbxX8frIfW7TDAmhQMpVgrNsiyxey3LQpWAo6Ojt2/fvnnzpl6vx2IxFDpFnzb95dJMCFIE6MJgEgpeMfbUL9tmKDGOcamVtnkewUTbTMZvcIeZqLkUCpiM/oDiK+Oc+a7j16OeWq1We/PmDbbuzs5Op9NBpw/xc2FlICEf8pYCQM1OlKwBZymlisUiukyDH6E6uRWQP5T4PB6Pl0olpRRCSCHDcV/0KtNXdUv4RTzu9634mzSd8sJ9vkqWV5nyKGo8yOHh4Zs3b96+fbu/v5/JZJCb1el0hJmGS0LjlLakF6WkOP1GYNRIYo9iYwHwYV8SAoM7HrUqF4vFdDpFH95oNIrgMF4HnpQfH1ZwPvizWq2+efPm5OSkXq+DUeGpTyQSVMWa98Ol8YUw5f64x62D3295n4mAmoW6pNMHxCPzyFckoYvROIc/mujNijUHHk0mk8CjiH9VTI/yh+J/68pe4NGXBkZ1Ig3EP+Fqw2Ykls7xEh/Wz7lvRA9+gxgvw8i0+Xd3d9PpdK1WQyFPzJPan+CHm80G74vPip+dBN3d3Y3H41arhQI09Dj5fF4Uw3dMpRVoG1iWhcKNijVaxO6yXHsYcDNpI0fLN793WZRm2DZeQyxJZiEj7uFggspPggDQUewCrd0KhQIuRj8zfTT+ypSJa2wvBTysmC3nZeOD0FsQNaf4fR0GxDGOkWG3eQVPIb7/xTyVCYxyPKo0JOE3W76j/DaAYnb6EKs5k0gkgJDAYlSwTCTTOMxfzMl4u+l02ul0vn79ih6heHDUr6CNKkbQ14Rfhm7MlHLOH4HjZpuV19Af348CNoDxLfj9hL8d/FCUoEKl7Tdv3nz8+PHt27fVahX1AQaDgeg+yEejx8EpVzyazmXGiT1RvX4P+n3BqK4ULea1JEGA+kq4nro8IxoMvY6UUmhlO5lMuE+KiAsU/jlFihwfH5+cnOzt7VEkaMhtPqanZiuvICAtS8/y7JuMS3mS9fRo4g+ap9GphBhZBD+g+zwOx+KOz/UIOivCPZRIJGB4TqVScEXpakloAuP45KbHrtBh+nd6IwGkP8WDfis44kcR7XMBaHZ2dlAeGEERNovLJPXjuJ5H22uVp2/1B1yv14PB4OvXr/gbmCwUChUKBd3+J/Co0BDEsNDoR0dHjuPE43GEAbTb7dFoNJlMqLMGH1bcRf9QeYUJTYCzocPcFDxaVLk+YodFYvD4UX4LIP537959+vQJarJWq8Xj8cViAeXnFzLOMRCJKf3lbqMslVeX81fpmGJL/JAoXYDnpb1h+Vf/Ebd+OtHK2Kz3lXHxxRwUOwKF/KvX+f3cdmNIjNuJ88Ld3R22umVZsVisWCzeuW2ElsvlZDLBOWrL++oPdXd3N5lMzs7OQqEQ1cRFgVKo13A4zGszGddBeV89zkuNRuPu7g6eTKR5dLtdBM4RmKah9MwtkB9S539w1uNTEoBBrC1nAc4gu7u7QPzv37//+PHjyckJwmBub2/n8zlnUppPMMuImQewmK6XXwj9vmAUxOW4H8fSt7BQ4hOUVQqHw9fX14PBoNVqIbdd9xEor02FCBXsK5UKWig1Gg2Y5ck7qUsfyxv3w80eghmekYijjPYMXQPZ3pA4IQvi8XgmkykUCnDZ8DZxfMxHz5YraWWSjACjSJ1OJBKxWAwVE3WOFX5G/XXc3d0hlBak1179IcR3iC52tyQso37sfjoF71K+l2j9QyxNHklCGMS2bTQdgO+Yh/8qn5OAw0xB9GhoE3p7e0vOjWg0itgYnl0n4pgDNoZyCzjs7+9Dtdfr9WazeXl52Wq1ms0m9CXCSfn42yyR8jKIrlbp3ZHqpXXgzWNAnD0tN04UJ+SPHz/+8ccfb9++bTQa6XQa2WNwEKGciJjVlpuf6+nga5QGRJTptRIYJb+NPjj/rx9TfFclbbl+bd4WyziTR8gQ4/NywG15TY90AV9n2w3eoArclmVtNhtUaEIIaXDf44BHABilCHvHcSCHiZ2V25kppJXWB+lZBJbrr8cZtVQq1Wq1C5eazWa/36eWoYppTMfkeeNIgO80oey4fqFvLS/xb7nxGBcjDrBQKBwcHHz48OE///nPp0+fDg8Pi8Xizs4OzLpIz7C94Uy6/vXbrnTrYEZ7aZD09wWj2DdOoBfDSDhBInzz9vZ2OByivygqQm85SCgUQqkL5Mgjhw5f7ezs3Hv6Ebz00Ed4ENGwAVqE8x7XHGJKIbdbcSaTyWQyxkV7IoTi/xrHgck5FoshCgKRuFRbWDwyyRdHs9LhYSm1y5jX9S8TVy2PXkZdsIpvlT8Aeuj4+vwV02SWa9sj5YS/EdJtWdbt7e1kMkHBNRSjoYqeASKbPufIDMZRtHVBTU2UTguFQslk0s9aY7meTYuZvpSr9rC9U6kUGlU0Go16vX5+fo7uiJFIZDQa8cahQrGJ2dJ/LVPEiJgS14g8f4iIVLvuN2w0GrCJ/vHHH+/fv0c3ilAodHV1dX19jfRNXseAD84fwfjq+ZwD1CR/cP4e9V85XiTKw9mNg/vtUjHnYPH7OHLclMfgqJ4A7vCblf4VF8i0GZR3YxBP0dyUG+61s7ODY9j19fVwOGy1Wt1u9+rqijoeWV68KFbbYeZ52mZ3d3dUFhBJ8dCbKGJD98UIQgMahYZlWXAeUt/garWKjjAIudnZ2en1eldXV/peMhLxjv44/ImM66//bdSAyk0UOTw8PDk5+eOPP/744483b96USiWYRdbrNVJT9IrmjqnggB8JdWx80pdGvy8YBfm9FZLvHF7gQ2IYuAZwvEO1c6PGMv43FArBQwFUhGA1IptFhBhnRZPfHgQ8F90rph1/fG9ZFjWUwrrpyVhPJ5ImxmlA6qHLMAXj3jsHWmr++LY3tevHIlEijkcf9EOLZeySjvcbXP/cuDH0D4OTlIWGoysd1+douUaUYrG4WCz29vY6nc5oNFqtVnd3d1dXV8JoJ1CdGJxSXPHhcrnsdDo4HyKAGxeIxlpCTfL5k6rG9VQwLp1OZ1xC9SjELg8GA/gT77zdNf1WbxvScZWOyy3XZc9/CDMVGWw+fvx4eHiYy+V2dnagJheLBXp/oJAZ/y2HifQURqXu+LtZ6DIj/xpXA+OAAcniKHSw4yU/PCEikbbxhz6UbDfK3E9ocHQoPjSyHn8u8blirz4AgtMf+uJks1m0g9nf3+/1eijDDtOdMKjzOfN/Rb6gUuru7q7X62UyGWTWozKMbdtApWJMvgfoLrR5oENR9walGFEGMZVKAYmiC9pgMJjP51Tohs4AltfNKFZDX0MVyFnGteXiFB+iCXa9Xn/79u2nT58+ffr07t27Wq2WSCTg51kul1dXV6jCAbFAA9qsj2vAa3W0qBWj389v2j+QfncwSqQzEmdy2p06sqGM1IAx/b41yhH6Vj8dKiaMfsh+MgpE+iqAb0EcghOCN2LWR89QHJ0DpDBJiu1vJ64k6ebnHHyxZHxqy002D9jSfmR8dmOoiWLttQJGE0KfvF00YCQSKRQK9Xr98PBwOp0iTAJ4VDfaGd+L8awCa2ur1cpms2jShrVKpVJihvpoQnvRVENuEUd0oAGhsQX89YB3SI7U20no6CSYAvahgDg4j1mWhYAE5M5//Pjx48eP6NCby+VQ2hClxZfLJZVYfvRWv5dNOP4Qn+s/pL1B2tdvfBrQYu5asSBckT87HqXxbdZ23HiZ8ef8+EQU8tYt0n8SYB8ROImmx6+nXQEMiotFZj01nRbE58BPtmDSdrv95csXJArbtl2tVtG5Xn9k5d0MtIa4S8htYYAQUtTqRtFu7OperzeZTIDtaA8bzdL3WhMeJOEd13RFvR5Rxaler7958+b9+/fv378/OjpCSZlQKLRarTBD/CEQvz4yKS8RC+d4A0b9HuoFqqpXMPr/E0da4n3TmUz8BGKLjuO6GdUPO/Lk9G00pf6HPuZ3IqFin0iEePxMkn7Q4RE38sOapHJsVnZRJzyyxXya4lulafenT/tfIC7fxZxhaTC+GmqVCXMOMQj9ED+hghKxWAwmwEfHBDve7HX9VUYikXw+v7+/jwSm29tbpNVT2xgCWzx8ioyXeFKMT8r19vZ2Npt1Oh3U/UWDPvzNfYjbPBFHz8CjMMmjzzsK6PT7/X6/Tw3eBoOBXkPniRxhBCtAxlRWApUO9/b2Dg8Pj4+PDw4OGo1GsVikBm8ic1GXBmhK7HgtT5ZlwRAI0IA6ISC/bcafWsg6DGKzupg0E7oj5cREo1HailQOz3GdrRQQiXrpfDSLFRnV140v6SMoQCgpN3YL2IKWkeaMpyBLMH4Sj8f1FsTKFbN0GuTPIuBd8NaKRCLFYvHo6Ai1PB3HEcUrYFngxdhtlt+G1wGBjzOMcsFop9OBfIhEIvF4HI4yIxg16giaPPcfwvuP9wuPBFgMbWsQ0tPv923b5h2blA+PbE9+LIbwUOTLFgqFSqVSr9f39vb29/f39/fr9XqtVstms+SfCa4PSPuWRArUqG3blBMG1EtwPMCm8O+AhwfRKxhVyic+SWl8a3kTMCHL4MAyxgAFAzjoTiomzxsCifuKv8Xp9tFP/SC690bbzIRQIEVN6eaBp0M6Eg1GWea4sZ5UH9Q4B0KiyhQvobzvKNj1/KKILw4+4c9O/dkprBbADvng2KLwg5Niw1AQfCiuuVqtQqFQpVIpFovoLCBWhjNXwCSViTE5IdOiXq9Dz4GblFKTyWSz2SCYDHcnUwqhUpqzck+GQDlw7W02m/l8PplMptMptRwjTUkmGTFbAo5+exi1S8PhMCppNBqN0Wg0GAw6nU6z2Tw9PUWDWR2M+q3AvWTEskA2aDqFeNb9/f2Dg4O9vb16vV6pVJBcqJc5xN5A07hkMgkrKZrrJBIJAqM2q5FpuzW6oZtRVh3uVMT+BnOW/pUxkQVvDSWEs9nsYrGwLAuRG/iK34iUNEryYfNYloXcSvQHAsAKaa0T9MV86LsATqKaHkig3mw2mDzc1sLEy8Go4zjJZBJ+Z1ja0um0qImrmFyip+asJLSb8kpLLhyQh9doNGy3ji+Wa2dnZ71eh8NhBFyRgdN243fpJIZlJJmPz9F+fT6fj0aj0Wg0m83QZFuEqwUgUT/pAa899ipmjlIAvV6v3W6fn58DiRrB6BNfrvgtNZ0qlUrVapVYrFarobMueq/wF0QsBtkLIgmMZsWWe7TG2uI4TTXOAUYRDoTt5Od+fIH0Ckb/PyLO53jU8UYvKa8GRWIg9QK90yr7CBIbgnJfQHp3SuU9y/qN872JY/FgQaD+X3v32dxGkuVtvwDCe09PynXPxExs7Ffcz7hz7/R0Sy1KougJEN6D9bw4gXwOMwsQKZEqiX39XigoECgkijB/nHROZ6U7IkrmLMtyPKs2c/cfPt4xsCXWD+bg8nZpCmmBX0Z1WSK6nHntfjLpfu2Hdm2HaFU7N5ZbSNdqtb29vfF43Ol0otGovLul02l/uU+P9cyUhy9fzySgVCqVg4ODWq3mrt71xRhqZVD92vTVoDqZJFStVuW9WOafplKpNWHUvzsJQM890r3qkgxMVVV/XVlTt7B+K029VUNdPc+Tzwbps6vVat1ut9lsVioV2YpMworsCS4JSWqTqxqw/rPTJBJPhUL5E8tyv1KkOTg4kA2WNjc3pSUymFvfi3xMZjIZWaNqd3fX930JUlL+kWQZGEbNtHFZ5bdQKNTrdZllsmrx/MBnSESVNvXl0eVk0EqlIjVyKZnLyj7y8SyRyFsmVxNG5Q18NptFIhHp55Wd4YrForQtMAytOefrmUQuJ2Fvb282m5VKpdvbW3kIqVRKnjMmjMrdyQ3lDI/HY3l6ZDKZ/f39RqMRuFqzW99JqHYIAAAgAElEQVTVz5bA7wDuc1gyerVa9ZZJdDKZRCKRQqEg85BkWRI3jC6WO0GYr3zmG778StYMlqfZbdBiYevPc8QZjmyuL1+05N9arSbfKuv1eqlUkjAXiUQSiYRZHl/+yvqd4YsvduukCdPbJi8WeWva2dmRGHp4eHhwcLC1tVWtVuW91P0KIa9NGVAr37HT6fRoNIpEIqajyZxJHUZN36y8yuSBy86O8lXBfQf+6tj9dP7qYdR6lbp/odu769LJ80Bq4+sXE/FW5yFzZD3USTfJfe8IPM6DXr1fzXykmXe3+7xB+0FT+RaLxXg8lg1U2+22TBOxZoeYmz/Rw1ksdzfVW5sGvjL1X8F8suorRNVcKNNP/RRtfhRr3n302ZbVpKVjrlwuy9KS8pGju+n1zfXbsZxV2f1vd3d3d3dXtpV/UPMizvhL81t5pZgGyDYKpuc9nU43Gg3ZvdCUxCJ3u+nNMfUHSXS5u4m8KqPLrcLk3dydvbTqEZnLdfBdLBb6RSQlk1QqNZvNZL5FZkkKvTLL3oxsk244MxBIv+EEvu2Ylsh9SZ+dPDnlnEgYkqVwpN9QCjaSDt2PLnn3k6EFm5ubi8UikUjU63UZniuh34zHsLrpTZSX9phEK+Uidzdg/Xe/5+elrF5cqVTm87k8H7a3t2XWtv7MNmHUvI+Z9wHp4jS7BDUaDek/Daw43qdJnsp2+nFFljXper0ua9BWKhWZ7i2VXfe7kzmUvMn4vi+ra8myD3KccrnslrF9Z+C1p17p+gfr0emnrnm6+svv8J7n5fP5m5sbCaPyPcR8ZbpVI279u2MezAmRQoDv+zKmUwZNuqfac96BI0HjR80HjfmtabPke7NyixRx5WvY1dWVlGPny+1DTfeIeYnpvhTrFOn7ii7nUZnecxmHY7YT39nZkW9929vblUpFOousLwOL5a4Z0rzZbBaNRovFooyGj0QiUi4172bmTyPH0eM65PUoG/nKizrw3P6AH1V/6TBqfdSteln6alkf/aTXPOevq/+rr2ZdqEf2uDd0G2z99jvkUfMJqlNXYAPMedDvEfpQt7e3w+Hw5ubm6uqqWq2a1UatR/S4SdRqg65Gm8roqlvJv7dq/3HDfLjKSDiZmP8DvsKF/mgPfNM3F6ZSqXq9vlgsisXiL7/8Mp1Oo8stGHSVzspk5vUib4uSC0ulUqPR0F1R3jKsuE9j6yPHC0ok1vNK/gSyAJMUnKrVqizztFgsTAqJqK5z/YP1EjYVRHk+SBdkqVQql8tSr/Kd/k3309E9J+Zn62pyVs2zSD669vf3W61Wp9OR6bRSZjbPVTO2xJ1h4/455DVrFjIzQy8k9UoHcblcLpfLetFf96Ut/0qI9DxPOgH1JljSfvO2cHt3KQPrLTS6HKsq/enySWk9E+QHt5fJfQv1VLyLLGt4/X7fjKwIzEPmOLfLafi3y42+ZGKZnJxisShPLevuvHu8za55ekvguL29jcVilUpF1lLwl5PJpErnVjcialSJeQ7I+pr1er1arcrS8e650sdxX0pe0Bu4p/70/rKknc1m5edMJrO7u9vv9+X7nuwRKPU5/fI0ATFyd6qoSX7ma4x8M5FapnUa9ZNHP66omi9l/VH0md9YknMrL2f5stdut2VnbxmnodeKlgqFeZXpsWTuO4YZoyxJ0XSyy0tM1uWoVCrValUqL7I2ufswPc8zo3ckSUu3icRl+RPIeTY3iahhGPJW4C07MeRQsoSiDK/Sp2XNB0G4/rph1HqJWu/m7jXdd4eomojj9nqYq616/4qoJLrqLS9ydwha5O6YAd28b3xirbm5TqLm5W3u2rzlmTbr0+XfDXAyprDVaskCOjJeTb7i64dj3epbHpR7rqRjTpY3l/EVpq7mre4DDWySlJ3MygCBnXrhch+++xSK3O2iklnqmUxmZ2dHTo55qrunyGX+fGYYnyQ5+e1CLQPp3sRqtn6F6o9JX5Vt5FNcPg9kc11ZD0V/EJobWj/oZljH95c9jBLmTL0qcjeSBsYjczTzBcb8e+vs8Sh93NJlKY2XPYdlrUGJpDLLXvKo2e5LItSqyeOmJiobC0tZSGZi5fN5U4iVvkKJqoHDN/3lAAb5IDT9+/pbnA4c3peeHt4yV8mfTL7Fuc8E949lzrMVlyORiLRcCrd6ySSTY/SfSb8b+2oMsb8cRiyf+kbgO/ODWG/gEp2lKLi7u6tPo/sSs8JWRGVoeQnI+48sW6vvVD/33HNo3ges31onyrzWJN9IXiwWi1KXvV2OsQ4cDOC+ysx1fPV90sznk2egvolunr+cNe8e8It/GnnebmxsSL/5wcGBvP8PBgN5icm3F/OJMF3SqdT8IcwXG1OjkSQqryaZrmRebqbfQz4jdJrUf1/zhilvBdJO0wDzGnR73gIjpnnU0jZ5B7Pe3wJPVOj+umHUW/Gx5N0dUWH+eIFp0vpoca/gHjzwHgMFPtWeOu64T1Z5g9Yr/rgN02807qkzFovFYDBoNpvZbLZSqcgWc4GvjW95wZgmuXFhsVhIJ5es8SEr6ZjfWn9361BuYDI73UvkCvzoeuq/1yrun8k8osAmmUdnlsZ83Jb7akGW9Q2IqolBVvizPl9vlxOr5SkqnVOP2GZPPQ2sj9g1SdRcwbv7maqzkf48kyeSPtTt7a0sL2/CqFlTyXyDMmu8u6+yiOqgl+enXuhUZg4FfneyPv71AeUMW1XMR+TeqRf0BhL4lJa2hfhaW8MNfBLspAf5Ww5rXRIYUwKThxUcrU8WNw2b0Z/yrU92wP5u1nz4rrmJe9rdnnEZetvv9yWMmq98utNMT7SVJ5iZzy4/6zCqv/J9MYDqn81jNKt/fNMp+9JpMefkKe7lW/ylw6hOGO6LWb8MzDtd4Edp4Dupp55kaz6AzSAb694Djx9x9qhcn3cfxYZiirhuXg+Mj1aGWywW0k0v27i1222Z8WrdSo/TNcdxD74qxerTbv1WJi0Nh0OZQTUcDhfO/jQmNFifx9FoVA88iCynRZvRSA/aguuJrHoa6Gdv4Me29Tx/XPoZEnhH5pzrRponvLlhZDkfSF/t0VurWZnSe8jXJP0eYuVRT9Wu3IcgdT75SiDVUFO2Mf31ugPRbZLpzdBd81K8cRfQ8e/GfeuP9cXY/Y3024j8EPhO+9TNeGp+UKfEV/u6g1jn033FrfoQDJGOyF/kO9bcXMYdyXK/8jXPhFGz0IreuNVT5UkTTM2rTEoS8lkgX/ashlnNcD80n/S5rV9cj/UkfHR/3TDqxk3zK/cpIk9BPUvUuvKaPOomG/0rs1Kp27yI05Pi3X1au+8dD3j8QVa99eiuK3kF6o9nT0VA99TpkCfJu9vtplKpZrMpaxFbW7mYIUeeOvmBTXXvy1flN7dTw/O80WhkOkBlpXH9WzMY3HogppNaf22QMX+ZTEbGyMv8Hncm1vf8BF3/RrPqfdlc8hRNNc8K64NB39eqZ51umLlQ1+blh8A/9KOLLHtIv+JW3t3Ha0bmuM3WUdUMr9Tz7dwBo/p1p+9OD2iT3nA9sjOwkeaGVhh1r/ZY3CStY7F390P0Z8+j3999PiDMm8aqp0FY5zyivoh69376WY/CW/01JrKcE5ZKpcziKvJNz8xLtiZjeWqXAZ1H9cwBOeb6Vul36aeO+4Gfy6s+C8L11w2j4j5JNHJ3RJT1AbPmL2rFtcDPHpOf3FZZ14yoot36K38j9+Vh1pE2g3tkPQF9k1VPd5MezPVvb297vV6n05F1HHu9Xr1eX9WSyN3vDIFNjdztwNVj5yNq1OBgMJA152QAuyyPEthm97GYfhldSZUBf9IBuiqMmisHXv7oVt2Rfgdc9c74RE8k/dzQb+X6OoH3vqpV/nKNzx/zLdViPsP0JWv+TO4lkiATiYSeGrLq2691L2ZkW+R+qX3VKX2Kk+wmaf0CNO+3gQ1zv6X/4L7/c3VV9JQfAlOm/mhzj7Dmi+5TCHyzuudN9NNj/We0kBeIfPfTw4gDJwi6AUDP/bjP3QW28ylY78Dmfn/M98y/dBhdnyP11QJfnFb/tfU3dp9nbg1g1QSmVYkzrKeRhFEzLCaVSplFMdbcSrfZavZoNOr1ejc3N7L3jMzqNfflfhStpxO/uUc90er29nY0GsnEqdPT08vLy06nY617rNvsXqhDrTnmxnJVzlwuJ2E09G76Ne4fgLzVlf7739Gqb+SrznDgfa3/QHUb7N392PDu9ty5LyL3Rapf7IGf1l9xTiLLPLrq0zHwbOtm6CfzN9InxFxo1Zu/eCvryqvOuXd3DID7DrnmUev/3v+hWT9bT8X1z0n3vh7lzdZ9K7Pe31Y9RfX5XHPk9e180Ks+8AqBzQt8XA+l23D/V/pDmWeC9RbhOS+xb78v6/iu+7z7rckM9+G+twS+v/2Ank8Ytd5ovu6kr/lw8pa9wOaS6HI2/Rfn1HtB+dIULWR6kLlcegciQSWrwDd0/bb7iO+eVlOlBFgqlUqlkiQ5swWZe0NppPXeGlVb6N7e3sr2G2dnZycnJzIoPp/PW92I1srP+l7Wf8BEl8tGyn3JFP7Pnz+/f//+/fv3Jycn7XZb73Pj3f3Tm7uw/vrWvUhlVAaty5jRwG76L57wH83tkvV4H3oc65N11Usy8m3DmHyH9Vvv7svEtCowM+kGu6WOb/lrure1sog1AVyPz/7qO7Xuzr+78o5pmO/7X7w7c3PP+YwMfGj6b2E9Adw3qzVPj0Due6B1Mt32eM5L2GqJ+3QNfGgPEnE6dnRLAteLfdBdR+4unPQtTV1P//UfkXmqe0/5Vhn4FmG9xh/rjrxlTvCcTyX3bVB/0Kxpqr7yfQQ+hZ76GfLtnk8Y9dQ+JWs+PNa8jVpvap7zdcqsGGIWoYgsixYba/eBDaRvq0eZyPiVyHLvbG/Fu6R+vpqPk/vf+/qGWZfIstLlcrler9/c3HQ6HVmhbVU3t7nQrIbjnpzhcHh1dfXp06dSqSQbeMhC0/pU+L5vjeB033b14LnA0XjD4bDVah0fH7979+6PP/549+7dp0+fWq2WNVbVU390fR702dZzrSLLbh0TRldVRn/wtwCXeZv+urdC3wl2a24eeYwB9dZ7rn/3G4XnfCroH9zgol9uj9XUNbc1F1oj5O7Z5ffQZkSXy6Gbtw4vaPjEqnaa2WOrHoUIPO36Ltxz+3UPJ/DCVWF0fcut5j3imQ/8GIqocZlrnp9fPLL7lvgU9Ehiz3mr/GpP12z3yJGg7vvHHXGuX8vevfvHrRBirmw9MQIflGa98VrX/+ILPHTPJ4xa4WzV/IBVn69uEtW/so5vbh513L/Bcn2z1rHbSBOwVr3j+Oob2GN9qAe+lcsic7KfhOlbj65dxsg6n+4xp9Ppzc3N58+fZYebyHJhC706j/v25zZVfrhVezxGll+1fd+XyftnZ2dHR0e///7777///uHDh/Pz806nE1gZdR+I/q21oLfMozTzlOUrymO9TYco4oxJeKzDPujyBx028Hlr6Nfsql8FticwM33dC219zgts/KMnUU89BLnQ/QD74m3vb9Wb7Zq7uL/Av8UXP63vf7+PdfLXJGbzqwdljvsc/xE9KBx/41089QEDE+rj3rV39xPki39ZfU1zwzVvZd/YsKc47GN5PmFU3OevuP75YX2V8e5+p5edM+SaG8ut9iRLfcWbqQmjeiWIZDIpbdD7KQe2U0fnx/16Zx1NlsCoVCr1ev36+lo28XMnXcm3Z5OP9XcDMzvenHyZVn92dia92xLsZL1As2G9mblvDhj4zc9fDp/QEUrGibbb7fPz8+Pj46Ojo/fv33/48OH09FT2stM3N6dU/631eXZ3k4out32TRT2sdft//K+h6/2MLf9ilnrorx7xJt94zEf5cAoMbfd/LD/IifqWu/ihntX3z9Ch+8Gbt8qDmv3oL7GHtuEnej48kecWRteEALe4Zf1WH8E9VGB5T+/7vObga1obUYPDjOhyl1vdKWY1QDfYeNC9r2qSe6FsDlEsFmVzs0Kh4G53K6kxcEiZLluaBvu+PxqNTIVV5khtbGz4vr9YLHK53KplaFZVGqxLJpNJp9M5Pz//9OnT+/fvj46Ojo+PLy4uTBL1ludZj9WzjmbVd/XxZfiszKOXVSHNr6yjAV/Beta5bz5f/Pi0Pt7uWQQF/iLcN3brNfUVLzHvq77pwXtOYTSydlkyXajzvtTRFlg6XRVwZcyiWZDs2x+IuVNd9tON9+6mukdMooF83zdhVKa953I52SDRXMcsH6NXCdWfo+bMRNWandPptNPpyHkzU45kmbd6vZ7P53XBOPDD2JwH67emJvrhw4e3b9++e/fO9M7roaL+chSE9azQTw89EMI8hHK5vLW11Wg0KpWKbO635gTyloSv5j4hH3pb9788IQHv7je0r+tgXPUS+4pD4fmEUc8pm7n1Lf1NSMeX9W/Tvhrmr28lWUpm84zHY7PLuT7smq9WksaGw2Gv1+t2u2ZtI+/uSiumoKunZxlPNMvB/Gy2QZJho7KdYCaTsXYtkygZWMEVpuUmdMoOy2ZLQ3P5bDaT/TBqtVqhUDBjMVcVqs2fxpzV4XDYbrcvLi50Ej07O+t0OpPJxGqV2/+uG2w9Z6LRaCKRKBQKm5ube3t7Ozs71WpVorl7c96M8C1WvZUFXuH+hwJgBPaGub+9/3Hw1Z5PGF31bLjnWJBVkc6kWLmCiVCybuXnz58/f/58cXHR7Xan0+mDKqPz+bzf78uM8nw+P51OC4VCLBaTg+hFgkzo1AnsSWuiOgeb/yYSCb3dWeDCbIFJVB/WbfZ8Pu/1erKPdjQanc1mw+Gw2+1ubW3VarVKpZLP52UPQzNoQXesm0Gli8ViNpvJKk5nZ2efP38+Ojr6888/JYm2Wq3hcOj+gdx6s26t+1hSqVS5XN7e3t7d3d3a2qpUKjIBa/2ZBB4FTyfgSfESC8vzCaOBAjvc11zTvYLv+5JyJpOJVDGHw+F4PO73+zc3NxcXFx8/fvz8+fPNzc14PLayjhtldL6ZzWbtdvv4+DiXy43H4+PjY0ldiUQinU5LDVLqgibrWCVefReP9RKK3F3NyqrwScOq1erW1tb29vZsNpOl4yORiKyBb61f6B7cU/kvGo3KGbu9vR0Oh9fX157njcfjTqfTbDbPzs4qlUq5XC4WizIuU/Z/kklO3nJBVtlM1WwuLGvpX19fn5+ff/78+fj4+Ozs7Obmpt/vy7cF6wGuOQ9u0Jf1ViuVytbW1s7OztbWVrlcTqfT7v5vAADgnp7th2hgEPRU2ApMJFb48H1/Pp+biHNxcXFxcSGbqkvfusQmudAKo4FBRyehyWTSarXev38/Ho8/f/4sU2Gy2Ww+n6/Vajs7O9vb27VaTRKq7k2IqKGZ5kE9XZVUk07qra2tw8PDTqcTjUavrq6Gw6EkQrN1u26J+dlcIo2X3nlzicw3kipps9k8OTmR6UFasVgsFAoySCAajc7n8/F4bMY5dLvdXq/X7/f7/b78aVqtVrPZ7HQ6w+FQ163XD5/QzQ4Mo+VyeXNzc3t7u9FolEqldDr9I2+8BADAD+55htE1o0I9VZ9z//XVjJbb21vpMm6325eXlycnJx8+fPj48ePp6Wmz2ex2u8Ph0BTkxuOxtT3mqjBqBp5KZXQymTSbTen4TqVS+Xy+Wq3u7Oy8fv1aIlS9Xi8UCqlUylpw1Gr5I25iseYgGxsbuVxuc3Pz1atX4/FYlqaSUQp6OKaOcbrZcoYlhuoaqgn90+m02+1eX1/L2ZBVPHO5XKlUqlQqtVqtVqsVi8V0Or2xsTGbzfr9frvdbjabV1dX8kcZDAaTyWQ2m81ms/F4PB6Pp9Op/tPcZzSnjvjW5alUqlQqNRoNGUWQz+fdhQUAAMD9Pc8w6gWNBXSDhXt93Skv/fKSjc7Ozj5+/Pju3bujoyMJo/1+fzabucMAVlXdzKhTk8mkHDiZTNrttlzHrC0vdVbpfR4MBuVyWbY+TyaT0o+vB1DqIa2Pd/7uPCL931QqVa1W9/f3Zc6WlI3NQzBX0zt2RNQKoOYkm8vNOZEzb32FkF2OCoVCpVJpNBr1el3OhoRRKaNeXl5eXl5eX1/LyF1zW2/FV4IvlkV9tUWNvjwajaZSKRmoUKvVpCVuH/13KFEDAPBsPMMw6g6sXJUM9DhRCRCLxWIymUinfKfTMVW309NTWTj98+fPkhTNQcxald6XxiB6ai0J/W9kuTznfD5vt9tSzJO59t1u9+LiolqtFovFfD5fLBYrlUqpVMpkMrrZpgN61cjXrxN4nEQiUSwWNzc3pX9ckrq7TqreiX7N8a2cav3W9/3pdDqdTvv9vvTF39zclMvlTCYjU50Gg4H8mWTghLWpks6jVkB0g6YlsIAqSVRqtPJHSaVSnqqprzppAABglecWRk0MtQYIWkFE/2B+5fu+jFy8uLg4PT09Ozu7uLi4vLy8UmSi0tc1TBdoZSGkwDw0Ho9brVYkEhmPx1dXVzKJR3Y/2t7ePjg4kL1/1q/B6T1NKvJ9Px6PS/lW9nwvlUoyhEBfTYqFt0tWe/RYBd/ZsSmw8YvFot/vm6GlssqpmbckAmePuUM1IveYwCSXW6s+bWxslMvlarVar9elLJrJZORX5mGa80AkBQDgnp5VGLVqooHJxnRqW5fr9Sk/ffp0dHT08ePHk5OT8/PzZrPZ6/UGg8FoNLJqb94yZeo0tipl6p560wvsB+3bNBqNrq6u+v3++fl5JpMpFAq1Wm17e/vFixez2UyaXalUzFrrbtR+iuKoWXMqnU4vFgtZAF9mFCUSieFwaN3E+luY2qTuxNcPX5809wTKclrSNW+GKCyWdOp1D6Lv+j6P2rTKXD8ej8ufQOYtyVr31vX1H/c+9wIAALznFEatKLOq6GWFEt/35/O5dAS3Wq3Ly8vPnz9/+PDh6Ojo06dPZ2dnl5eXnU5HV0Mjam1LqwFr7tfKZCaP6k3b9YWj0UiWMo3FYplM5vr6utPpjEYjKdfJqFYpzlnbZj5iGI3c3aDCFP9isVgqlcrlcuVyuV6vb25uXlxcSHnSWxaYvWV4jdzd30jXRwPP2JoxFTItaVVT3du66VDXRN2/lFWsNW2WGfR7e3svXrw4ODhoNBqBu0Ot+tMDAIA1nk8Y1Ux+0ilEjyA05vO5FERlWUpZmfL4+Pj09PT6+rrdbstEJX2T6JIucJouXSvl6OzlqQXbzc03NjZMl73v7LQkWVl6qCU0yyTxbrfbbrd3dnbM2k/uJkDeVwXT9WHaHC2RSORyuUqlsr29fXh42Ov1PM+7vLwcDAbz+VwXKd2gHHhHZvyormL6QayGuTf07g6KsMK0WTBfPxx9Zesu4vF4qVTa39//5Zdf/va3v71+/XprayubzVpt0A+KyigAAPe38T//8z9ht+FJWCnQu7tyZGS5Z89gMGg2m58+ffrtt9/+9a9//etf//rPf/5zdHQkyxXJ4kp6Io6VM3SIDCzyRZyJ5N7dlaSsTu3AQZYSSSWGDodDWUpzMBjI3HOTaE291sQvK3LdU2BQM60103R0ydOshzWbzabTqTmCDG+1Jv6792KtWqXvcU0MtU61rmuaUOh+Z7B682UbUvPtQk9HE4VCYW9v7+9///t//dd//fOf/3z16tXW1lYul9O7LgVmUCIpAAD38Wwro/6KSUueqjgOh8Nms3l8fPz777//7//+7//93/99+PCh2WyORiPf980W6jpqmJwkCdUt9emMZUUr724elV+ZhevXRy7f92WW/WAwuLm5ubq6ury8bLfbg8FAlljyfV/6jt1Hff9UFJgU9XnT/00mk+VyWZbwjMVisVjM9/3RaNTv93V8N0l0zSny7iZvPaXJOsmrmu2uZqBD86qTsCr+miuYdax+/fXXf/zjH7/++qskUXf1AOscus9AAAAQ6FmF0TVZyurDlVQnO/28e/fut99++/e///3777+fnZ2Zo93e3srOk7oP1xwksBTqsiKsbqrJo2v279F3LT318/l8MBjIbkMSQ2XrI6nwxeNx/ZDvd9ruWPWI3EgXiUQymUyj0ZDK4mKx6PV6skmVWQBfNg6Qxgeu9CT1SO/uKXpQKXRVs61LAg+o78gtmqbT6Xq9vru7++LFi1evXr18+XJvb8+aQS/VaPcrh0dlFACA+3lWYdS7Gy9MyrFSiPTOX15efvr06d27d2/fvn379u35+bmZD65FltOVrPqZe1h9E2/F/j3e2thkmi0J1QQ1z4lK0n5T4pXAF4/HZcuiNSfHbY/b+Pt0Ost1otFoNpuVqfHT6VRWvx+Px8fHx51Ox7TcU5OZrIfpnqXAs2qdUv29wltRQzX3pYc9RJx1D6wWyoNKJBKZTKZSqezt7f3yyy9v3rw5ODjY3NzU59Yc2Tw9/Ltrx7qPAgAAuJ5PGDWDAj0VSvSQQXM1WSDz+Pj4t99++7//+793794dHx9fX19bYdQPWnRpvfWZaVU4trqw3RwTWNUbjUYXFxcykHQ6ncq26bKtqN4TaE3Rzr0vK4muyqO+WsnI87x0Ol2tVmWzqNFoJBXT09PTVqtlLf+pU5p1lnyHdQZ029was3uSI3cXKxD6zPh3p52Zy5PJZD6fr9fr+/v7r169evPmzatXr+r1uqxvrx+L+bZgheDAswcAAAI9nzDqOXUyoZPB7e3tcDi8ubk5PT19//79b7/99v/+3/97//799fW16UTW+1jqAaO6rramB9mq9lkR04qGXlBVz/zXGk4q6UoCkPR6y0ym4XC4WCxSqVSxWMzlcolEolwuy4BXXVvVBeP1/cj68sDruA8/m83W6/XpdHp7eysbeMoaqJeXl2Z/Tk+tMGr9XUwAXbORlXV+1jRGZ0QTRvUaCHI1+YtbWdlsPX9wcPDmzZtffvnl5cuX+/v71WrVWq/A/VN6K0I8AABY41mF0fXm8/loNJIk+vHjx9bmXxEAACAASURBVD///PPPP//88OHDxcWFuY4Uz8zWQW4AWhNDzRHcUp93d2a3p9YtWnVYc4lJt5JE5SB6D/fr62uZSyTLPMlEomKxqMePencTrXe/JHp/kUgkl8ttb2/LKqSycbzs3qnDqLcMiO4S8YEFUdd9zr++snnUnjPjXlbLN1eWfedLpdLm5ub+/v6bN29kIafd3V05sfF4fH2TSKIAAHyF5xNGdT3SC6qfjcfjm5ub4+Pj9+/f//HHH0dHR5eXl6PRSF8tHo9LGJ3P5+5BPKcMpmtjVk1UX98qrEaCxptaXc+Bjy6yHMDq+74OeaPR6PLy8ujoKJ1Oe8tqX7lctnql18fQbxSPxwuFgvmvTKuKxWKfP39ut9sypUn3jOuGeepE6Yds3cWqJOrGwUjQcgruXRvRaDSTyZTLZVk29eXLl2/evHn9+vX+/n6tVstms4lEwvf9xWJhvhJ4d79RkEEBAPg6zyeMek6PvK60TSaTbrd7dnb2/v37f//733/88ceHDx8uLy+tjeYlcFjLOVlXMPel+3zNhbqDWEcfSTAmSupCoO/w7tZiTXiNRqNSU7RClYwfTSQSJkbL5vXFYlG33H+kxYbcHnZ54PF4vFgsmtwcj8fz+XytVjs5OZEtVSeTidlBQBeJveXoiFV3of8NTOr6mOaA1m099azQ53BjYyObzVYqlZ2dHTNI9PDwUGqimUxGaqLmXtw/FgAA+GrPM4wKM0tauoyvrq6Oj4/fvn37n//8588//zw7O+t2u1Yn8nw+1wHIu1twtcpgVi/zfVoYmKh0a636qBWb9CX68vF4fH19LVs03d7eyvZIUs+TWqku0JpDfXUwdQvARiwWKxQKZsvQUqlUr9er1erHjx/Pzs5ubm7MjlZWUvfuZkr3vyb8WVnc/NaqUvtqVrsuYVrnOR6PZ7PZarUqSfTvf//7L7/8cnh4uLm5WS6X0+m0XtzeJGZiKAAAj+VZhVGdFE1fquw7f319fXJyIpvOf/jw4eTkpNVqya0iy1k17tKhgXFTl9kCq7CBDZOCpSWirDqCdaH5r6nLSt/xeDy+vLyU+UOFQqFcLudyuXg8Xq1WU6lURE0k95dTox6rUGqJxWL5fH5jYyOZTOZyOZlWJVOaZKZ/r9eT0KzPpOd8AbBO/jcWIwMDdCwWk6lXe3t7L1++lA0/ZY+lYrEo0+f1k8rQBVf3mwkAALi/ZxhGrUtGo1Gr1TJJ9NOnTxcXF+1221wnkUhsbGwsFgvZVH1V1nF7aR+lwav6plc9KFPwM/t/zudzGZF5e3vbarWkHlkulzOZjFT1pMK3qr7r3tGDEpU5G3r9zo2NjVwuF4vFEolEMpmUkbipVCqfz19eXt7c3MgiUKPRaDKZyB5O1kl46KJaq1hZVr6ixGKxdDqdzWYLhUKlUtnc3Nzb2zs4OHj16tWLFy+2t7fL5bKZrmTKsXpbV+/uCgneA08aAAAwnk8Y9dUi5ObC29vbwWBwfn5+dHT09u3bo6Oj8/Pzfr9vZR2rF9vqK7fSht5pfU17zMx3U/V09/jRdIHNapVVMgy8oZjP551O5+TkJJvNSpyS3eGTyaS7l7p1BqwO7jUPLfDerSwbiUTS6bRZUEnGjzYajcvLy+vr61ar1Wq1ms2mdNxbmzM9aOTD/clq9pKJq9Vqo9Go1+uNRmNzc3NraXNzUxYi0I1Z0xIKogAAfKNnFUYNnZD6/f75+fn79+/fvXv38ePH6+tra9KS7iN2o5UXlEcDY6IVWaQWmEwmZdbRZElfZ1XQ0SMdvbtxU7fB2jpISH99PB6XFJjNZsvlsll5VB9WDzzQ2fpB0UoneJO2ZYNQz/NkElU0Gk0mk8VicWdnp9lsXl5eXlxcnJycJJPJxWIxmUx0GDXx/f5tcJvkqfqlXLixsZFOp3O5XLlcbjQae3t7e3t729vbW1tbjUajUqkUCoV8Pi9jG1Y9Rn3yCaAAADyK5xNGvaC+Xd/3h8OhDBj99OnT2dlZp9Mxi1z6y9kwa5KoPtSasaGm99z0AudyuUKhkMlkIpHIZDLpdDqy6KZV5oyoyfXe3RrtmpKbboZ/d0rTZDJptVryGLPZ7Pb29osXL6yl3R+96OipxTt9318sFpJHJYZubGwkEgnZ1qjdbsuUpkKhIANJ0+l0q9Xq9/uTyUR/o/C+9BcJFFje3tjYkJWbGo3G9va2dMrv7+9vb29LEs3n8zKcwOrWN8d8xBMFAAC05xNGI2p3H6Pdbl9fX5+fn5+dncloRblcBlz6apcjcxCr6KUjo5VyImo7+Ewmk06n40upVCqbzcrEnWg0KpOo2u12v98fj8cyOFX2lB+NRuPxWIZOBnbi68ZY1T69nbrZmUkO22w24/F4pVK5uLi4ubkZDoeyJZLmOzsefXvqsk6pnDqZYp9Op/P5vClA5nK5TCYjPebNZrPb7Q6Hw9lsJu2XH2SZLbPYlhVSrWql3NfGxkYsFovFYrKQlvwtUqlULperVCr1en1zc3N3d1fKorVarVQqybID1nl2/xbW3ekrP9bZAwDgL+inD6MmnUj40GG01+tdXFycn59fXFxcX1/rSUty/cA1O/Ul1gaS+pqRSERmi0u9TQpsuVxOCmySgaTyF41GF4vFeDweDoeDwWA8Ho/H49Fo1O/3pVzaarUkikkkde/IbZuVSk1RVufUVqt1fX0tYzRvbm4KhYLuqfeWi6qaR+p2Rj+IyYKRu8wV4vG4JEU5Ofl8vlQqbW1tXV1d3dzcdDqdXq8nE5vkRI1Go+l0OplMptOpJHUzDMA8XtPgyHLDT5M+0+m0hN1CoZDL5fL5fLFYlBEL9Xq9Xq/LggOpVMraqspbDgv27haqrb+I9YfQmfgrzh4AAH9ZP3cYtUplJozO5/PhcHh1dXV6enp6enp1ddXtdq2hot7q3GAV29yFn6T3uVAo1Ov13d3dFy9eHB4ebm9vl0qlTCYjZTlJXfJzJBJZLBaz2WwymYzH48Fg0Ol0ZPTk2dmZqdpKJDV51Pd9uWudhq2ObGGt0ynG43Gn02m1WldXV1dXVzJzXK5pTpQ8KCvbfR1JojoQu0eTKURy9mQ9/N3d3W632+v1Op1Op9Ppdrvdbld+7vV6w+FQJt3rQqmcFnN3nvoqIuMBTAYtl8vVarVSqRSLRSnHZrPZTCaTzWaz2Ww6nZadS/XpNT9bZ956LG5v/refQAAA/pp+7jDqiiy3ypRV7i8uLq6urjqdjrXtp3e3AuoWR3WNUCqIeqHQZDJpNjE3e/bs7OzIgkpmRU9JJ3rjJZnJ1Ov1JCOen5+Xy+V8Pp/NZlOplBRrB4OBLnAG9guvGkMZmEevr6+vrq5kkngulzNDFGR85+3trV6V6VtYFUSrzZHl+q+JRCKRSGSzWVkSX9eJ20sSzQeDgSmRzmYzs5u8OaumoGvWbEomk7JmU7lcrtVq9Xq9VqvJWqdSBJXqrMmg/t29snRBd32yjATNAyOMAgDwUD99GHVjmUzi6Xa7zWZTeqj7/b675rx1Qx1HJOJI5pOkYrqzJeuUy+XNzc2Dg4PDw8NXr17JJub1ej2fz5skqjuU9R2l02npRJYF4YvFYqFQkK7kZDIZi8WazeZgMDANXtXO+5jNZv1+v9lsXlxcFItFqQXKnCp5gJJHH3TMewqs4Ope9chyqVTpsi8UCtKN3l2SXvvhcDgej63KqEmfbhiNx+NSGS0Wi9VqtVarlctld1SoaaR0/Us79aE8FUZXjZoAAADf7qcPoy6pjPb7/Zubm2az2W63Td+3YS35qTOT7prX+9RHo9F0Ol0qlWq12vb29uHh4cuXL1+8eLG/v7+zs1OtVnO5nE4qbp3MpCgpgsqQ00KhUCqVKpWKdPHLNkVmJ3c9kyawF1hX8tx1TGezWa/Xu7q6Ojs7k65q6Z42oxpWRd5vpHO81WsfGObMpHvpvi+Xy9JBL1O7JInqMaOeGuRqmDwqm6Bms1nTNW++IXhqGKh392+tL1//BcDtsn+KNA8AwF/ETx9GV1VGZfZ6u93udruj0cgKo4HlQKs4KlnKpB/pmt/Z2Tk4OHj58uWbN29evny5u7tbq9UKhUIymbQyyprqmsyzkRWgpIZXKpVkHSgJo7JKaKfT0eNcb29vZQaSiU26Q9mMAdVtmM/nvV5PKqOVSqVWq9VqNd0vb3540oKfm8vd/0qfuyzOms1mZU69roZam2NZ0VZHUim4mpUNrEEI7p9J97Zb/1rZNHJ35VerQ5+iKQAAX+GnD6NuXWo6nY5GIzMnRhawtPb48dX+7OYSawig53nmVpFIJJVKVavV/f39N2/e/Prrr2/evDk4OKjVarlczlzfrGBq7sIqDerqppTrZMKNWRnKdD0vFguZS/7Fqps5oLuXqUzkarfbzWaz1WqZaqu+rc5z6+/o67hnNfCOTJSUcZ9P0ZJVrECvm+qWSNenagAA8FA/fRj1gmbtyHR1qYya1dTd2GrCh3u5f3elyUwmU61Wd3d3X758+csvv7x69Wpvb89KomZoaeTueFPdBRxZbnEuBTy5YTQaLZVKelGk29tbydO9Xk/XdHXS1ZVRL6hCHFnO5TJzgzqdjiwgZTYZ0t3cDz7v9+OGPBOa3Vj8WFOpDP0dw+1tdx97YDf9Km4wJZsCAPBQP2UYdfupjel0KklUBozKpGy3m15nOCumyCrrnpqBlE6nK5XKzs6O9M6/evVqf3+/Wq2mUinrmFaWcnexXxP+0ul0o9GQyuhisZCJR61Wywqj1r9unrMqu5PJZDgcSp1YZgWNRiOdofUKo48oosZirho2aqXAp0hy7jnxnc1d9ZV1L/yqA37xEgAAcH8/ZRjVrKghZdFutyvLA7XbbYlf8/lcxx09X94aEej7/nw+lwtl3UpZm31/f//FixcvX77c399vNBpmupJ/d3FK3TY9BsBbnVpkEGcsFisWizK3aTweX11dnZycXF1dDQYDfUATpHT7zUOzspf09Y9Go8Fg0O/3e71ev98fDAb5fF6S9BNVRiNqw6r16e37JDk3kq5qwH3a8/3bDwDAM/Ycwqj5eT6fT6dTk0elEKin0rth0epD1zHOWy7kVK1WZUPz3d3dra2tWq2Wz+fNQWScaOBMoC8mFX+5tJCJg8lkcnNzs9PpyH6Vl5eXw+Gw0+noBntOGPVUZVEXfb1lHpW1PM3ORuPxWBaf9+5WRr9YF7y/VUk0RPdszA/VZgAAnr2fL4yuGc8nPeySvYbDoVQB9YR0HbkCRxBalyQSiWKxWK/Xt7e3d3Z2tra2ZM9Pc535fD6fz80C7PqwazKNaYBsJS/jAcw4zkwmU6lUtre39/f3W63WZDKJRCKyVKqZUGUGmFpHNmVOcxcmoA+HQ7NekkxUl3t8ov7xB9F/EaucfM/hm5rOwe6/AADgh/LzhdH1JN7JQEnZv0f/1oRRK+is6qpOpVLFYnFzc9MkUWvRylVJ7v65Z9X91mq1w8NDs1y/7/u9Xs/MqVoT0UzwMsl1MplIWVQWkJeVO82IWM8pGIfFdO6bAq3/tXsakUEBAPhZPKswKilT7wJv7UfvjhNdX8hMJpNSGd3c3JT1RBOJhL6C2erzQfuS6zGm/nIlfH2FdDpdq9UODg5kJ0zZLbPf75srmDVH1x9fzOdz2eFdTojsq6nDqOWrI+BX+4qBm199cAAA8EP5KcOoNbRRj5KU7cvnS4G3DVzlxwuKRLKZe7lcrlarsquk6Uw31/nqbu41dTsza0oGjJ6fn5+cnHzxgGvKpbJkqdnNyOwC6jb++ydRjeAIAMBfzU8ZRgPJgFHJoBJJre2I1gTHwBgnuwHJDvJm73jZmUkXMr+xLzhydxlOyYhm69FqtVqpVPL5fODW6takJXcFJXPJTNHbGt3nPAAAADydZxVGZQ/J6XQ6nU6l+KevcJ+57fq/yWRStjjP5XK5XC6dTicSCemUt274LfU8Kx9LYVJ2IZK7zmazqVRKD1TVN7SqvCbRWv3+5rSsSaIAAADf3zMMoyIwjFqTzTW3ezqVSqXT6XQ6nUqlZMv4WCz2FHN99OJKZkf7WCxmdlc3U/Wth+PdHaLgDj/QzNAFCaPkUQAA8CP4IaZRfzszdUl3039x8Sbv7vx6ff1EImGSqImh3zhxPvC2bi+/uUTIHKmNjQ2rOBqYp9dE0ltlfWwFAAD4bp5JGPXUhvLuaFGxPjVKSjPXNGXRZDIptUkdW/USS9+e6twpROZf2ZkpkUhIe6yrBabPNQ/TXFnaTx4FAAChez5hVLhrNmlWcXRVbpMhm6lUSjro4/G4Lou6+e8pCo2m1z4ej6dSqUwmk8lkdGe9v9y9SYfXNY/LOjMkUQAA8CN4PmHU6t32Hp63/OWKUdInHo/HY7GYjNcMDKNfHKb5LQ9EfpA+elMZlQ3lhdXn/sVmuCthAQAAhO75TGDylulNT1TSv/2K7Bh4EP3DU9cX9ZhR4TZmfTHYOprliZoNAABwT8+nMuotw5aenK7dM4n6yy3jZUlO2Tt+zW2/vTiqj6B/NvVdGQgrvuWO5ORIuv1BtgAFAAB/cc8kkei555q+zhc71k1+1buJTqdTs3/mo9dB3R5/ayiqxGJpzHA4HI1G5rdm8EDglPzARycxVI89eNyHAwAA8FDPp5veTaIP6qaX60vp0fd9CX+DwWA0GskumiaM3if5PYg5rOl2j0QiUg2VWDwcDmVvemuWkpu219yLLotKGKWbHgAAhO65hVEzttJd2d7Nav5yoXt3DOV0Oh0Oh1KMnEwm0llvrik3fJTZS1a+1LOvFovFdDodj8ej0cgqi3pqTMKDxoyuCeve3R1EAQAAvoNnFUbN4vBrKn9W6NQDNK3rj5dk8Kjuprdm1n9jy3UmNpdYQwXm87l1R26AXl/pdE+L72w6BQAA8J09n1GDUhaV/TNXbZjkziVfk8am06nEwdFoFJgIv32BJ31z3ZLFYjGZTPr9fq/X6/f7o9HIumt3RrypeprCqr5+MpmUBfxjsZi5wlc0GAAA4HH9lGE0sLoZcdYHtYKmzm1uWdEliXA4HPZ6vW632+/3J5OJns/+WD31rtlsNhgMbm5urq+vW61Wr9ebTqfWY3EzpXlQbquy2Wwmk0mlUrKA/6M3GAAA4Os8n256z/MkjAo3jHp35x59cUSp53mTyaTb7V5fX19dXZVKpWw2K3nOHC0ajQZuPXpPZtyntYDodDptt9sXFxenp6fn5+c3Nzfj8djKndZQURND3ceSTCZlAydTHF0ze4mOewAA8D09qzBqli6SzvpEImHNyLHynHVzN4+Ox+Nms3lycpLL5dLpdC6Xy+fz2WzWXCEWi83n88CbB6a6wElUq+738+fPR0dHnz59urq6Gg6HgTd0F5yyRg5Eo1Hpo5cwmkqlEomEzqPuyFHyKAAA+G5+vjDq5ksdp6LRqOwsn81mc7lcLpfr9XrmmlLFdONXYCKMRqPj8fjy8lKKrPF4vFAolMvlUqkUi/3/580c0zTPHQCwpgrr3vXt7W2v1zs/P3///v0ff/xxdHQkYVSXYGWuvXtz8xhNY8zW9nJCdH1UN4YACgAAQvHzhdE1pMs7Ho+n0+l8Pl8qlUql0mQyMQMudVBbs0in9PJ7njeZTJrNpix6n0gkyuVyrVYrlUqVSkXfqa5ERpzlP917MQE6cBJVr9e7vLz89OnTn3/++eeffx4fH5tmx2IxUw21QrD7AOUxmjCaz+clnWcymWQyKQ9QjhNZvW0VAADAk3puYTQWiyUSiWw2a6qYo9Go0+nMZjMT40wPtV7kyPxrBp7KjqCz2UzGa2az2Xq93mg0CoXCxsZGoVCQm5vhnnLwwGCn66be3VGeGxsbEgflCv1+//T09Pj4+OPHj58+fTo7O7MC9Kre+UjQEqFyQmTMqFRGs9lsOp1OJBJW29xqMQAAwHfw04dRK4FJWTSbzRaLxXK5XC6X+/3+dDr1fd+sjqSrkua/Oi+683tardbp6emHDx8qlUoymZzP51tbW/l8XsZfynVkMlNgfTFwfKqe3T+bzabTaa/Xu7i4ODo6evfu3enpaa/Xu+dm9CZbW2dD1rqSyqg1h8k0w1RG73NHAAAAj+unDKOBFU2RSCTS6bSURSuVSqVS6Xa7o9FI9vPUXdsmurmDUN0e8Nvb2263e3x8nE6nF4vFYDDo9/s7OzuVSiWbzeohpGusqj7O5/PBYCB59/3793/++efbt28/ffrU6XTWz7jyVAw1AdrkVxk+m0qlstlsPp8vFAoyDUuXReWc6G2cAAAAvqefMoxqbm+1hNFKpVKv11utVrvd7vV6w+FwMplYtw3s2pa5QaZkaPJuv98/OTlZLBay8uhwOJSxpLe3t7lcTtZ70vVFa2KQuyCo/CxJ9Pr6+vj4+I8//vjPf/7z9u3b4+Pj8/Pzbrcb2EfvHkeSqJspY7GYDJ8tFovFYjGfz6fTabM0lW4qYRQAAITipw+jrlQqlcvlKpVKrVa7vr6WVUIjkYg1uWfVqpzWpHszP2k8Hl9fX8tm8ZPJRK4jlUXf9/P5vBXyrHGi3t3KqNzLbDYbDoeyetS7d+9+++23f//73+/fv7+8vOz3+2ZtJt0L7wZHuYJM+dePUcJ0MpmUaF6pVAqFQiqVstY0BQAACNFzCKNucTSVShUKhVqtVq/XLy8v1/SkB8Y7c4ls5u553nw+XywWs9ms1WrJ2FOJgLJL02g0qlar2WxWZqmb1CjrnkqUNLFVRq/KXqMyueri4uL4+Pjt27fv3r378OHD2dmZWVVUplJ5nifFWj1n31O985p+IBsbG5lMplwu1+v1Wq1WKBSSyaR1HebRAwCAED2HMOo584GSyWSpVKrX67KPkVu2NLfSzOU620nft65odrtd2QXe931Jkzc3N1tbW+VyOZfLmS2OZPKQ/Cxd/7OlyWQio047nc719fX5+fnJycnHjx8/f/7carVGo5HVEmmbtUiqmyDdQClro9br9a2trc3NzXK5nE6n9dXMoyOMAgCAUPzcYdQkSCuMplKpYrE4Ho87nU61WjVjOgNvuCqJSk3UvYLv+8Ph8PLycj6f93q9VqvVbDb39vbq9bpsGZpIJOLxeDKZTCaTiURCAp9k0PF4PBqNBoNBt9ttt9vNZvNi6erqSha31/37egBrYCOtB2WVeOPxeD6fr9VqW1tbjUajVColk0nvbqKlMgoAAEL0c4dRQ0dGKVvmcrnpdFqpVCQgWmH0dilw7o6enG66xXVxdDKZzOfz8Xg8GAx6vZ7UOKX0KDPWJYnK1HVZSVTWKx0Oh1ITbbfbNzc319fXl5eXV1dXNzc33W53MBiYWVbmHs0S97olVnvkarK2lH4gsVgsm83KWv2yKJV5+OYxSuYmjAIAgFD83GFUR6jb21spIsbjcQlYuVxOdkuSSJpOp00PuMQ7d+n4QNZEIrnhYrGQFUzFaDRqt9vFYjGbzaZSqWQymUqlUqmUNEbGiUpZdDgc9vt9qYze3Nw0m82bmxuJobLNvRmoauZXBTZSF4NND76+ZjabrdVqEkOLxWI6ndbnyltRXgUAAPienk8YXSwWEkalMup5XiKRKBaL9Xp9Z2dnb2+v0+mcnp6aPGqmBOkKqGH+62ZWfafT6bTf70cikdls1m63M5lMKpVKJBLSUy9L4pvedumpl3lLpkTa6/UCC6KeCpfWpCWrMSZY62sWCoW9vb0XL17I+IF8Pu8+OimmEkYBAECIfu4w6jlTfCRgmU75XC5Xq9X29/cvLy9Ho1E0Gr28vBwMBmY3JiEd3HogqdmiU4dRkxR1IpSdkyaTSbvdlhlLG0smFnvL5UsXi8V8PjcbjU6nU/lBPxxdENXjR3VotrZ60o8lkUiUSqWdnZ1Xr179+uuvBwcH1Wo1lUrpk+bWXImkAAAgFD99GDUkWpnsKOkqkUiUy+Xd3d12uy2Lg5oeduvmVgr0VOzTBVRvOaLUhMXFYjEajcbjsY6q5ppuI727WdCKmyZbW6NgdfS0mmSNE02n0/V6/cWLF7/++usvv/yyt7dXLBb1ylY6c6+q+AIAAHwfzyeM6qw2n8/NlkjZbHZra2swGJjBnf1+fzAYuDks4iyDb+VF7+44SysyWqHwQS23hm/qyqsVcD2np94iYfTg4ODVq1cvXrzY3NzMZrPW1lDWIyWGAgCAsDyfMOrdnYG+WCykoJjNZuv1unSOy7KgrVZL8uiqm3uru7DdKqm5/KubrbOvFToDk6i3Oj4mk8lisdhoNPb39w8PD3d3d6vVaiaTca9PAAUAAD+C5xNGI2qBeuk99zxPVp4vl8u+789ms36/LxuE9vt9GbIptzXRU5c8zWH1vZh56PrK3954qwHuv+4jNYVYU+bc2Ngol8uNRmN7e3tnZ2dra6tWq+Xzed2bL1cmiQIAgB/EMwmjUkS0Zgv5y007NzY2SqXSZDKRHY9klyPf929ubsbjsZRR9XGsaKhXv/ecue3eijxqRUmru3+VwN5561785bKj0mx54LLp1N7e3sHBwf7+/ubmZqVSyWazgbXbNaNaAQAAvqdnEka9ZSbz1FBOma60sbHheV48Hi+VSltbW+12u9fryYqekUik2Wzq7Tclv3rLHnNrKKeVJk0CtkaamsZYE5LMxCN9TSvjBj4u80NgUdP3/VQqVavV9vb2Xr169be//U2Gilr7TskdWUvcr+/0BwAAeGrPJ4x6qqfeLMakE14mk6nX65PJxAwnXSwWshC9PoIeqenOK1rzr3sQfdv7NH5VB7qefqQHIeiHtrOz8/e///0f//jHr7/++vLlS5m39MV7JIwCAIBwPZ8wqpOfWctdx6xoNJrP53d3d6PRqCx1NJlM+v3+cDgcDof6OKaCqFOguQtrdKnVDBOCrZKqrowG3sQNr+5QgUAyVPTg4OCf//znf//3f7969arRaGQymcDGu/8liQIAgBA9nzDq3V2hSY+w9JerdSaTyWq12SM15gAADxBJREFUKrsiTafTbrfb6XTG4/HFxYXUR81gU8mjplSpj+zmRYvOo54aNvDFYaNWt757w8CbSwf969ev//a3v/366697e3smhppZXPLw3QaQRAEAQLieTxi18qIpK5pl8GOxmGyJVC6XF4vFcDjsdDr9fn+xWMTj8evr6+FwaPYU9Za7ZeoZRTqY3n820n2uaY5vxnT6agF/2W/JPCJZIsBbbra0v7//5s2b169fHxwcbG1t6YLoYrHQhw1sIXkUAACE6PmEUS9o7vmq/vFisbizszMcDufzeSKRyOVyx8fHV1dX3W53NBqZ/TnNQUxGtKYTfbHYabXEaq3uoI8uyW/19qSeSrTRaDSRSKRSqVwuV6lUtre3ZbOlg4ODYrFohU5rupLbqjUDVQEAAL6DZxVGNZ0a3VpmLBYrlUqHh4eyRVOhUMjlcul0+vz8/ObmRlYh9ZwJ8rr4qu8rMDVaAvvH3UGc1lx+6yAy0iCfz5fL5c3Nzf39/ZcvX7548UKWc1oVRq07tcYw6BMV2HIAAICn82zDqLBGYZp59JFIJJPJNBqNeDyeyWQymUwqlUokEolEQkaU9no9Ux/1lgHO9OCbCwN/vg/3+masqtV+fUk8Hs/lcvV6fXd39/Dw8PXr169fv97f3280GuVy2dr203Om/OshB3JfJp6SRAEAQCieSRhdPy/H5FEZEirDLjc2NnK5nIy/jMfjGxsbsVgsnU5LNm02m71ebzQaTadT3dd/z/Z8Mdu5tVW5C6vN5r8SmguFQqPR2NvbOzw8fPny5evXrw8PDxuNRqFQSKVSsi2TDDB11xOwkijpEwAA/Ah++jCqJwm5k4081f2tZ6abCmI6nZZgGovFUqlUsVisVquNRuPk5OTq6qrVarXbbRlaanXZe2rY5ReXSbIm4Fuz460j60dhGiZd81ITPTg4ODw83N/f39vbazQaxWJRL25v7sJEcH2i3PasaTYAAMBT++nDqHd37SS5JKJ4alUji/xW5qTH4/FsNlutVre2tjY3N+v1+ufPn09PT8/Pz1ut1mAwkNXy9Z3q+zK9/4EtDAyjbir1VMDd2NhIJpOpVCqTyRSLxVqttrm5Kb3zBwcH29vb9XpduuZ1Eg1cYHV92TjwEgAAgO/j5w6jbr+5yXZWRow4e3LO53O5XHrqS6VSNpstlUqVSqVYLBYKhUKhkM/ns9lsLpdrtVrdbncwGEynU7e/3lfbxD+o2W79UmxsbEinfLFYLJfLtVpta2trZ2dHtp7f3d2t1Wq5XC6VSukDBsZQHXZ1QAcAAPgR/Nxh1I1x5hJfrRXq3d08SS6XH2Q1JclnEkljsZjE00wmk8/nC4VCqVSSLvtOpzMcDqfT6Ww2m81m0nfvr95a6Z4PIRqNyrr0cr9SEC0UCpVKpVqt1mq1RqOxtbW1vb0tkbRer+fzeT0YVKJwYFkUAADgR/Zzh1FhzRa3esAlj5rr6PGjbpkwEokkk8lyuRyNRqV/vFKpNBqNq6urm5ubm5ubXq83GAwGg4HsIzoej6fT6XQ6tQaVemuDsr5kY2MjkUgkk8lkMinxN5fL5fN5qdFWq9VqtVqv1+v1erVaLZVKxWIxlUoF9sKvScOrQqoebHCPMw0AAPDI7Hj0M3I7zX01+T2yXE/ezDoKHF2qb75YLCaTyWg06vV6rVar1Wrd3Ny02235t9vtttttubDb7Xa7XQmmeikoz9moyfqviMVimUwml8tJj7ykz3K5XCqVyuVyuVwuFovys4wiSKfTyWRSFp/ynNi9KnHquVzWSVt/QwAAgKf2HMKo63bJc8KoEdixbu2lOZ1Oh8Nhr9fr9/u9Xq/T6bTbbUml19fX19fXV1dXl5eXl5eXMsnJPZR7L5FIJBaLSTVUpslL3KxWq5ubm41Go1arSfosFArZpUwmk0gkpDffPMbAYG3dV+DljCUFAAA/iGcbRn21bKckUWtBeNOJ76td4CNqW065vkTS6XQ6Go36/X6n05FI2mw2TR6VEaUy434+n3tq+Kan6pdmvpTs5ylrmuZyOSl/ypJSpjte5k4lk0mzDKqurZoG6yTqBm5vRdD8YnkYAADg+/jpw2jguMxVlb/ATCbBzuyuJKlOpjHpK89ms/F4LANGe71et9s1wVT662WFfDOtXodR3ZJoNCqzlKQymk6nZZCoRFIpiOZyOSmFxmIxt8Fe0FAEHUbNddwHbg2rXXNyAAAAvoOfO4zqnHdPbuoyYVSyndREZSV862qLxWI+n89ms+l0Oh6PR4rMZJIdnswd6UYacvBYLBaLxaTqaVKpkGpoLBYLrHSaY5o8ag5rHppVi7XC6KqyKGEUAAB8fz/9bHqdR/3lOvY6XVnZS+jgJZPr5V+5viQ8udAcUEJqLBZLJpNyHcmviyW36zyQaZsZDCDBV35wRxT4d3citVZOdQ9rbuWGS/dUEEABAEC4fvowanxLiVfHO1NxNLkwcnfxfAlwsibo4zU/gB5FYKq2vu9LydYkWt3brh9RYB7VV9CP/UkfCAAAwCo/fRh1U9eqTuc14cwEO5NHvaBxn953LCVaIxDW9KSvv9ANqYHXJI8CAIBQ/NxhVCfRL9YCv3gosxiTvtALNa6ZKuyqyUams35VWfQ+5VKSKAAACMvPPYHpPlbN1wm8pudMPLJmpnvfJbrpOe+hB2IAAICn83NXRu/PFAXvM4xS38S7OzndXM2Kqt/YNs+Jm1aAdpsHAADwDPwlwqiVRL8i1embmIyo8+JDl5fS/9WhU9rp9rwDAAA8S8+/m94LGgb60NsGpsNHP3WBx6csCgAAnrG/RBgFAADAjyn65asAAAAAT4MwCgAAgNAQRgEAABAawigAAABCQxgFAABAaAijAAAACA1hFAAAAKEhjAIAACA0hFEAAACEhjAKAACA0BBGAQAAEBrCKAAAAEJDGAUAAEBoCKMAAAAIDWEUAAAAoSGMAgAAIDSEUQAAAISGMAoAAIDQEEYBAAAQGsIoAAAAQkMYBQAAQGgIowAAAAgNYRQAAAChIYwCAAAgNIRRAAAAhIYwCgAAgNAQRgEAABAawigAAABCQxgFAABAaAijAAAACA1hFAAAAKEhjAIAACA0hFEAAACEhjAKAACA0BBGAQAAEBrCKAAAAEJDGAUAAEBoCKMAAAAIDWEUAAAAoSGMAgAAIDSEUQAAAISGMAoAAIDQEEYBAAAQGsIoAAAAQkMYBQAAQGgIowAAAAgNYRQAAAChIYwCAAAgNIRRAAAAhIYwCgAAgNAQRgEAABAawigAAABCQxgFAABAaAijAAAACA1hFAAAAKEhjAIAACA0hFEAAACEhjAKAACA0BBGAQAAEBrCKAAAAEJDGAUAAEBoCKMAAAAIDWEUAAAAoSGMAgAAIDSEUQAAAISGMAoAAIDQEEYBAAAQGsIoAAAAQkMYBQAAQGgIowAAAAgNYRQAAAChIYwCAAAgNIRRAAAAhIYwCgAAgNAQRgEAABAawigAAABCQxgFAABAaAijAAAACA1hFAAAAKEhjAIAACA0hFEAAACEhjAKAACA0BBGAQAAEBrCKAAAAEJDGAUAAEBoCKMAAAAIDWEUAAAAoSGMAgAAIDSEUQAAAISGMAoAAIDQEEYBAAAQGsIoAAAAQkMYBQAAQGgIowAAAAgNYRQAAAChIYwCAAAgNIRRAAAAhIYwCgAAgNAQRgEAABAawigAAABCQxgFAABAaAijAAAACA1hFAAAAKEhjAIAACA0hFEAAACEhjAKAACA0BBGAQAAEBrCKAAAAEJDGAUAAEBoCKMAAAAIDWEUAAAAoSGMAgAAIDSEUQAAAISGMAoAAIDQEEYBAAAQGsIoAAAAQkMYBQAAQGgIowAAAAgNYRQAAAChIYwCAAAgNIRRAAAAhIYwCgAAgNAQRgEAABAawigAAABCQxgFAABAaAijAAAACA1hFAAAAKEhjAIAACA0hFEAAACEhjAKAACA0BBGAQAAEBrCKAAAAEJDGAUAAEBoCKMAAAAIDWEUAAAAoSGMAgAAIDSEUQAAAISGMAoAAIDQEEYBAAAQGsIoAAAAQkMYBQAAQGgIowAAAAgNYRQAAAChIYwCAAAgNIRRAAAAhIYwCgAAgNAQRgEAABAawigAAABCQxgFAABAaAijAAAACA1hFAAAAKEhjAIAACA0hFEAAACEhjAKAACA0BBGAQAAEBrCKAAAAEJDGAUAAEBoCKMAAAAIDWEUAAAAoSGMAgAAIDSEUQAAAISGMAoAAIDQEEYBAAAQGsIoAAAAQkMYBQAAQGgIowAAAAgNYRQAAAChIYwCAAAgNIRRAAAAhIYwCgAAgNAQRgEAABAawigAAABCQxgFAABAaAijAAAACA1hFAAAAKEhjAIAACA0hFEAAACEhjAKAACA0BBGAQAAEBrCKAAAAEJDGAUAAEBoCKMAAAAIDWEUAAAAoSGMAgAAIDSEUQAAAISGMAoAAIDQEEYBAAAQGsIoAAAAQkMYBQAAQGgIowAAAAgNYRQAAAChIYwCAAAgNIRRAAAAhIYwCgAAgNAQRgEAABAawigAAABCQxgFAABAaAijAAAACA1hFAAAAKEhjAIAACA0hFEAAACEhjAKAACA0BBGAQAAEBrCKAAAAEJDGAUAAEBoCKMAAAAIDWEUAAAAoSGMAgAAIDSEUQAAAISGMAoAAIDQEEYBAAAQGsIoAAAAQkMYBQAAQGgIowAAAAgNYRQAAAChIYwCAAAgNIRRAAAAhIYwCgAAgNAQRgEAABAawigAAABCQxgFAABAaAijAAAACA1hFAAAAKEhjAIAACA0hFEAAACEhjAKAACA0BBGAQAAEBrCKAAAAEJDGAUAAEBoCKMAAAAIDWEUAAAAoSGMAgAAIDSEUQAAAISGMAoAAIDQEEYBAAAQGsIoAAAAQkMYBQAAQGgIowAAAAgNYRQAAAChIYwCAAAgNIRRAAAAhIYwCgAAgNAQRgEAABAawigAAABCQxgFAABAaAijAAAACA1hFAAAAKEhjAIAACA0hFEAAACEhjAKAACA0BBGAQAAEBrCKAAAAEJDGAUAAEBoCKMAAAAIDWEUAAAAoSGMAgAAIDSEUQAAAISGMAoAAIDQEEYBAAAQGsIoAAAAQkMYBQAAQGgIowAAAAgNYRQAAACh+f8AoEmzuLzGWrIAAAAASUVORK5CYII=" vertex="1" parent="1">
          <mxGeometry x="390" y="410" width="40" height="40" as="geometry" />
        </mxCell>
      </root>
    </mxGraphModel>
  </diagram>
</mxfile>
